<?xml version="1.0" encoding="utf-8" standalone="no"?>
<!DOCTYPE svg PUBLIC "-//W3C//DTD SVG 1.1//EN"
  "http://www.w3.org/Graphics/SVG/1.1/DTD/svg11.dtd">
<svg xmlns:xlink="http://www.w3.org/1999/xlink" width="784.39125pt" height="492.878437pt" viewBox="0 0 784.39125 492.878437" xmlns="http://www.w3.org/2000/svg" version="1.1">
 <metadata>
  <rdf:RDF xmlns:dc="http://purl.org/dc/elements/1.1/" xmlns:cc="http://creativecommons.org/ns#" xmlns:rdf="http://www.w3.org/1999/02/22-rdf-syntax-ns#">
   <cc:Work>
    <dc:type rdf:resource="http://purl.org/dc/dcmitype/StillImage"/>
    <dc:date>2026-09-21T03:59:06.610629</dc:date>
    <dc:format>image/svg+xml</dc:format>
    <dc:creator>
     <cc:Agent>
      <dc:title>Matplotlib v3.11.2, https://matplotlib.org/</dc:title>
     </cc:Agent>
    </dc:creator>
   </cc:Work>
  </rdf:RDF>
 </metadata>
 <defs>
  <style type="text/css">*{stroke-linejoin: round; stroke-linecap: butt}</style>
 </defs>
 <g id="figure_1">
  <g id="patch_1">
   <path d="M 0 492.878437 
L 784.39125 492.878437 
L 784.39125 0 
L 0 0 
z
" style="fill: #ffffff"/>
  </g>
  <g id="axes_1">
   <g id="patch_2">
    <path d="M 42.513594 251.327656 
L 777.19125 251.327656 
L 777.19125 75.6 
L 42.513594 75.6 
z
" style="fill: #ffffff"/>
   </g>
   <g id="matplotlib.axis_1">
    <g id="xtick_1">
     <g id="line2d_1">
      <path d="M 76.59375 251.327656 
L 76.59375 75.6 
" clip-path="url(#p3a4bfadb47)" style="fill: none; stroke: #b0b0b0; stroke-opacity: 0.18; stroke-width: 0.6; stroke-linecap: square"/>
     </g>
     <g id="line2d_2">
      <defs>
       <path id="m6eed1c8a62" d="M 0 0 
L 0 3.5 
" style="stroke: #000000; stroke-width: 0.8"/>
      </defs>
      <g>
       <use xlink:href="#m6eed1c8a62" x="76.59375" y="251.327656" style="stroke: #000000; stroke-width: 0.8"/>
      </g>
     </g>
    </g>
    <g id="xtick_2">
     <g id="line2d_3">
      <path d="M 159.565559 251.327656 
L 159.565559 75.6 
" clip-path="url(#p3a4bfadb47)" style="fill: none; stroke: #b0b0b0; stroke-opacity: 0.18; stroke-width: 0.6; stroke-linecap: square"/>
     </g>
     <g id="line2d_4">
      <g>
       <use xlink:href="#m6eed1c8a62" x="159.565559" y="251.327656" style="stroke: #000000; stroke-width: 0.8"/>
      </g>
     </g>
    </g>
    <g id="xtick_3">
     <g id="line2d_5">
      <path d="M 243.908803 251.327656 
L 243.908803 75.6 
" clip-path="url(#p3a4bfadb47)" style="fill: none; stroke: #b0b0b0; stroke-opacity: 0.18; stroke-width: 0.6; stroke-linecap: square"/>
     </g>
     <g id="line2d_6">
      <g>
       <use xlink:href="#m6eed1c8a62" x="243.908803" y="251.327656" style="stroke: #000000; stroke-width: 0.8"/>
      </g>
     </g>
    </g>
    <g id="xtick_4">
     <g id="line2d_7">
      <path d="M 327.56633 251.327656 
L 327.56633 75.6 
" clip-path="url(#p3a4bfadb47)" style="fill: none; stroke: #b0b0b0; stroke-opacity: 0.18; stroke-width: 0.6; stroke-linecap: square"/>
     </g>
     <g id="line2d_8">
      <g>
       <use xlink:href="#m6eed1c8a62" x="327.56633" y="251.327656" style="stroke: #000000; stroke-width: 0.8"/>
      </g>
     </g>
    </g>
    <g id="xtick_5">
     <g id="line2d_9">
      <path d="M 409.852422 251.327656 
L 409.852422 75.6 
" clip-path="url(#p3a4bfadb47)" style="fill: none; stroke: #b0b0b0; stroke-opacity: 0.18; stroke-width: 0.6; stroke-linecap: square"/>
     </g>
     <g id="line2d_10">
      <g>
       <use xlink:href="#m6eed1c8a62" x="409.852422" y="251.327656" style="stroke: #000000; stroke-width: 0.8"/>
      </g>
     </g>
    </g>
    <g id="xtick_6">
     <g id="line2d_11">
      <path d="M 494.195666 251.327656 
L 494.195666 75.6 
" clip-path="url(#p3a4bfadb47)" style="fill: none; stroke: #b0b0b0; stroke-opacity: 0.18; stroke-width: 0.6; stroke-linecap: square"/>
     </g>
     <g id="line2d_12">
      <g>
       <use xlink:href="#m6eed1c8a62" x="494.195666" y="251.327656" style="stroke: #000000; stroke-width: 0.8"/>
      </g>
     </g>
    </g>
    <g id="xtick_7">
     <g id="line2d_13">
      <path d="M 577.853193 251.327656 
L 577.853193 75.6 
" clip-path="url(#p3a4bfadb47)" style="fill: none; stroke: #b0b0b0; stroke-opacity: 0.18; stroke-width: 0.6; stroke-linecap: square"/>
     </g>
     <g id="line2d_14">
      <g>
       <use xlink:href="#m6eed1c8a62" x="577.853193" y="251.327656" style="stroke: #000000; stroke-width: 0.8"/>
      </g>
     </g>
    </g>
    <g id="xtick_8">
     <g id="line2d_15">
      <path d="M 660.139284 251.327656 
L 660.139284 75.6 
" clip-path="url(#p3a4bfadb47)" style="fill: none; stroke: #b0b0b0; stroke-opacity: 0.18; stroke-width: 0.6; stroke-linecap: square"/>
     </g>
     <g id="line2d_16">
      <g>
       <use xlink:href="#m6eed1c8a62" x="660.139284" y="251.327656" style="stroke: #000000; stroke-width: 0.8"/>
      </g>
     </g>
    </g>
    <g id="xtick_9">
     <g id="line2d_17">
      <path d="M 744.482529 251.327656 
L 744.482529 75.6 
" clip-path="url(#p3a4bfadb47)" style="fill: none; stroke: #b0b0b0; stroke-opacity: 0.18; stroke-width: 0.6; stroke-linecap: square"/>
     </g>
     <g id="line2d_18">
      <g>
       <use xlink:href="#m6eed1c8a62" x="744.482529" y="251.327656" style="stroke: #000000; stroke-width: 0.8"/>
      </g>
     </g>
    </g>
    <g id="text_1">
     <!-- Last target month in rolling window -->
     <g transform="translate(321.019609 266.426094) scale(0.1 -0.1)">
      <defs>
       <path id="DejaVuSans-2f" d="M 628 4666 
L 1259 4666 
L 1259 531 
L 3531 531 
L 3531 0 
L 628 0 
L 628 4666 
z
" transform="scale(0.015625)"/>
       <path id="DejaVuSans-44" d="M 2194 1759 
Q 1497 1759 1228 1600 
Q 959 1441 959 1056 
Q 959 750 1161 570 
Q 1363 391 1709 391 
Q 2188 391 2477 730 
Q 2766 1069 2766 1631 
L 2766 1759 
L 2194 1759 
z
M 3341 1997 
L 3341 0 
L 2766 0 
L 2766 531 
Q 2569 213 2275 61 
Q 1981 -91 1556 -91 
Q 1019 -91 701 211 
Q 384 513 384 1019 
Q 384 1609 779 1909 
Q 1175 2209 1959 2209 
L 2766 2209 
L 2766 2266 
Q 2766 2663 2505 2880 
Q 2244 3097 1772 3097 
Q 1472 3097 1187 3025 
Q 903 2953 641 2809 
L 641 3341 
Q 956 3463 1253 3523 
Q 1550 3584 1831 3584 
Q 2591 3584 2966 3190 
Q 3341 2797 3341 1997 
z
" transform="scale(0.015625)"/>
       <path id="DejaVuSans-56" d="M 2834 3397 
L 2834 2853 
Q 2591 2978 2328 3040 
Q 2066 3103 1784 3103 
Q 1356 3103 1142 2972 
Q 928 2841 928 2578 
Q 928 2378 1081 2264 
Q 1234 2150 1697 2047 
L 1894 2003 
Q 2506 1872 2764 1633 
Q 3022 1394 3022 966 
Q 3022 478 2636 193 
Q 2250 -91 1575 -91 
Q 1294 -91 989 -36 
Q 684 19 347 128 
L 347 722 
Q 666 556 975 473 
Q 1284 391 1588 391 
Q 1994 391 2212 530 
Q 2431 669 2431 922 
Q 2431 1156 2273 1281 
Q 2116 1406 1581 1522 
L 1381 1569 
Q 847 1681 609 1914 
Q 372 2147 372 2553 
Q 372 3047 722 3315 
Q 1072 3584 1716 3584 
Q 2034 3584 2315 3537 
Q 2597 3491 2834 3397 
z
" transform="scale(0.015625)"/>
       <path id="DejaVuSans-57" d="M 1172 4494 
L 1172 3500 
L 2356 3500 
L 2356 3053 
L 1172 3053 
L 1172 1153 
Q 1172 725 1289 603 
Q 1406 481 1766 481 
L 2356 481 
L 2356 0 
L 1766 0 
Q 1100 0 847 248 
Q 594 497 594 1153 
L 594 3053 
L 172 3053 
L 172 3500 
L 594 3500 
L 594 4494 
L 1172 4494 
z
" transform="scale(0.015625)"/>
       <path id="DejaVuSans-3" transform="scale(0.015625)"/>
       <path id="DejaVuSans-55" d="M 2631 2963 
Q 2534 3019 2420 3045 
Q 2306 3072 2169 3072 
Q 1681 3072 1420 2755 
Q 1159 2438 1159 1844 
L 1159 0 
L 581 0 
L 581 3500 
L 1159 3500 
L 1159 2956 
Q 1341 3275 1631 3429 
Q 1922 3584 2338 3584 
Q 2397 3584 2469 3576 
Q 2541 3569 2628 3553 
L 2631 2963 
z
" transform="scale(0.015625)"/>
       <path id="DejaVuSans-4a" d="M 2906 1791 
Q 2906 2416 2648 2759 
Q 2391 3103 1925 3103 
Q 1463 3103 1205 2759 
Q 947 2416 947 1791 
Q 947 1169 1205 825 
Q 1463 481 1925 481 
Q 2391 481 2648 825 
Q 2906 1169 2906 1791 
z
M 3481 434 
Q 3481 -459 3084 -895 
Q 2688 -1331 1869 -1331 
Q 1566 -1331 1297 -1286 
Q 1028 -1241 775 -1147 
L 775 -588 
Q 1028 -725 1275 -790 
Q 1522 -856 1778 -856 
Q 2344 -856 2625 -561 
Q 2906 -266 2906 331 
L 2906 616 
Q 2728 306 2450 153 
Q 2172 0 1784 0 
Q 1141 0 747 490 
Q 353 981 353 1791 
Q 353 2603 747 3093 
Q 1141 3584 1784 3584 
Q 2172 3584 2450 3431 
Q 2728 3278 2906 2969 
L 2906 3500 
L 3481 3500 
L 3481 434 
z
" transform="scale(0.015625)"/>
       <path id="DejaVuSans-48" d="M 3597 1894 
L 3597 1613 
L 953 1613 
Q 991 1019 1311 708 
Q 1631 397 2203 397 
Q 2534 397 2845 478 
Q 3156 559 3463 722 
L 3463 178 
Q 3153 47 2828 -22 
Q 2503 -91 2169 -91 
Q 1331 -91 842 396 
Q 353 884 353 1716 
Q 353 2575 817 3079 
Q 1281 3584 2069 3584 
Q 2775 3584 3186 3129 
Q 3597 2675 3597 1894 
z
M 3022 2063 
Q 3016 2534 2758 2815 
Q 2500 3097 2075 3097 
Q 1594 3097 1305 2825 
Q 1016 2553 972 2059 
L 3022 2063 
z
" transform="scale(0.015625)"/>
       <path id="DejaVuSans-50" d="M 3328 2828 
Q 3544 3216 3844 3400 
Q 4144 3584 4550 3584 
Q 5097 3584 5394 3201 
Q 5691 2819 5691 2113 
L 5691 0 
L 5113 0 
L 5113 2094 
Q 5113 2597 4934 2840 
Q 4756 3084 4391 3084 
Q 3944 3084 3684 2787 
Q 3425 2491 3425 1978 
L 3425 0 
L 2847 0 
L 2847 2094 
Q 2847 2600 2669 2842 
Q 2491 3084 2119 3084 
Q 1678 3084 1418 2786 
Q 1159 2488 1159 1978 
L 1159 0 
L 581 0 
L 581 3500 
L 1159 3500 
L 1159 2956 
Q 1356 3278 1631 3431 
Q 1906 3584 2284 3584 
Q 2666 3584 2933 3390 
Q 3200 3197 3328 2828 
z
" transform="scale(0.015625)"/>
       <path id="DejaVuSans-52" d="M 1959 3097 
Q 1497 3097 1228 2736 
Q 959 2375 959 1747 
Q 959 1119 1226 758 
Q 1494 397 1959 397 
Q 2419 397 2687 759 
Q 2956 1122 2956 1747 
Q 2956 2369 2687 2733 
Q 2419 3097 1959 3097 
z
M 1959 3584 
Q 2709 3584 3137 3096 
Q 3566 2609 3566 1747 
Q 3566 888 3137 398 
Q 2709 -91 1959 -91 
Q 1206 -91 779 398 
Q 353 888 353 1747 
Q 353 2609 779 3096 
Q 1206 3584 1959 3584 
z
" transform="scale(0.015625)"/>
       <path id="DejaVuSans-51" d="M 3513 2113 
L 3513 0 
L 2938 0 
L 2938 2094 
Q 2938 2591 2744 2837 
Q 2550 3084 2163 3084 
Q 1697 3084 1428 2787 
Q 1159 2491 1159 1978 
L 1159 0 
L 581 0 
L 581 3500 
L 1159 3500 
L 1159 2956 
Q 1366 3272 1645 3428 
Q 1925 3584 2291 3584 
Q 2894 3584 3203 3211 
Q 3513 2838 3513 2113 
z
" transform="scale(0.015625)"/>
       <path id="DejaVuSans-4b" d="M 3513 2113 
L 3513 0 
L 2938 0 
L 2938 2094 
Q 2938 2591 2744 2837 
Q 2550 3084 2163 3084 
Q 1697 3084 1428 2787 
Q 1159 2491 1159 1978 
L 1159 0 
L 581 0 
L 581 4863 
L 1159 4863 
L 1159 2956 
Q 1366 3272 1645 3428 
Q 1925 3584 2291 3584 
Q 2894 3584 3203 3211 
Q 3513 2838 3513 2113 
z
" transform="scale(0.015625)"/>
       <path id="DejaVuSans-4c" d="M 603 3500 
L 1178 3500 
L 1178 0 
L 603 0 
L 603 3500 
z
M 603 4863 
L 1178 4863 
L 1178 4134 
L 603 4134 
L 603 4863 
z
" transform="scale(0.015625)"/>
       <path id="DejaVuSans-4f" d="M 603 4863 
L 1178 4863 
L 1178 0 
L 603 0 
L 603 4863 
z
" transform="scale(0.015625)"/>
       <path id="DejaVuSans-5a" d="M 269 3500 
L 844 3500 
L 1563 769 
L 2278 3500 
L 2956 3500 
L 3675 769 
L 4391 3500 
L 4966 3500 
L 4050 0 
L 3372 0 
L 2619 2869 
L 1863 0 
L 1184 0 
L 269 3500 
z
" transform="scale(0.015625)"/>
       <path id="DejaVuSans-47" d="M 2906 2969 
L 2906 4863 
L 3481 4863 
L 3481 0 
L 2906 0 
L 2906 525 
Q 2725 213 2448 61 
Q 2172 -91 1784 -91 
Q 1150 -91 751 415 
Q 353 922 353 1747 
Q 353 2572 751 3078 
Q 1150 3584 1784 3584 
Q 2172 3584 2448 3432 
Q 2725 3281 2906 2969 
z
M 947 1747 
Q 947 1113 1208 752 
Q 1469 391 1925 391 
Q 2381 391 2643 752 
Q 2906 1113 2906 1747 
Q 2906 2381 2643 2742 
Q 2381 3103 1925 3103 
Q 1469 3103 1208 2742 
Q 947 2381 947 1747 
z
" transform="scale(0.015625)"/>
      </defs>
      <use xlink:href="#DejaVuSans-2f"/>
      <use xlink:href="#DejaVuSans-44" transform="translate(55.71875 0)"/>
      <use xlink:href="#DejaVuSans-56" transform="translate(117 0)"/>
      <use xlink:href="#DejaVuSans-57" transform="translate(169.09375 0)"/>
      <use xlink:href="#DejaVuSans-3" transform="translate(208.296875 0)"/>
      <use xlink:href="#DejaVuSans-57" transform="translate(240.078125 0)"/>
      <use xlink:href="#DejaVuSans-44" transform="translate(279.28125 0)"/>
      <use xlink:href="#DejaVuSans-55" transform="translate(340.5625 0)"/>
      <use xlink:href="#DejaVuSans-4a" transform="translate(379.921875 0)"/>
      <use xlink:href="#DejaVuSans-48" transform="translate(443.40625 0)"/>
      <use xlink:href="#DejaVuSans-57" transform="translate(504.9375 0)"/>
      <use xlink:href="#DejaVuSans-3" transform="translate(544.140625 0)"/>
      <use xlink:href="#DejaVuSans-50" transform="translate(575.921875 0)"/>
      <use xlink:href="#DejaVuSans-52" transform="translate(673.328125 0)"/>
      <use xlink:href="#DejaVuSans-51" transform="translate(734.515625 0)"/>
      <use xlink:href="#DejaVuSans-57" transform="translate(797.890625 0)"/>
      <use xlink:href="#DejaVuSans-4b" transform="translate(837.09375 0)"/>
      <use xlink:href="#DejaVuSans-3" transform="translate(900.46875 0)"/>
      <use xlink:href="#DejaVuSans-4c" transform="translate(932.25 0)"/>
      <use xlink:href="#DejaVuSans-51" transform="translate(960.03125 0)"/>
      <use xlink:href="#DejaVuSans-3" transform="translate(1023.40625 0)"/>
      <use xlink:href="#DejaVuSans-55" transform="translate(1055.1875 0)"/>
      <use xlink:href="#DejaVuSans-52" transform="translate(1094.09375 0)"/>
      <use xlink:href="#DejaVuSans-4f" transform="translate(1155.28125 0)"/>
      <use xlink:href="#DejaVuSans-4f" transform="translate(1183.0625 0)"/>
      <use xlink:href="#DejaVuSans-4c" transform="translate(1210.84375 0)"/>
      <use xlink:href="#DejaVuSans-51" transform="translate(1238.625 0)"/>
      <use xlink:href="#DejaVuSans-4a" transform="translate(1302 0)"/>
      <use xlink:href="#DejaVuSans-3" transform="translate(1365.484375 0)"/>
      <use xlink:href="#DejaVuSans-5a" transform="translate(1397.265625 0)"/>
      <use xlink:href="#DejaVuSans-4c" transform="translate(1479.046875 0)"/>
      <use xlink:href="#DejaVuSans-51" transform="translate(1506.828125 0)"/>
      <use xlink:href="#DejaVuSans-47" transform="translate(1570.203125 0)"/>
      <use xlink:href="#DejaVuSans-52" transform="translate(1633.6875 0)"/>
      <use xlink:href="#DejaVuSans-5a" transform="translate(1694.875 0)"/>
     </g>
    </g>
   </g>
   <g id="matplotlib.axis_2">
    <g id="ytick_1">
     <g id="line2d_19">
      <path d="M 42.513594 228.178669 
L 777.19125 228.178669 
" clip-path="url(#p3a4bfadb47)" style="fill: none; stroke: #b0b0b0; stroke-opacity: 0.18; stroke-width: 0.6; stroke-linecap: square"/>
     </g>
     <g id="line2d_20">
      <defs>
       <path id="m945c18f0f1" d="M 0 0 
L -3.5 0 
" style="stroke: #000000; stroke-width: 0.8"/>
      </defs>
      <g>
       <use xlink:href="#m945c18f0f1" x="42.513594" y="228.178669" style="stroke: #000000; stroke-width: 0.8"/>
      </g>
     </g>
     <g id="text_2">
      <!-- 10 -->
      <g transform="translate(24.061094 231.597614) scale(0.09 -0.09)">
       <defs>
        <path id="DejaVuSans-14" d="M 794 531 
L 1825 531 
L 1825 4091 
L 703 3866 
L 703 4441 
L 1819 4666 
L 2450 4666 
L 2450 531 
L 3481 531 
L 3481 0 
L 794 0 
L 794 531 
z
" transform="scale(0.015625)"/>
        <path id="DejaVuSans-13" d="M 2034 4250 
Q 1547 4250 1301 3770 
Q 1056 3291 1056 2328 
Q 1056 1369 1301 889 
Q 1547 409 2034 409 
Q 2525 409 2770 889 
Q 3016 1369 3016 2328 
Q 3016 3291 2770 3770 
Q 2525 4250 2034 4250 
z
M 2034 4750 
Q 2819 4750 3233 4129 
Q 3647 3509 3647 2328 
Q 3647 1150 3233 529 
Q 2819 -91 2034 -91 
Q 1250 -91 836 529 
Q 422 1150 422 2328 
Q 422 3509 836 4129 
Q 1250 4750 2034 4750 
z
" transform="scale(0.015625)"/>
       </defs>
       <use xlink:href="#DejaVuSans-14"/>
       <use xlink:href="#DejaVuSans-13" transform="translate(63.625 0)"/>
      </g>
     </g>
    </g>
    <g id="ytick_2">
     <g id="line2d_21">
      <path d="M 42.513594 194.658686 
L 777.19125 194.658686 
" clip-path="url(#p3a4bfadb47)" style="fill: none; stroke: #b0b0b0; stroke-opacity: 0.18; stroke-width: 0.6; stroke-linecap: square"/>
     </g>
     <g id="line2d_22">
      <g>
       <use xlink:href="#m945c18f0f1" x="42.513594" y="194.658686" style="stroke: #000000; stroke-width: 0.8"/>
      </g>
     </g>
     <g id="text_3">
      <!-- 12 -->
      <g transform="translate(24.061094 198.077631) scale(0.09 -0.09)">
       <defs>
        <path id="DejaVuSans-15" d="M 1228 531 
L 3431 531 
L 3431 0 
L 469 0 
L 469 531 
Q 828 903 1448 1529 
Q 2069 2156 2228 2338 
Q 2531 2678 2651 2914 
Q 2772 3150 2772 3378 
Q 2772 3750 2511 3984 
Q 2250 4219 1831 4219 
Q 1534 4219 1204 4116 
Q 875 4013 500 3803 
L 500 4441 
Q 881 4594 1212 4672 
Q 1544 4750 1819 4750 
Q 2544 4750 2975 4387 
Q 3406 4025 3406 3419 
Q 3406 3131 3298 2873 
Q 3191 2616 2906 2266 
Q 2828 2175 2409 1742 
Q 1991 1309 1228 531 
z
" transform="scale(0.015625)"/>
       </defs>
       <use xlink:href="#DejaVuSans-14"/>
       <use xlink:href="#DejaVuSans-15" transform="translate(63.625 0)"/>
      </g>
     </g>
    </g>
    <g id="ytick_3">
     <g id="line2d_23">
      <path d="M 42.513594 161.138703 
L 777.19125 161.138703 
" clip-path="url(#p3a4bfadb47)" style="fill: none; stroke: #b0b0b0; stroke-opacity: 0.18; stroke-width: 0.6; stroke-linecap: square"/>
     </g>
     <g id="line2d_24">
      <g>
       <use xlink:href="#m945c18f0f1" x="42.513594" y="161.138703" style="stroke: #000000; stroke-width: 0.8"/>
      </g>
     </g>
     <g id="text_4">
      <!-- 14 -->
      <g transform="translate(24.061094 164.557649) scale(0.09 -0.09)">
       <defs>
        <path id="DejaVuSans-17" d="M 2419 4116 
L 825 1625 
L 2419 1625 
L 2419 4116 
z
M 2253 4666 
L 3047 4666 
L 3047 1625 
L 3713 1625 
L 3713 1100 
L 3047 1100 
L 3047 0 
L 2419 0 
L 2419 1100 
L 313 1100 
L 313 1709 
L 2253 4666 
z
" transform="scale(0.015625)"/>
       </defs>
       <use xlink:href="#DejaVuSans-14"/>
       <use xlink:href="#DejaVuSans-17" transform="translate(63.625 0)"/>
      </g>
     </g>
    </g>
    <g id="ytick_4">
     <g id="line2d_25">
      <path d="M 42.513594 127.618721 
L 777.19125 127.618721 
" clip-path="url(#p3a4bfadb47)" style="fill: none; stroke: #b0b0b0; stroke-opacity: 0.18; stroke-width: 0.6; stroke-linecap: square"/>
     </g>
     <g id="line2d_26">
      <g>
       <use xlink:href="#m945c18f0f1" x="42.513594" y="127.618721" style="stroke: #000000; stroke-width: 0.8"/>
      </g>
     </g>
     <g id="text_5">
      <!-- 16 -->
      <g transform="translate(24.061094 131.037666) scale(0.09 -0.09)">
       <defs>
        <path id="DejaVuSans-19" d="M 2113 2584 
Q 1688 2584 1439 2293 
Q 1191 2003 1191 1497 
Q 1191 994 1439 701 
Q 1688 409 2113 409 
Q 2538 409 2786 701 
Q 3034 994 3034 1497 
Q 3034 2003 2786 2293 
Q 2538 2584 2113 2584 
z
M 3366 4563 
L 3366 3988 
Q 3128 4100 2886 4159 
Q 2644 4219 2406 4219 
Q 1781 4219 1451 3797 
Q 1122 3375 1075 2522 
Q 1259 2794 1537 2939 
Q 1816 3084 2150 3084 
Q 2853 3084 3261 2657 
Q 3669 2231 3669 1497 
Q 3669 778 3244 343 
Q 2819 -91 2113 -91 
Q 1303 -91 875 529 
Q 447 1150 447 2328 
Q 447 3434 972 4092 
Q 1497 4750 2381 4750 
Q 2619 4750 2861 4703 
Q 3103 4656 3366 4563 
z
" transform="scale(0.015625)"/>
       </defs>
       <use xlink:href="#DejaVuSans-14"/>
       <use xlink:href="#DejaVuSans-19" transform="translate(63.625 0)"/>
      </g>
     </g>
    </g>
    <g id="ytick_5">
     <g id="line2d_27">
      <path d="M 42.513594 94.098738 
L 777.19125 94.098738 
" clip-path="url(#p3a4bfadb47)" style="fill: none; stroke: #b0b0b0; stroke-opacity: 0.18; stroke-width: 0.6; stroke-linecap: square"/>
     </g>
     <g id="line2d_28">
      <g>
       <use xlink:href="#m945c18f0f1" x="42.513594" y="94.098738" style="stroke: #000000; stroke-width: 0.8"/>
      </g>
     </g>
     <g id="text_6">
      <!-- 18 -->
      <g transform="translate(24.061094 97.517684) scale(0.09 -0.09)">
       <defs>
        <path id="DejaVuSans-1b" d="M 2034 2216 
Q 1584 2216 1326 1975 
Q 1069 1734 1069 1313 
Q 1069 891 1326 650 
Q 1584 409 2034 409 
Q 2484 409 2743 651 
Q 3003 894 3003 1313 
Q 3003 1734 2745 1975 
Q 2488 2216 2034 2216 
z
M 1403 2484 
Q 997 2584 770 2862 
Q 544 3141 544 3541 
Q 544 4100 942 4425 
Q 1341 4750 2034 4750 
Q 2731 4750 3128 4425 
Q 3525 4100 3525 3541 
Q 3525 3141 3298 2862 
Q 3072 2584 2669 2484 
Q 3125 2378 3379 2068 
Q 3634 1759 3634 1313 
Q 3634 634 3220 271 
Q 2806 -91 2034 -91 
Q 1263 -91 848 271 
Q 434 634 434 1313 
Q 434 1759 690 2068 
Q 947 2378 1403 2484 
z
M 1172 3481 
Q 1172 3119 1398 2916 
Q 1625 2713 2034 2713 
Q 2441 2713 2670 2916 
Q 2900 3119 2900 3481 
Q 2900 3844 2670 4047 
Q 2441 4250 2034 4250 
Q 1625 4250 1398 4047 
Q 1172 3844 1172 3481 
z
" transform="scale(0.015625)"/>
       </defs>
       <use xlink:href="#DejaVuSans-14"/>
       <use xlink:href="#DejaVuSans-1b" transform="translate(63.625 0)"/>
      </g>
     </g>
    </g>
    <g id="text_7">
     <!-- 12-month return RMSE (pp) -->
     <g transform="translate(17.65875 232.284141) rotate(-90) scale(0.1 -0.1)">
      <defs>
       <path id="DejaVuSans-10" d="M 313 2009 
L 1997 2009 
L 1997 1497 
L 313 1497 
L 313 2009 
z
" transform="scale(0.015625)"/>
       <path id="DejaVuSans-58" d="M 544 1381 
L 544 3500 
L 1119 3500 
L 1119 1403 
Q 1119 906 1312 657 
Q 1506 409 1894 409 
Q 2359 409 2629 706 
Q 2900 1003 2900 1516 
L 2900 3500 
L 3475 3500 
L 3475 0 
L 2900 0 
L 2900 538 
Q 2691 219 2414 64 
Q 2138 -91 1772 -91 
Q 1169 -91 856 284 
Q 544 659 544 1381 
z
M 1991 3584 
L 1991 3584 
z
" transform="scale(0.015625)"/>
       <path id="DejaVuSans-35" d="M 2841 2188 
Q 3044 2119 3236 1894 
Q 3428 1669 3622 1275 
L 4263 0 
L 3584 0 
L 2988 1197 
Q 2756 1666 2539 1819 
Q 2322 1972 1947 1972 
L 1259 1972 
L 1259 0 
L 628 0 
L 628 4666 
L 2053 4666 
Q 2853 4666 3247 4331 
Q 3641 3997 3641 3322 
Q 3641 2881 3436 2590 
Q 3231 2300 2841 2188 
z
M 1259 4147 
L 1259 2491 
L 2053 2491 
Q 2509 2491 2742 2702 
Q 2975 2913 2975 3322 
Q 2975 3731 2742 3939 
Q 2509 4147 2053 4147 
L 1259 4147 
z
" transform="scale(0.015625)"/>
       <path id="DejaVuSans-30" d="M 628 4666 
L 1569 4666 
L 2759 1491 
L 3956 4666 
L 4897 4666 
L 4897 0 
L 4281 0 
L 4281 4097 
L 3078 897 
L 2444 897 
L 1241 4097 
L 1241 0 
L 628 0 
L 628 4666 
z
" transform="scale(0.015625)"/>
       <path id="DejaVuSans-36" d="M 3425 4513 
L 3425 3897 
Q 3066 4069 2747 4153 
Q 2428 4238 2131 4238 
Q 1616 4238 1336 4038 
Q 1056 3838 1056 3469 
Q 1056 3159 1242 3001 
Q 1428 2844 1947 2747 
L 2328 2669 
Q 3034 2534 3370 2195 
Q 3706 1856 3706 1288 
Q 3706 609 3251 259 
Q 2797 -91 1919 -91 
Q 1588 -91 1214 -16 
Q 841 59 441 206 
L 441 856 
Q 825 641 1194 531 
Q 1563 422 1919 422 
Q 2459 422 2753 634 
Q 3047 847 3047 1241 
Q 3047 1584 2836 1778 
Q 2625 1972 2144 2069 
L 1759 2144 
Q 1053 2284 737 2584 
Q 422 2884 422 3419 
Q 422 4038 858 4394 
Q 1294 4750 2059 4750 
Q 2388 4750 2728 4690 
Q 3069 4631 3425 4513 
z
" transform="scale(0.015625)"/>
       <path id="DejaVuSans-28" d="M 628 4666 
L 3578 4666 
L 3578 4134 
L 1259 4134 
L 1259 2753 
L 3481 2753 
L 3481 2222 
L 1259 2222 
L 1259 531 
L 3634 531 
L 3634 0 
L 628 0 
L 628 4666 
z
" transform="scale(0.015625)"/>
       <path id="DejaVuSans-b" d="M 1984 4856 
Q 1566 4138 1362 3434 
Q 1159 2731 1159 2009 
Q 1159 1288 1364 580 
Q 1569 -128 1984 -844 
L 1484 -844 
Q 1016 -109 783 600 
Q 550 1309 550 2009 
Q 550 2706 781 3412 
Q 1013 4119 1484 4856 
L 1984 4856 
z
" transform="scale(0.015625)"/>
       <path id="DejaVuSans-53" d="M 1159 525 
L 1159 -1331 
L 581 -1331 
L 581 3500 
L 1159 3500 
L 1159 2969 
Q 1341 3281 1617 3432 
Q 1894 3584 2278 3584 
Q 2916 3584 3314 3078 
Q 3713 2572 3713 1747 
Q 3713 922 3314 415 
Q 2916 -91 2278 -91 
Q 1894 -91 1617 61 
Q 1341 213 1159 525 
z
M 3116 1747 
Q 3116 2381 2855 2742 
Q 2594 3103 2138 3103 
Q 1681 3103 1420 2742 
Q 1159 2381 1159 1747 
Q 1159 1113 1420 752 
Q 1681 391 2138 391 
Q 2594 391 2855 752 
Q 3116 1113 3116 1747 
z
" transform="scale(0.015625)"/>
       <path id="DejaVuSans-c" d="M 513 4856 
L 1013 4856 
Q 1481 4119 1714 3412 
Q 1947 2706 1947 2009 
Q 1947 1309 1714 600 
Q 1481 -109 1013 -844 
L 513 -844 
Q 928 -128 1133 580 
Q 1338 1288 1338 2009 
Q 1338 2731 1133 3434 
Q 928 4138 513 4856 
z
" transform="scale(0.015625)"/>
      </defs>
      <use xlink:href="#DejaVuSans-14"/>
      <use xlink:href="#DejaVuSans-15" transform="translate(63.625 0)"/>
      <use xlink:href="#DejaVuSans-10" transform="translate(127.25 0)"/>
      <use xlink:href="#DejaVuSans-50" transform="translate(163.328125 0)"/>
      <use xlink:href="#DejaVuSans-52" transform="translate(260.734375 0)"/>
      <use xlink:href="#DejaVuSans-51" transform="translate(321.921875 0)"/>
      <use xlink:href="#DejaVuSans-57" transform="translate(385.296875 0)"/>
      <use xlink:href="#DejaVuSans-4b" transform="translate(424.5 0)"/>
      <use xlink:href="#DejaVuSans-3" transform="translate(487.875 0)"/>
      <use xlink:href="#DejaVuSans-55" transform="translate(519.65625 0)"/>
      <use xlink:href="#DejaVuSans-48" transform="translate(558.5625 0)"/>
      <use xlink:href="#DejaVuSans-57" transform="translate(620.09375 0)"/>
      <use xlink:href="#DejaVuSans-58" transform="translate(659.296875 0)"/>
      <use xlink:href="#DejaVuSans-55" transform="translate(722.671875 0)"/>
      <use xlink:href="#DejaVuSans-51" transform="translate(762.03125 0)"/>
      <use xlink:href="#DejaVuSans-3" transform="translate(825.40625 0)"/>
      <use xlink:href="#DejaVuSans-35" transform="translate(857.1875 0)"/>
      <use xlink:href="#DejaVuSans-30" transform="translate(926.671875 0)"/>
      <use xlink:href="#DejaVuSans-36" transform="translate(1012.953125 0)"/>
      <use xlink:href="#DejaVuSans-28" transform="translate(1076.4375 0)"/>
      <use xlink:href="#DejaVuSans-3" transform="translate(1139.625 0)"/>
      <use xlink:href="#DejaVuSans-b" transform="translate(1171.40625 0)"/>
      <use xlink:href="#DejaVuSans-53" transform="translate(1210.421875 0)"/>
      <use xlink:href="#DejaVuSans-53" transform="translate(1273.90625 0)"/>
      <use xlink:href="#DejaVuSans-c" transform="translate(1337.390625 0)"/>
     </g>
    </g>
   </g>
   <g id="line2d_29">
    <path d="M 75.908033 213.618482 
L 97.165273 204.231592 
L 117.051079 224.572054 
L 138.308319 223.611648 
L 158.879842 214.093838 
L 180.137082 219.463995 
L 200.708605 225.111177 
L 221.965846 219.3809 
L 243.223086 225.11768 
L 263.794609 227.848321 
L 285.051849 222.667326 
L 305.623372 227.777749 
L 326.880613 220.993291 
L 348.137853 231.424538 
L 367.337941 234.37836 
L 388.595181 224.851615 
L 409.166704 240.815144 
L 430.423945 236.356488 
L 450.995468 240.394502 
L 472.252708 184.073489 
L 493.509949 185.044557 
L 514.081471 183.833606 
L 535.338712 187.925329 
L 555.910235 194.925354 
L 577.167475 211.216537 
L 598.424716 205.699733 
L 617.624804 197.555532 
L 638.882044 196.059204 
L 659.453567 161.92182 
L 680.710807 149.900167 
L 701.28233 102.961534 
L 722.539571 101.853046 
L 743.796811 98.599783 
" clip-path="url(#p3a4bfadb47)" style="fill: none; stroke-dasharray: 6.29,2.72; stroke-dashoffset: 0; stroke: #657080; stroke-width: 1.7"/>
   </g>
   <g id="line2d_30">
    <path d="M 75.908033 209.911822 
L 97.165273 198.974503 
L 117.051079 214.394489 
L 138.308319 214.258717 
L 158.879842 210.000752 
L 180.137082 217.839301 
L 200.708605 225.238194 
L 221.965846 219.09651 
L 243.223086 223.228017 
L 263.794609 224.88158 
L 285.051849 223.499465 
L 305.623372 231.95585 
L 326.880613 225.146068 
L 348.137853 238.280166 
L 367.337941 243.340036 
L 388.595181 229.363242 
L 409.166704 243.108336 
L 430.423945 240.1749 
L 450.995468 243.328705 
L 472.252708 186.35079 
L 493.509949 187.318105 
L 514.081471 185.564262 
L 535.338712 189.710163 
L 555.910235 193.411757 
L 577.167475 208.214693 
L 598.424716 202.449463 
L 617.624804 193.431854 
L 638.882044 194.76463 
L 659.453567 167.345043 
L 680.710807 153.209903 
L 701.28233 107.446475 
L 722.539571 107.729248 
L 743.796811 106.927071 
" clip-path="url(#p3a4bfadb47)" style="fill: none; stroke: #bc4c47; stroke-width: 1.7; stroke-linecap: square"/>
   </g>
   <g id="line2d_31">
    <path d="M 75.908033 199.682105 
L 97.165273 195.275811 
L 117.051079 219.706067 
L 138.308319 218.177564 
L 158.879842 209.653831 
L 180.137082 211.713579 
L 200.708605 214.101755 
L 221.965846 208.977011 
L 243.223086 213.572838 
L 263.794609 210.934025 
L 285.051849 207.995037 
L 305.623372 234.137085 
L 326.880613 217.791817 
L 348.137853 224.197673 
L 367.337941 233.183238 
L 388.595181 226.778798 
L 409.166704 239.091518 
L 430.423945 230.564902 
L 450.995468 231.157064 
L 472.252708 180.433804 
L 493.509949 181.296263 
L 514.081471 177.940277 
L 535.338712 181.476334 
L 555.910235 187.313314 
L 577.167475 215.081721 
L 598.424716 207.983965 
L 617.624804 194.892252 
L 638.882044 190.655062 
L 659.453567 155.529264 
L 680.710807 149.771961 
L 701.28233 112.58292 
L 722.539571 83.977282 
L 743.796811 83.587621 
" clip-path="url(#p3a4bfadb47)" style="fill: none; stroke: #235b91; stroke-width: 1.7; stroke-linecap: square"/>
   </g>
   <g id="patch_3">
    <path d="M 42.513594 251.327656 
L 42.513594 75.6 
" style="fill: none; stroke: #000000; stroke-width: 0.8; stroke-linejoin: miter; stroke-linecap: square"/>
   </g>
   <g id="patch_4">
    <path d="M 42.513594 251.327656 
L 777.19125 251.327656 
" style="fill: none; stroke: #000000; stroke-width: 0.8; stroke-linejoin: miter; stroke-linecap: square"/>
   </g>
   <g id="legend_1">
    <g id="patch_5">
     <path d="M 48.113594 94.000625 
L 361.978594 94.000625 
Q 363.578594 94.000625 363.578594 92.400625 
L 363.578594 81.2 
Q 363.578594 79.6 361.978594 79.6 
L 48.113594 79.6 
Q 46.513594 79.6 46.513594 81.2 
L 46.513594 92.400625 
Q 46.513594 94.000625 48.113594 94.000625 
z
" style="fill: #ffffff; opacity: 0.8; stroke: #cccccc; stroke-linejoin: miter"/>
    </g>
    <g id="line2d_32">
     <path d="M 49.713594 86.07875 
L 57.713594 86.07875 
L 65.713594 86.07875 
" style="fill: none; stroke-dasharray: 6.29,2.72; stroke-dashoffset: 0; stroke: #657080; stroke-width: 1.7"/>
    </g>
    <g id="text_8">
     <!-- Historical mean -->
     <g transform="translate(72.113594 88.87875) scale(0.08 -0.08)">
      <defs>
       <path id="DejaVuSans-2b" d="M 628 4666 
L 1259 4666 
L 1259 2753 
L 3553 2753 
L 3553 4666 
L 4184 4666 
L 4184 0 
L 3553 0 
L 3553 2222 
L 1259 2222 
L 1259 0 
L 628 0 
L 628 4666 
z
" transform="scale(0.015625)"/>
       <path id="DejaVuSans-46" d="M 3122 3366 
L 3122 2828 
Q 2878 2963 2633 3030 
Q 2388 3097 2138 3097 
Q 1578 3097 1268 2742 
Q 959 2388 959 1747 
Q 959 1106 1268 751 
Q 1578 397 2138 397 
Q 2388 397 2633 464 
Q 2878 531 3122 666 
L 3122 134 
Q 2881 22 2623 -34 
Q 2366 -91 2075 -91 
Q 1284 -91 818 406 
Q 353 903 353 1747 
Q 353 2603 823 3093 
Q 1294 3584 2113 3584 
Q 2378 3584 2631 3529 
Q 2884 3475 3122 3366 
z
" transform="scale(0.015625)"/>
      </defs>
      <use xlink:href="#DejaVuSans-2b"/>
      <use xlink:href="#DejaVuSans-4c" transform="translate(75.203125 0)"/>
      <use xlink:href="#DejaVuSans-56" transform="translate(102.984375 0)"/>
      <use xlink:href="#DejaVuSans-57" transform="translate(155.078125 0)"/>
      <use xlink:href="#DejaVuSans-52" transform="translate(194.28125 0)"/>
      <use xlink:href="#DejaVuSans-55" transform="translate(255.46875 0)"/>
      <use xlink:href="#DejaVuSans-4c" transform="translate(296.578125 0)"/>
      <use xlink:href="#DejaVuSans-46" transform="translate(324.359375 0)"/>
      <use xlink:href="#DejaVuSans-44" transform="translate(379.34375 0)"/>
      <use xlink:href="#DejaVuSans-4f" transform="translate(440.625 0)"/>
      <use xlink:href="#DejaVuSans-3" transform="translate(468.40625 0)"/>
      <use xlink:href="#DejaVuSans-50" transform="translate(500.1875 0)"/>
      <use xlink:href="#DejaVuSans-48" transform="translate(597.59375 0)"/>
      <use xlink:href="#DejaVuSans-44" transform="translate(659.125 0)"/>
      <use xlink:href="#DejaVuSans-51" transform="translate(720.40625 0)"/>
     </g>
    </g>
    <g id="line2d_33">
     <path d="M 150.816094 86.07875 
L 158.816094 86.07875 
L 166.816094 86.07875 
" style="fill: none; stroke: #bc4c47; stroke-width: 1.7; stroke-linecap: square"/>
    </g>
    <g id="text_9">
     <!-- Pooled gradient boosting -->
     <g transform="translate(173.216094 88.87875) scale(0.08 -0.08)">
      <defs>
       <path id="DejaVuSans-33" d="M 1259 4147 
L 1259 2394 
L 2053 2394 
Q 2494 2394 2734 2622 
Q 2975 2850 2975 3272 
Q 2975 3691 2734 3919 
Q 2494 4147 2053 4147 
L 1259 4147 
z
M 628 4666 
L 2053 4666 
Q 2838 4666 3239 4311 
Q 3641 3956 3641 3272 
Q 3641 2581 3239 2228 
Q 2838 1875 2053 1875 
L 1259 1875 
L 1259 0 
L 628 0 
L 628 4666 
z
" transform="scale(0.015625)"/>
       <path id="DejaVuSans-45" d="M 3116 1747 
Q 3116 2381 2855 2742 
Q 2594 3103 2138 3103 
Q 1681 3103 1420 2742 
Q 1159 2381 1159 1747 
Q 1159 1113 1420 752 
Q 1681 391 2138 391 
Q 2594 391 2855 752 
Q 3116 1113 3116 1747 
z
M 1159 2969 
Q 1341 3281 1617 3432 
Q 1894 3584 2278 3584 
Q 2916 3584 3314 3078 
Q 3713 2572 3713 1747 
Q 3713 922 3314 415 
Q 2916 -91 2278 -91 
Q 1894 -91 1617 61 
Q 1341 213 1159 525 
L 1159 0 
L 581 0 
L 581 4863 
L 1159 4863 
L 1159 2969 
z
" transform="scale(0.015625)"/>
      </defs>
      <use xlink:href="#DejaVuSans-33"/>
      <use xlink:href="#DejaVuSans-52" transform="translate(56.734375 0)"/>
      <use xlink:href="#DejaVuSans-52" transform="translate(117.921875 0)"/>
      <use xlink:href="#DejaVuSans-4f" transform="translate(179.109375 0)"/>
      <use xlink:href="#DejaVuSans-48" transform="translate(206.890625 0)"/>
      <use xlink:href="#DejaVuSans-47" transform="translate(268.421875 0)"/>
      <use xlink:href="#DejaVuSans-3" transform="translate(331.90625 0)"/>
      <use xlink:href="#DejaVuSans-4a" transform="translate(363.6875 0)"/>
      <use xlink:href="#DejaVuSans-55" transform="translate(427.171875 0)"/>
      <use xlink:href="#DejaVuSans-44" transform="translate(468.28125 0)"/>
      <use xlink:href="#DejaVuSans-47" transform="translate(529.5625 0)"/>
      <use xlink:href="#DejaVuSans-4c" transform="translate(593.046875 0)"/>
      <use xlink:href="#DejaVuSans-48" transform="translate(620.828125 0)"/>
      <use xlink:href="#DejaVuSans-51" transform="translate(682.359375 0)"/>
      <use xlink:href="#DejaVuSans-57" transform="translate(745.734375 0)"/>
      <use xlink:href="#DejaVuSans-3" transform="translate(784.9375 0)"/>
      <use xlink:href="#DejaVuSans-45" transform="translate(816.71875 0)"/>
      <use xlink:href="#DejaVuSans-52" transform="translate(880.203125 0)"/>
      <use xlink:href="#DejaVuSans-52" transform="translate(941.390625 0)"/>
      <use xlink:href="#DejaVuSans-56" transform="translate(1002.578125 0)"/>
      <use xlink:href="#DejaVuSans-57" transform="translate(1054.671875 0)"/>
      <use xlink:href="#DejaVuSans-4c" transform="translate(1093.875 0)"/>
      <use xlink:href="#DejaVuSans-51" transform="translate(1121.65625 0)"/>
      <use xlink:href="#DejaVuSans-4a" transform="translate(1185.03125 0)"/>
     </g>
    </g>
    <g id="line2d_34">
     <path d="M 289.097344 86.07875 
L 297.097344 86.07875 
L 305.097344 86.07875 
" style="fill: none; stroke: #235b91; stroke-width: 1.7; stroke-linecap: square"/>
    </g>
    <g id="text_10">
     <!-- Broad Ridge -->
     <g transform="translate(311.497344 88.87875) scale(0.08 -0.08)">
      <defs>
       <path id="DejaVuSans-25" d="M 1259 2228 
L 1259 519 
L 2272 519 
Q 2781 519 3026 730 
Q 3272 941 3272 1375 
Q 3272 1813 3026 2020 
Q 2781 2228 2272 2228 
L 1259 2228 
z
M 1259 4147 
L 1259 2741 
L 2194 2741 
Q 2656 2741 2882 2914 
Q 3109 3088 3109 3444 
Q 3109 3797 2882 3972 
Q 2656 4147 2194 4147 
L 1259 4147 
z
M 628 4666 
L 2241 4666 
Q 2963 4666 3353 4366 
Q 3744 4066 3744 3513 
Q 3744 3084 3544 2831 
Q 3344 2578 2956 2516 
Q 3422 2416 3680 2098 
Q 3938 1781 3938 1306 
Q 3938 681 3513 340 
Q 3088 0 2303 0 
L 628 0 
L 628 4666 
z
" transform="scale(0.015625)"/>
      </defs>
      <use xlink:href="#DejaVuSans-25"/>
      <use xlink:href="#DejaVuSans-55" transform="translate(68.609375 0)"/>
      <use xlink:href="#DejaVuSans-52" transform="translate(107.515625 0)"/>
      <use xlink:href="#DejaVuSans-44" transform="translate(168.703125 0)"/>
      <use xlink:href="#DejaVuSans-47" transform="translate(229.984375 0)"/>
      <use xlink:href="#DejaVuSans-3" transform="translate(293.46875 0)"/>
      <use xlink:href="#DejaVuSans-35" transform="translate(325.25 0)"/>
      <use xlink:href="#DejaVuSans-4c" transform="translate(394.734375 0)"/>
      <use xlink:href="#DejaVuSans-47" transform="translate(422.515625 0)"/>
      <use xlink:href="#DejaVuSans-4a" transform="translate(486 0)"/>
      <use xlink:href="#DejaVuSans-48" transform="translate(549.484375 0)"/>
     </g>
    </g>
   </g>
  </g>
  <g id="axes_2">
   <g id="patch_6">
    <path d="M 42.513594 455.677656 
L 777.19125 455.677656 
L 777.19125 279.95 
L 42.513594 279.95 
z
" style="fill: #ffffff"/>
   </g>
   <g id="matplotlib.axis_3">
    <g id="xtick_10">
     <g id="line2d_35">
      <path d="M 76.59375 455.677656 
L 76.59375 279.95 
" clip-path="url(#p6819157467)" style="fill: none; stroke: #b0b0b0; stroke-opacity: 0.18; stroke-width: 0.6; stroke-linecap: square"/>
     </g>
     <g id="line2d_36">
      <g>
       <use xlink:href="#m6eed1c8a62" x="76.59375" y="455.677656" style="stroke: #000000; stroke-width: 0.8"/>
      </g>
     </g>
     <g id="text_11">
      <!-- 2024-01 -->
      <g transform="translate(57.791484 469.515547) scale(0.09 -0.09)">
       <use xlink:href="#DejaVuSans-15"/>
       <use xlink:href="#DejaVuSans-13" transform="translate(63.625 0)"/>
       <use xlink:href="#DejaVuSans-15" transform="translate(127.25 0)"/>
       <use xlink:href="#DejaVuSans-17" transform="translate(190.875 0)"/>
       <use xlink:href="#DejaVuSans-10" transform="translate(254.5 0)"/>
       <use xlink:href="#DejaVuSans-13" transform="translate(290.578125 0)"/>
       <use xlink:href="#DejaVuSans-14" transform="translate(354.203125 0)"/>
      </g>
     </g>
    </g>
    <g id="xtick_11">
     <g id="line2d_37">
      <path d="M 159.565559 455.677656 
L 159.565559 279.95 
" clip-path="url(#p6819157467)" style="fill: none; stroke: #b0b0b0; stroke-opacity: 0.18; stroke-width: 0.6; stroke-linecap: square"/>
     </g>
     <g id="line2d_38">
      <g>
       <use xlink:href="#m6eed1c8a62" x="159.565559" y="455.677656" style="stroke: #000000; stroke-width: 0.8"/>
      </g>
     </g>
     <g id="text_12">
      <!-- 2024-05 -->
      <g transform="translate(140.763294 469.515547) scale(0.09 -0.09)">
       <defs>
        <path id="DejaVuSans-18" d="M 691 4666 
L 3169 4666 
L 3169 4134 
L 1269 4134 
L 1269 2991 
Q 1406 3038 1543 3061 
Q 1681 3084 1819 3084 
Q 2600 3084 3056 2656 
Q 3513 2228 3513 1497 
Q 3513 744 3044 326 
Q 2575 -91 1722 -91 
Q 1428 -91 1123 -41 
Q 819 9 494 109 
L 494 744 
Q 775 591 1075 516 
Q 1375 441 1709 441 
Q 2250 441 2565 725 
Q 2881 1009 2881 1497 
Q 2881 1984 2565 2268 
Q 2250 2553 1709 2553 
Q 1456 2553 1204 2497 
Q 953 2441 691 2322 
L 691 4666 
z
" transform="scale(0.015625)"/>
       </defs>
       <use xlink:href="#DejaVuSans-15"/>
       <use xlink:href="#DejaVuSans-13" transform="translate(63.625 0)"/>
       <use xlink:href="#DejaVuSans-15" transform="translate(127.25 0)"/>
       <use xlink:href="#DejaVuSans-17" transform="translate(190.875 0)"/>
       <use xlink:href="#DejaVuSans-10" transform="translate(254.5 0)"/>
       <use xlink:href="#DejaVuSans-13" transform="translate(290.578125 0)"/>
       <use xlink:href="#DejaVuSans-18" transform="translate(354.203125 0)"/>
      </g>
     </g>
    </g>
    <g id="xtick_12">
     <g id="line2d_39">
      <path d="M 243.908803 455.677656 
L 243.908803 279.95 
" clip-path="url(#p6819157467)" style="fill: none; stroke: #b0b0b0; stroke-opacity: 0.18; stroke-width: 0.6; stroke-linecap: square"/>
     </g>
     <g id="line2d_40">
      <g>
       <use xlink:href="#m6eed1c8a62" x="243.908803" y="455.677656" style="stroke: #000000; stroke-width: 0.8"/>
      </g>
     </g>
     <g id="text_13">
      <!-- 2024-09 -->
      <g transform="translate(225.106538 469.515547) scale(0.09 -0.09)">
       <defs>
        <path id="DejaVuSans-1c" d="M 703 97 
L 703 672 
Q 941 559 1184 500 
Q 1428 441 1663 441 
Q 2288 441 2617 861 
Q 2947 1281 2994 2138 
Q 2813 1869 2534 1725 
Q 2256 1581 1919 1581 
Q 1219 1581 811 2004 
Q 403 2428 403 3163 
Q 403 3881 828 4315 
Q 1253 4750 1959 4750 
Q 2769 4750 3195 4129 
Q 3622 3509 3622 2328 
Q 3622 1225 3098 567 
Q 2575 -91 1691 -91 
Q 1453 -91 1209 -44 
Q 966 3 703 97 
z
M 1959 2075 
Q 2384 2075 2632 2365 
Q 2881 2656 2881 3163 
Q 2881 3666 2632 3958 
Q 2384 4250 1959 4250 
Q 1534 4250 1286 3958 
Q 1038 3666 1038 3163 
Q 1038 2656 1286 2365 
Q 1534 2075 1959 2075 
z
" transform="scale(0.015625)"/>
       </defs>
       <use xlink:href="#DejaVuSans-15"/>
       <use xlink:href="#DejaVuSans-13" transform="translate(63.625 0)"/>
       <use xlink:href="#DejaVuSans-15" transform="translate(127.25 0)"/>
       <use xlink:href="#DejaVuSans-17" transform="translate(190.875 0)"/>
       <use xlink:href="#DejaVuSans-10" transform="translate(254.5 0)"/>
       <use xlink:href="#DejaVuSans-13" transform="translate(290.578125 0)"/>
       <use xlink:href="#DejaVuSans-1c" transform="translate(354.203125 0)"/>
      </g>
     </g>
    </g>
    <g id="xtick_13">
     <g id="line2d_41">
      <path d="M 327.56633 455.677656 
L 327.56633 279.95 
" clip-path="url(#p6819157467)" style="fill: none; stroke: #b0b0b0; stroke-opacity: 0.18; stroke-width: 0.6; stroke-linecap: square"/>
     </g>
     <g id="line2d_42">
      <g>
       <use xlink:href="#m6eed1c8a62" x="327.56633" y="455.677656" style="stroke: #000000; stroke-width: 0.8"/>
      </g>
     </g>
     <g id="text_14">
      <!-- 2025-01 -->
      <g transform="translate(308.764064 469.515547) scale(0.09 -0.09)">
       <use xlink:href="#DejaVuSans-15"/>
       <use xlink:href="#DejaVuSans-13" transform="translate(63.625 0)"/>
       <use xlink:href="#DejaVuSans-15" transform="translate(127.25 0)"/>
       <use xlink:href="#DejaVuSans-18" transform="translate(190.875 0)"/>
       <use xlink:href="#DejaVuSans-10" transform="translate(254.5 0)"/>
       <use xlink:href="#DejaVuSans-13" transform="translate(290.578125 0)"/>
       <use xlink:href="#DejaVuSans-14" transform="translate(354.203125 0)"/>
      </g>
     </g>
    </g>
    <g id="xtick_14">
     <g id="line2d_43">
      <path d="M 409.852422 455.677656 
L 409.852422 279.95 
" clip-path="url(#p6819157467)" style="fill: none; stroke: #b0b0b0; stroke-opacity: 0.18; stroke-width: 0.6; stroke-linecap: square"/>
     </g>
     <g id="line2d_44">
      <g>
       <use xlink:href="#m6eed1c8a62" x="409.852422" y="455.677656" style="stroke: #000000; stroke-width: 0.8"/>
      </g>
     </g>
     <g id="text_15">
      <!-- 2025-05 -->
      <g transform="translate(391.050156 469.515547) scale(0.09 -0.09)">
       <use xlink:href="#DejaVuSans-15"/>
       <use xlink:href="#DejaVuSans-13" transform="translate(63.625 0)"/>
       <use xlink:href="#DejaVuSans-15" transform="translate(127.25 0)"/>
       <use xlink:href="#DejaVuSans-18" transform="translate(190.875 0)"/>
       <use xlink:href="#DejaVuSans-10" transform="translate(254.5 0)"/>
       <use xlink:href="#DejaVuSans-13" transform="translate(290.578125 0)"/>
       <use xlink:href="#DejaVuSans-18" transform="translate(354.203125 0)"/>
      </g>
     </g>
    </g>
    <g id="xtick_15">
     <g id="line2d_45">
      <path d="M 494.195666 455.677656 
L 494.195666 279.95 
" clip-path="url(#p6819157467)" style="fill: none; stroke: #b0b0b0; stroke-opacity: 0.18; stroke-width: 0.6; stroke-linecap: square"/>
     </g>
     <g id="line2d_46">
      <g>
       <use xlink:href="#m6eed1c8a62" x="494.195666" y="455.677656" style="stroke: #000000; stroke-width: 0.8"/>
      </g>
     </g>
     <g id="text_16">
      <!-- 2025-09 -->
      <g transform="translate(475.3934 469.515547) scale(0.09 -0.09)">
       <use xlink:href="#DejaVuSans-15"/>
       <use xlink:href="#DejaVuSans-13" transform="translate(63.625 0)"/>
       <use xlink:href="#DejaVuSans-15" transform="translate(127.25 0)"/>
       <use xlink:href="#DejaVuSans-18" transform="translate(190.875 0)"/>
       <use xlink:href="#DejaVuSans-10" transform="translate(254.5 0)"/>
       <use xlink:href="#DejaVuSans-13" transform="translate(290.578125 0)"/>
       <use xlink:href="#DejaVuSans-1c" transform="translate(354.203125 0)"/>
      </g>
     </g>
    </g>
    <g id="xtick_16">
     <g id="line2d_47">
      <path d="M 577.853193 455.677656 
L 577.853193 279.95 
" clip-path="url(#p6819157467)" style="fill: none; stroke: #b0b0b0; stroke-opacity: 0.18; stroke-width: 0.6; stroke-linecap: square"/>
     </g>
     <g id="line2d_48">
      <g>
       <use xlink:href="#m6eed1c8a62" x="577.853193" y="455.677656" style="stroke: #000000; stroke-width: 0.8"/>
      </g>
     </g>
     <g id="text_17">
      <!-- 2026-01 -->
      <g transform="translate(559.050927 469.515547) scale(0.09 -0.09)">
       <use xlink:href="#DejaVuSans-15"/>
       <use xlink:href="#DejaVuSans-13" transform="translate(63.625 0)"/>
       <use xlink:href="#DejaVuSans-15" transform="translate(127.25 0)"/>
       <use xlink:href="#DejaVuSans-19" transform="translate(190.875 0)"/>
       <use xlink:href="#DejaVuSans-10" transform="translate(254.5 0)"/>
       <use xlink:href="#DejaVuSans-13" transform="translate(290.578125 0)"/>
       <use xlink:href="#DejaVuSans-14" transform="translate(354.203125 0)"/>
      </g>
     </g>
    </g>
    <g id="xtick_17">
     <g id="line2d_49">
      <path d="M 660.139284 455.677656 
L 660.139284 279.95 
" clip-path="url(#p6819157467)" style="fill: none; stroke: #b0b0b0; stroke-opacity: 0.18; stroke-width: 0.6; stroke-linecap: square"/>
     </g>
     <g id="line2d_50">
      <g>
       <use xlink:href="#m6eed1c8a62" x="660.139284" y="455.677656" style="stroke: #000000; stroke-width: 0.8"/>
      </g>
     </g>
     <g id="text_18">
      <!-- 2026-05 -->
      <g transform="translate(641.337019 469.515547) scale(0.09 -0.09)">
       <use xlink:href="#DejaVuSans-15"/>
       <use xlink:href="#DejaVuSans-13" transform="translate(63.625 0)"/>
       <use xlink:href="#DejaVuSans-15" transform="translate(127.25 0)"/>
       <use xlink:href="#DejaVuSans-19" transform="translate(190.875 0)"/>
       <use xlink:href="#DejaVuSans-10" transform="translate(254.5 0)"/>
       <use xlink:href="#DejaVuSans-13" transform="translate(290.578125 0)"/>
       <use xlink:href="#DejaVuSans-18" transform="translate(354.203125 0)"/>
      </g>
     </g>
    </g>
    <g id="xtick_18">
     <g id="line2d_51">
      <path d="M 744.482529 455.677656 
L 744.482529 279.95 
" clip-path="url(#p6819157467)" style="fill: none; stroke: #b0b0b0; stroke-opacity: 0.18; stroke-width: 0.6; stroke-linecap: square"/>
     </g>
     <g id="line2d_52">
      <g>
       <use xlink:href="#m6eed1c8a62" x="744.482529" y="455.677656" style="stroke: #000000; stroke-width: 0.8"/>
      </g>
     </g>
     <g id="text_19">
      <!-- 2026-09 -->
      <g transform="translate(725.680263 469.515547) scale(0.09 -0.09)">
       <use xlink:href="#DejaVuSans-15"/>
       <use xlink:href="#DejaVuSans-13" transform="translate(63.625 0)"/>
       <use xlink:href="#DejaVuSans-15" transform="translate(127.25 0)"/>
       <use xlink:href="#DejaVuSans-19" transform="translate(190.875 0)"/>
       <use xlink:href="#DejaVuSans-10" transform="translate(254.5 0)"/>
       <use xlink:href="#DejaVuSans-13" transform="translate(290.578125 0)"/>
       <use xlink:href="#DejaVuSans-1c" transform="translate(354.203125 0)"/>
      </g>
     </g>
    </g>
    <g id="text_20">
     <!-- Last target month in rolling window -->
     <g transform="translate(321.019609 483.276094) scale(0.1 -0.1)">
      <use xlink:href="#DejaVuSans-2f"/>
      <use xlink:href="#DejaVuSans-44" transform="translate(55.71875 0)"/>
      <use xlink:href="#DejaVuSans-56" transform="translate(117 0)"/>
      <use xlink:href="#DejaVuSans-57" transform="translate(169.09375 0)"/>
      <use xlink:href="#DejaVuSans-3" transform="translate(208.296875 0)"/>
      <use xlink:href="#DejaVuSans-57" transform="translate(240.078125 0)"/>
      <use xlink:href="#DejaVuSans-44" transform="translate(279.28125 0)"/>
      <use xlink:href="#DejaVuSans-55" transform="translate(340.5625 0)"/>
      <use xlink:href="#DejaVuSans-4a" transform="translate(379.921875 0)"/>
      <use xlink:href="#DejaVuSans-48" transform="translate(443.40625 0)"/>
      <use xlink:href="#DejaVuSans-57" transform="translate(504.9375 0)"/>
      <use xlink:href="#DejaVuSans-3" transform="translate(544.140625 0)"/>
      <use xlink:href="#DejaVuSans-50" transform="translate(575.921875 0)"/>
      <use xlink:href="#DejaVuSans-52" transform="translate(673.328125 0)"/>
      <use xlink:href="#DejaVuSans-51" transform="translate(734.515625 0)"/>
      <use xlink:href="#DejaVuSans-57" transform="translate(797.890625 0)"/>
      <use xlink:href="#DejaVuSans-4b" transform="translate(837.09375 0)"/>
      <use xlink:href="#DejaVuSans-3" transform="translate(900.46875 0)"/>
      <use xlink:href="#DejaVuSans-4c" transform="translate(932.25 0)"/>
      <use xlink:href="#DejaVuSans-51" transform="translate(960.03125 0)"/>
      <use xlink:href="#DejaVuSans-3" transform="translate(1023.40625 0)"/>
      <use xlink:href="#DejaVuSans-55" transform="translate(1055.1875 0)"/>
      <use xlink:href="#DejaVuSans-52" transform="translate(1094.09375 0)"/>
      <use xlink:href="#DejaVuSans-4f" transform="translate(1155.28125 0)"/>
      <use xlink:href="#DejaVuSans-4f" transform="translate(1183.0625 0)"/>
      <use xlink:href="#DejaVuSans-4c" transform="translate(1210.84375 0)"/>
      <use xlink:href="#DejaVuSans-51" transform="translate(1238.625 0)"/>
      <use xlink:href="#DejaVuSans-4a" transform="translate(1302 0)"/>
      <use xlink:href="#DejaVuSans-3" transform="translate(1365.484375 0)"/>
      <use xlink:href="#DejaVuSans-5a" transform="translate(1397.265625 0)"/>
      <use xlink:href="#DejaVuSans-4c" transform="translate(1479.046875 0)"/>
      <use xlink:href="#DejaVuSans-51" transform="translate(1506.828125 0)"/>
      <use xlink:href="#DejaVuSans-47" transform="translate(1570.203125 0)"/>
      <use xlink:href="#DejaVuSans-52" transform="translate(1633.6875 0)"/>
      <use xlink:href="#DejaVuSans-5a" transform="translate(1694.875 0)"/>
     </g>
    </g>
   </g>
   <g id="matplotlib.axis_4">
    <g id="ytick_6">
     <g id="line2d_53">
      <path d="M 42.513594 450.089968 
L 777.19125 450.089968 
" clip-path="url(#p6819157467)" style="fill: none; stroke: #b0b0b0; stroke-opacity: 0.18; stroke-width: 0.6; stroke-linecap: square"/>
     </g>
     <g id="line2d_54">
      <g>
       <use xlink:href="#m945c18f0f1" x="42.513594" y="450.089968" style="stroke: #000000; stroke-width: 0.8"/>
      </g>
     </g>
     <g id="text_21">
      <!-- 0.1 -->
      <g transform="translate(21.200781 453.508913) scale(0.09 -0.09)">
       <defs>
        <path id="DejaVuSans-11" d="M 684 794 
L 1344 794 
L 1344 0 
L 684 0 
L 684 794 
z
" transform="scale(0.015625)"/>
       </defs>
       <use xlink:href="#DejaVuSans-13"/>
       <use xlink:href="#DejaVuSans-11" transform="translate(63.625 0)"/>
       <use xlink:href="#DejaVuSans-14" transform="translate(95.40625 0)"/>
      </g>
     </g>
    </g>
    <g id="ytick_7">
     <g id="line2d_55">
      <path d="M 42.513594 420.408756 
L 777.19125 420.408756 
" clip-path="url(#p6819157467)" style="fill: none; stroke: #b0b0b0; stroke-opacity: 0.18; stroke-width: 0.6; stroke-linecap: square"/>
     </g>
     <g id="line2d_56">
      <g>
       <use xlink:href="#m945c18f0f1" x="42.513594" y="420.408756" style="stroke: #000000; stroke-width: 0.8"/>
      </g>
     </g>
     <g id="text_22">
      <!-- 0.2 -->
      <g transform="translate(21.200781 423.827702) scale(0.09 -0.09)">
       <use xlink:href="#DejaVuSans-13"/>
       <use xlink:href="#DejaVuSans-11" transform="translate(63.625 0)"/>
       <use xlink:href="#DejaVuSans-15" transform="translate(95.40625 0)"/>
      </g>
     </g>
    </g>
    <g id="ytick_8">
     <g id="line2d_57">
      <path d="M 42.513594 390.727545 
L 777.19125 390.727545 
" clip-path="url(#p6819157467)" style="fill: none; stroke: #b0b0b0; stroke-opacity: 0.18; stroke-width: 0.6; stroke-linecap: square"/>
     </g>
     <g id="line2d_58">
      <g>
       <use xlink:href="#m945c18f0f1" x="42.513594" y="390.727545" style="stroke: #000000; stroke-width: 0.8"/>
      </g>
     </g>
     <g id="text_23">
      <!-- 0.3 -->
      <g transform="translate(21.200781 394.14649) scale(0.09 -0.09)">
       <defs>
        <path id="DejaVuSans-16" d="M 2597 2516 
Q 3050 2419 3304 2112 
Q 3559 1806 3559 1356 
Q 3559 666 3084 287 
Q 2609 -91 1734 -91 
Q 1441 -91 1130 -33 
Q 819 25 488 141 
L 488 750 
Q 750 597 1062 519 
Q 1375 441 1716 441 
Q 2309 441 2620 675 
Q 2931 909 2931 1356 
Q 2931 1769 2642 2001 
Q 2353 2234 1838 2234 
L 1294 2234 
L 1294 2753 
L 1863 2753 
Q 2328 2753 2575 2939 
Q 2822 3125 2822 3475 
Q 2822 3834 2567 4026 
Q 2313 4219 1838 4219 
Q 1578 4219 1281 4162 
Q 984 4106 628 3988 
L 628 4550 
Q 988 4650 1302 4700 
Q 1616 4750 1894 4750 
Q 2613 4750 3031 4423 
Q 3450 4097 3450 3541 
Q 3450 3153 3228 2886 
Q 3006 2619 2597 2516 
z
" transform="scale(0.015625)"/>
       </defs>
       <use xlink:href="#DejaVuSans-13"/>
       <use xlink:href="#DejaVuSans-11" transform="translate(63.625 0)"/>
       <use xlink:href="#DejaVuSans-16" transform="translate(95.40625 0)"/>
      </g>
     </g>
    </g>
    <g id="ytick_9">
     <g id="line2d_59">
      <path d="M 42.513594 361.046333 
L 777.19125 361.046333 
" clip-path="url(#p6819157467)" style="fill: none; stroke: #b0b0b0; stroke-opacity: 0.18; stroke-width: 0.6; stroke-linecap: square"/>
     </g>
     <g id="line2d_60">
      <g>
       <use xlink:href="#m945c18f0f1" x="42.513594" y="361.046333" style="stroke: #000000; stroke-width: 0.8"/>
      </g>
     </g>
     <g id="text_24">
      <!-- 0.4 -->
      <g transform="translate(21.200781 364.465279) scale(0.09 -0.09)">
       <use xlink:href="#DejaVuSans-13"/>
       <use xlink:href="#DejaVuSans-11" transform="translate(63.625 0)"/>
       <use xlink:href="#DejaVuSans-17" transform="translate(95.40625 0)"/>
      </g>
     </g>
    </g>
    <g id="ytick_10">
     <g id="line2d_61">
      <path d="M 42.513594 331.365122 
L 777.19125 331.365122 
" clip-path="url(#p6819157467)" style="fill: none; stroke: #b0b0b0; stroke-opacity: 0.18; stroke-width: 0.6; stroke-linecap: square"/>
     </g>
     <g id="line2d_62">
      <g>
       <use xlink:href="#m945c18f0f1" x="42.513594" y="331.365122" style="stroke: #000000; stroke-width: 0.8"/>
      </g>
     </g>
     <g id="text_25">
      <!-- 0.5 -->
      <g transform="translate(21.200781 334.784067) scale(0.09 -0.09)">
       <use xlink:href="#DejaVuSans-13"/>
       <use xlink:href="#DejaVuSans-11" transform="translate(63.625 0)"/>
       <use xlink:href="#DejaVuSans-18" transform="translate(95.40625 0)"/>
      </g>
     </g>
    </g>
    <g id="ytick_11">
     <g id="line2d_63">
      <path d="M 42.513594 301.683911 
L 777.19125 301.683911 
" clip-path="url(#p6819157467)" style="fill: none; stroke: #b0b0b0; stroke-opacity: 0.18; stroke-width: 0.6; stroke-linecap: square"/>
     </g>
     <g id="line2d_64">
      <g>
       <use xlink:href="#m945c18f0f1" x="42.513594" y="301.683911" style="stroke: #000000; stroke-width: 0.8"/>
      </g>
     </g>
     <g id="text_26">
      <!-- 0.6 -->
      <g transform="translate(21.200781 305.102856) scale(0.09 -0.09)">
       <use xlink:href="#DejaVuSans-13"/>
       <use xlink:href="#DejaVuSans-11" transform="translate(63.625 0)"/>
       <use xlink:href="#DejaVuSans-19" transform="translate(95.40625 0)"/>
      </g>
     </g>
    </g>
    <g id="text_27">
     <!-- 12-month mean QLIKE -->
     <g transform="translate(14.798438 424.200547) rotate(-90) scale(0.1 -0.1)">
      <defs>
       <path id="DejaVuSans-34" d="M 2522 4238 
Q 1834 4238 1429 3725 
Q 1025 3213 1025 2328 
Q 1025 1447 1429 934 
Q 1834 422 2522 422 
Q 3209 422 3611 934 
Q 4013 1447 4013 2328 
Q 4013 3213 3611 3725 
Q 3209 4238 2522 4238 
z
M 3406 84 
L 4238 -825 
L 3475 -825 
L 2784 -78 
Q 2681 -84 2626 -87 
Q 2572 -91 2522 -91 
Q 1538 -91 948 567 
Q 359 1225 359 2328 
Q 359 3434 948 4092 
Q 1538 4750 2522 4750 
Q 3503 4750 4090 4092 
Q 4678 3434 4678 2328 
Q 4678 1516 4351 937 
Q 4025 359 3406 84 
z
" transform="scale(0.015625)"/>
       <path id="DejaVuSans-2c" d="M 628 4666 
L 1259 4666 
L 1259 0 
L 628 0 
L 628 4666 
z
" transform="scale(0.015625)"/>
       <path id="DejaVuSans-2e" d="M 628 4666 
L 1259 4666 
L 1259 2694 
L 3353 4666 
L 4166 4666 
L 1850 2491 
L 4331 0 
L 3500 0 
L 1259 2247 
L 1259 0 
L 628 0 
L 628 4666 
z
" transform="scale(0.015625)"/>
      </defs>
      <use xlink:href="#DejaVuSans-14"/>
      <use xlink:href="#DejaVuSans-15" transform="translate(63.625 0)"/>
      <use xlink:href="#DejaVuSans-10" transform="translate(127.25 0)"/>
      <use xlink:href="#DejaVuSans-50" transform="translate(163.328125 0)"/>
      <use xlink:href="#DejaVuSans-52" transform="translate(260.734375 0)"/>
      <use xlink:href="#DejaVuSans-51" transform="translate(321.921875 0)"/>
      <use xlink:href="#DejaVuSans-57" transform="translate(385.296875 0)"/>
      <use xlink:href="#DejaVuSans-4b" transform="translate(424.5 0)"/>
      <use xlink:href="#DejaVuSans-3" transform="translate(487.875 0)"/>
      <use xlink:href="#DejaVuSans-50" transform="translate(519.65625 0)"/>
      <use xlink:href="#DejaVuSans-48" transform="translate(617.0625 0)"/>
      <use xlink:href="#DejaVuSans-44" transform="translate(678.59375 0)"/>
      <use xlink:href="#DejaVuSans-51" transform="translate(739.875 0)"/>
      <use xlink:href="#DejaVuSans-3" transform="translate(803.25 0)"/>
      <use xlink:href="#DejaVuSans-34" transform="translate(835.03125 0)"/>
      <use xlink:href="#DejaVuSans-2f" transform="translate(913.75 0)"/>
      <use xlink:href="#DejaVuSans-2c" transform="translate(969.46875 0)"/>
      <use xlink:href="#DejaVuSans-2e" transform="translate(998.96875 0)"/>
      <use xlink:href="#DejaVuSans-28" transform="translate(1064.546875 0)"/>
     </g>
    </g>
   </g>
   <g id="line2d_65">
    <path d="M 75.908033 343.273079 
L 97.165273 341.802746 
L 117.051079 414.330809 
L 138.308319 414.931341 
L 158.879842 427.940622 
L 180.137082 443.031535 
L 200.708605 436.534011 
L 221.965846 447.151325 
L 243.223086 432.539209 
L 263.794609 432.697562 
L 285.051849 432.433397 
L 305.623372 433.798381 
L 326.880613 433.587264 
L 348.137853 435.429408 
L 367.337941 445.721251 
L 388.595181 445.658982 
L 409.166704 441.829408 
L 430.423945 438.788866 
L 450.995468 435.558484 
L 472.252708 434.119689 
L 493.509949 439.490971 
L 514.081471 434.966599 
L 535.338712 429.801787 
L 555.910235 427.34525 
L 577.167475 418.942754 
L 598.424716 416.640606 
L 617.624804 415.15262 
L 638.882044 406.450471 
L 659.453567 409.036487 
L 680.710807 412.20602 
L 701.28233 422.154495 
L 722.539571 416.379401 
L 743.796811 379.516393 
" clip-path="url(#p6819157467)" style="fill: none; stroke-dasharray: 10.88,2.72,1.7,2.72; stroke-dashoffset: 0; stroke: #79549d; stroke-width: 1.7"/>
   </g>
   <g id="line2d_66">
    <path d="M 75.908033 369.165506 
L 97.165273 378.363024 
L 117.051079 387.563956 
L 138.308319 397.069439 
L 158.879842 423.506354 
L 180.137082 421.883793 
L 200.708605 415.089583 
L 221.965846 431.104732 
L 243.223086 395.411284 
L 263.794609 395.353246 
L 285.051849 396.951287 
L 305.623372 416.889465 
L 326.880613 412.208782 
L 348.137853 411.572582 
L 367.337941 420.080212 
L 388.595181 419.491858 
L 409.166704 408.53014 
L 430.423945 410.143003 
L 450.995468 410.383055 
L 472.252708 406.989254 
L 493.509949 433.756119 
L 514.081471 430.546093 
L 535.338712 420.459873 
L 555.910235 415.583447 
L 577.167475 410.697356 
L 598.424716 413.563967 
L 617.624804 410.224328 
L 638.882044 403.803819 
L 659.453567 416.618996 
L 680.710807 415.047392 
L 701.28233 421.428449 
L 722.539571 406.016778 
L 743.796811 374.10783 
" clip-path="url(#p6819157467)" style="fill: none; stroke-dasharray: 6.29,2.72; stroke-dashoffset: 0; stroke: #657080; stroke-width: 1.7"/>
   </g>
   <g id="line2d_67">
    <path d="M 75.908033 352.070602 
L 97.165273 356.091727 
L 117.051079 416.127904 
L 138.308319 416.291147 
L 158.879842 430.168648 
L 180.137082 439.987679 
L 200.708605 427.888206 
L 221.965846 438.534341 
L 243.223086 425.556056 
L 263.794609 426.343573 
L 285.051849 433.195466 
L 305.623372 433.499986 
L 326.880613 432.402641 
L 348.137853 427.874337 
L 367.337941 438.793511 
L 388.595181 437.207875 
L 409.166704 438.450017 
L 430.423945 438.520656 
L 450.995468 443.308833 
L 472.252708 438.664346 
L 493.509949 447.690036 
L 514.081471 446.420163 
L 535.338712 429.393537 
L 555.910235 423.494237 
L 577.167475 416.582326 
L 598.424716 414.972317 
L 617.624804 413.475677 
L 638.882044 388.838778 
L 659.453567 387.974893 
L 680.710807 387.20126 
L 701.28233 390.900198 
L 722.539571 361.644435 
L 743.796811 287.937621 
" clip-path="url(#p6819157467)" style="fill: none; stroke-dasharray: 6.29,2.72; stroke-dashoffset: 0; stroke: #4054a1; stroke-width: 1.7"/>
   </g>
   <g id="patch_7">
    <path d="M 42.513594 455.677656 
L 42.513594 279.95 
" style="fill: none; stroke: #000000; stroke-width: 0.8; stroke-linejoin: miter; stroke-linecap: square"/>
   </g>
   <g id="patch_8">
    <path d="M 42.513594 455.677656 
L 777.19125 455.677656 
" style="fill: none; stroke: #000000; stroke-width: 0.8; stroke-linejoin: miter; stroke-linecap: square"/>
   </g>
   <g id="legend_2">
    <g id="patch_9">
     <path d="M 48.113594 298.350625 
L 378.534844 298.350625 
Q 380.134844 298.350625 380.134844 296.750625 
L 380.134844 285.55 
Q 380.134844 283.95 378.534844 283.95 
L 48.113594 283.95 
Q 46.513594 283.95 46.513594 285.55 
L 46.513594 296.750625 
Q 46.513594 298.350625 48.113594 298.350625 
z
" style="fill: #ffffff; opacity: 0.8; stroke: #cccccc; stroke-linejoin: miter"/>
    </g>
    <g id="line2d_68">
     <path d="M 49.713594 290.42875 
L 57.713594 290.42875 
L 65.713594 290.42875 
" style="fill: none; stroke-dasharray: 10.88,2.72,1.7,2.72; stroke-dashoffset: 0; stroke: #79549d; stroke-width: 1.7"/>
    </g>
    <g id="text_28">
     <!-- GARCH-X: +industry -->
     <g transform="translate(72.113594 293.22875) scale(0.08 -0.08)">
      <defs>
       <path id="DejaVuSans-2a" d="M 3809 666 
L 3809 1919 
L 2778 1919 
L 2778 2438 
L 4434 2438 
L 4434 434 
Q 4069 175 3628 42 
Q 3188 -91 2688 -91 
Q 1594 -91 976 548 
Q 359 1188 359 2328 
Q 359 3472 976 4111 
Q 1594 4750 2688 4750 
Q 3144 4750 3555 4637 
Q 3966 4525 4313 4306 
L 4313 3634 
Q 3963 3931 3569 4081 
Q 3175 4231 2741 4231 
Q 1884 4231 1454 3753 
Q 1025 3275 1025 2328 
Q 1025 1384 1454 906 
Q 1884 428 2741 428 
Q 3075 428 3337 486 
Q 3600 544 3809 666 
z
" transform="scale(0.015625)"/>
       <path id="DejaVuSans-24" d="M 2188 4044 
L 1331 1722 
L 3047 1722 
L 2188 4044 
z
M 1831 4666 
L 2547 4666 
L 4325 0 
L 3669 0 
L 3244 1197 
L 1141 1197 
L 716 0 
L 50 0 
L 1831 4666 
z
" transform="scale(0.015625)"/>
       <path id="DejaVuSans-26" d="M 4122 4306 
L 4122 3641 
Q 3803 3938 3442 4084 
Q 3081 4231 2675 4231 
Q 1875 4231 1450 3742 
Q 1025 3253 1025 2328 
Q 1025 1406 1450 917 
Q 1875 428 2675 428 
Q 3081 428 3442 575 
Q 3803 722 4122 1019 
L 4122 359 
Q 3791 134 3420 21 
Q 3050 -91 2638 -91 
Q 1578 -91 968 557 
Q 359 1206 359 2328 
Q 359 3453 968 4101 
Q 1578 4750 2638 4750 
Q 3056 4750 3426 4639 
Q 3797 4528 4122 4306 
z
" transform="scale(0.015625)"/>
       <path id="DejaVuSans-3b" d="M 403 4666 
L 1081 4666 
L 2241 2931 
L 3406 4666 
L 4084 4666 
L 2584 2425 
L 4184 0 
L 3506 0 
L 2194 1984 
L 872 0 
L 191 0 
L 1856 2491 
L 403 4666 
z
" transform="scale(0.015625)"/>
       <path id="DejaVuSans-1d" d="M 750 794 
L 1409 794 
L 1409 0 
L 750 0 
L 750 794 
z
M 750 3309 
L 1409 3309 
L 1409 2516 
L 750 2516 
L 750 3309 
z
" transform="scale(0.015625)"/>
       <path id="DejaVuSans-e" d="M 2944 4013 
L 2944 2272 
L 4684 2272 
L 4684 1741 
L 2944 1741 
L 2944 0 
L 2419 0 
L 2419 1741 
L 678 1741 
L 678 2272 
L 2419 2272 
L 2419 4013 
L 2944 4013 
z
" transform="scale(0.015625)"/>
       <path id="DejaVuSans-5c" d="M 2059 -325 
Q 1816 -950 1584 -1140 
Q 1353 -1331 966 -1331 
L 506 -1331 
L 506 -850 
L 844 -850 
Q 1081 -850 1212 -737 
Q 1344 -625 1503 -206 
L 1606 56 
L 191 3500 
L 800 3500 
L 1894 763 
L 2988 3500 
L 3597 3500 
L 2059 -325 
z
" transform="scale(0.015625)"/>
      </defs>
      <use xlink:href="#DejaVuSans-2a"/>
      <use xlink:href="#DejaVuSans-24" transform="translate(77.484375 0)"/>
      <use xlink:href="#DejaVuSans-35" transform="translate(145.890625 0)"/>
      <use xlink:href="#DejaVuSans-26" transform="translate(210.390625 0)"/>
      <use xlink:href="#DejaVuSans-2b" transform="translate(280.21875 0)"/>
      <use xlink:href="#DejaVuSans-10" transform="translate(355.421875 0)"/>
      <use xlink:href="#DejaVuSans-3b" transform="translate(386.515625 0)"/>
      <use xlink:href="#DejaVuSans-1d" transform="translate(455.015625 0)"/>
      <use xlink:href="#DejaVuSans-3" transform="translate(488.703125 0)"/>
      <use xlink:href="#DejaVuSans-e" transform="translate(520.484375 0)"/>
      <use xlink:href="#DejaVuSans-4c" transform="translate(604.28125 0)"/>
      <use xlink:href="#DejaVuSans-51" transform="translate(632.0625 0)"/>
      <use xlink:href="#DejaVuSans-47" transform="translate(695.4375 0)"/>
      <use xlink:href="#DejaVuSans-58" transform="translate(758.921875 0)"/>
      <use xlink:href="#DejaVuSans-56" transform="translate(822.296875 0)"/>
      <use xlink:href="#DejaVuSans-57" transform="translate(874.390625 0)"/>
      <use xlink:href="#DejaVuSans-55" transform="translate(913.59375 0)"/>
      <use xlink:href="#DejaVuSans-5c" transform="translate(954.703125 0)"/>
     </g>
    </g>
    <g id="line2d_69">
     <path d="M 169.224844 290.42875 
L 177.224844 290.42875 
L 185.224844 290.42875 
" style="fill: none; stroke-dasharray: 6.29,2.72; stroke-dashoffset: 0; stroke: #657080; stroke-width: 1.7"/>
    </g>
    <g id="text_29">
     <!-- Historical variance: 63d -->
     <g transform="translate(191.624844 293.22875) scale(0.08 -0.08)">
      <defs>
       <path id="DejaVuSans-59" d="M 191 3500 
L 800 3500 
L 1894 563 
L 2988 3500 
L 3597 3500 
L 2284 0 
L 1503 0 
L 191 3500 
z
" transform="scale(0.015625)"/>
      </defs>
      <use xlink:href="#DejaVuSans-2b"/>
      <use xlink:href="#DejaVuSans-4c" transform="translate(75.203125 0)"/>
      <use xlink:href="#DejaVuSans-56" transform="translate(102.984375 0)"/>
      <use xlink:href="#DejaVuSans-57" transform="translate(155.078125 0)"/>
      <use xlink:href="#DejaVuSans-52" transform="translate(194.28125 0)"/>
      <use xlink:href="#DejaVuSans-55" transform="translate(255.46875 0)"/>
      <use xlink:href="#DejaVuSans-4c" transform="translate(296.578125 0)"/>
      <use xlink:href="#DejaVuSans-46" transform="translate(324.359375 0)"/>
      <use xlink:href="#DejaVuSans-44" transform="translate(379.34375 0)"/>
      <use xlink:href="#DejaVuSans-4f" transform="translate(440.625 0)"/>
      <use xlink:href="#DejaVuSans-3" transform="translate(468.40625 0)"/>
      <use xlink:href="#DejaVuSans-59" transform="translate(500.1875 0)"/>
      <use xlink:href="#DejaVuSans-44" transform="translate(559.375 0)"/>
      <use xlink:href="#DejaVuSans-55" transform="translate(620.65625 0)"/>
      <use xlink:href="#DejaVuSans-4c" transform="translate(661.765625 0)"/>
      <use xlink:href="#DejaVuSans-44" transform="translate(689.546875 0)"/>
      <use xlink:href="#DejaVuSans-51" transform="translate(750.828125 0)"/>
      <use xlink:href="#DejaVuSans-46" transform="translate(814.203125 0)"/>
      <use xlink:href="#DejaVuSans-48" transform="translate(869.1875 0)"/>
      <use xlink:href="#DejaVuSans-1d" transform="translate(930.71875 0)"/>
      <use xlink:href="#DejaVuSans-3" transform="translate(964.40625 0)"/>
      <use xlink:href="#DejaVuSans-19" transform="translate(996.1875 0)"/>
      <use xlink:href="#DejaVuSans-16" transform="translate(1059.8125 0)"/>
      <use xlink:href="#DejaVuSans-47" transform="translate(1123.4375 0)"/>
     </g>
    </g>
    <g id="line2d_70">
     <path d="M 302.578594 290.42875 
L 310.578594 290.42875 
L 318.578594 290.42875 
" style="fill: none; stroke-dasharray: 6.29,2.72; stroke-dashoffset: 0; stroke: #4054a1; stroke-width: 1.7"/>
    </g>
    <g id="text_30">
     <!-- Pooled Ridge -->
     <g transform="translate(324.978594 293.22875) scale(0.08 -0.08)">
      <use xlink:href="#DejaVuSans-33"/>
      <use xlink:href="#DejaVuSans-52" transform="translate(56.734375 0)"/>
      <use xlink:href="#DejaVuSans-52" transform="translate(117.921875 0)"/>
      <use xlink:href="#DejaVuSans-4f" transform="translate(179.109375 0)"/>
      <use xlink:href="#DejaVuSans-48" transform="translate(206.890625 0)"/>
      <use xlink:href="#DejaVuSans-47" transform="translate(268.421875 0)"/>
      <use xlink:href="#DejaVuSans-3" transform="translate(331.90625 0)"/>
      <use xlink:href="#DejaVuSans-35" transform="translate(363.6875 0)"/>
      <use xlink:href="#DejaVuSans-4c" transform="translate(433.171875 0)"/>
      <use xlink:href="#DejaVuSans-47" transform="translate(460.953125 0)"/>
      <use xlink:href="#DejaVuSans-4a" transform="translate(524.4375 0)"/>
      <use xlink:href="#DejaVuSans-48" transform="translate(587.921875 0)"/>
     </g>
    </g>
   </g>
  </g>
  <g id="text_31">
   <!-- Model rankings can change as the evaluation window moves -->
   <g style="fill: #172554" transform="translate(11.83125 19.3575) scale(0.16 -0.16)">
    <defs>
     <path id="DejaVuSans-Bold-30" d="M 588 4666 
L 2119 4666 
L 3181 2169 
L 4250 4666 
L 5778 4666 
L 5778 0 
L 4641 0 
L 4641 3413 
L 3566 897 
L 2803 897 
L 1728 3413 
L 1728 0 
L 588 0 
L 588 4666 
z
" transform="scale(0.015625)"/>
     <path id="DejaVuSans-Bold-52" d="M 2203 2784 
Q 1831 2784 1636 2517 
Q 1441 2250 1441 1747 
Q 1441 1244 1636 976 
Q 1831 709 2203 709 
Q 2569 709 2762 976 
Q 2956 1244 2956 1747 
Q 2956 2250 2762 2517 
Q 2569 2784 2203 2784 
z
M 2203 3584 
Q 3106 3584 3614 3096 
Q 4122 2609 4122 1747 
Q 4122 884 3614 396 
Q 3106 -91 2203 -91 
Q 1297 -91 786 396 
Q 275 884 275 1747 
Q 275 2609 786 3096 
Q 1297 3584 2203 3584 
z
" transform="scale(0.015625)"/>
     <path id="DejaVuSans-Bold-47" d="M 2919 2988 
L 2919 4863 
L 4044 4863 
L 4044 0 
L 2919 0 
L 2919 506 
Q 2688 197 2409 53 
Q 2131 -91 1766 -91 
Q 1119 -91 703 423 
Q 288 938 288 1747 
Q 288 2556 703 3070 
Q 1119 3584 1766 3584 
Q 2128 3584 2408 3439 
Q 2688 3294 2919 2988 
z
M 2181 722 
Q 2541 722 2730 984 
Q 2919 1247 2919 1747 
Q 2919 2247 2730 2509 
Q 2541 2772 2181 2772 
Q 1825 2772 1636 2509 
Q 1447 2247 1447 1747 
Q 1447 1247 1636 984 
Q 1825 722 2181 722 
z
" transform="scale(0.015625)"/>
     <path id="DejaVuSans-Bold-48" d="M 4031 1759 
L 4031 1441 
L 1416 1441 
Q 1456 1047 1700 850 
Q 1944 653 2381 653 
Q 2734 653 3104 758 
Q 3475 863 3866 1075 
L 3866 213 
Q 3469 63 3072 -14 
Q 2675 -91 2278 -91 
Q 1328 -91 801 392 
Q 275 875 275 1747 
Q 275 2603 792 3093 
Q 1309 3584 2216 3584 
Q 3041 3584 3536 3087 
Q 4031 2591 4031 1759 
z
M 2881 2131 
Q 2881 2450 2695 2645 
Q 2509 2841 2209 2841 
Q 1884 2841 1681 2658 
Q 1478 2475 1428 2131 
L 2881 2131 
z
" transform="scale(0.015625)"/>
     <path id="DejaVuSans-Bold-4f" d="M 538 4863 
L 1656 4863 
L 1656 0 
L 538 0 
L 538 4863 
z
" transform="scale(0.015625)"/>
     <path id="DejaVuSans-Bold-3" transform="scale(0.015625)"/>
     <path id="DejaVuSans-Bold-55" d="M 3138 2547 
Q 2991 2616 2845 2648 
Q 2700 2681 2553 2681 
Q 2122 2681 1889 2404 
Q 1656 2128 1656 1613 
L 1656 0 
L 538 0 
L 538 3500 
L 1656 3500 
L 1656 2925 
Q 1872 3269 2151 3426 
Q 2431 3584 2822 3584 
Q 2878 3584 2943 3579 
Q 3009 3575 3134 3559 
L 3138 2547 
z
" transform="scale(0.015625)"/>
     <path id="DejaVuSans-Bold-44" d="M 2106 1575 
Q 1756 1575 1579 1456 
Q 1403 1338 1403 1106 
Q 1403 894 1545 773 
Q 1688 653 1941 653 
Q 2256 653 2472 879 
Q 2688 1106 2688 1447 
L 2688 1575 
L 2106 1575 
z
M 3816 1997 
L 3816 0 
L 2688 0 
L 2688 519 
Q 2463 200 2181 54 
Q 1900 -91 1497 -91 
Q 953 -91 614 226 
Q 275 544 275 1050 
Q 275 1666 698 1953 
Q 1122 2241 2028 2241 
L 2688 2241 
L 2688 2328 
Q 2688 2594 2478 2717 
Q 2269 2841 1825 2841 
Q 1466 2841 1156 2769 
Q 847 2697 581 2553 
L 581 3406 
Q 941 3494 1303 3539 
Q 1666 3584 2028 3584 
Q 2975 3584 3395 3211 
Q 3816 2838 3816 1997 
z
" transform="scale(0.015625)"/>
     <path id="DejaVuSans-Bold-51" d="M 4056 2131 
L 4056 0 
L 2931 0 
L 2931 347 
L 2931 1631 
Q 2931 2084 2911 2256 
Q 2891 2428 2841 2509 
Q 2775 2619 2662 2680 
Q 2550 2741 2406 2741 
Q 2056 2741 1856 2470 
Q 1656 2200 1656 1722 
L 1656 0 
L 538 0 
L 538 3500 
L 1656 3500 
L 1656 2988 
Q 1909 3294 2193 3439 
Q 2478 3584 2822 3584 
Q 3428 3584 3742 3212 
Q 4056 2841 4056 2131 
z
" transform="scale(0.015625)"/>
     <path id="DejaVuSans-Bold-4e" d="M 538 4863 
L 1656 4863 
L 1656 2216 
L 2944 3500 
L 4244 3500 
L 2534 1894 
L 4378 0 
L 3022 0 
L 1656 1459 
L 1656 0 
L 538 0 
L 538 4863 
z
" transform="scale(0.015625)"/>
     <path id="DejaVuSans-Bold-4c" d="M 538 3500 
L 1656 3500 
L 1656 0 
L 538 0 
L 538 3500 
z
M 538 4863 
L 1656 4863 
L 1656 3950 
L 538 3950 
L 538 4863 
z
" transform="scale(0.015625)"/>
     <path id="DejaVuSans-Bold-4a" d="M 2919 594 
Q 2688 288 2409 144 
Q 2131 0 1766 0 
Q 1125 0 706 504 
Q 288 1009 288 1791 
Q 288 2575 706 3076 
Q 1125 3578 1766 3578 
Q 2131 3578 2409 3434 
Q 2688 3291 2919 2981 
L 2919 3500 
L 4044 3500 
L 4044 353 
Q 4044 -491 3511 -936 
Q 2978 -1381 1966 -1381 
Q 1638 -1381 1331 -1331 
Q 1025 -1281 716 -1178 
L 716 -306 
Q 1009 -475 1290 -558 
Q 1572 -641 1856 -641 
Q 2406 -641 2662 -400 
Q 2919 -159 2919 353 
L 2919 594 
z
M 2181 2772 
Q 1834 2772 1640 2515 
Q 1447 2259 1447 1791 
Q 1447 1309 1634 1061 
Q 1822 813 2181 813 
Q 2531 813 2725 1069 
Q 2919 1325 2919 1791 
Q 2919 2259 2725 2515 
Q 2531 2772 2181 2772 
z
" transform="scale(0.015625)"/>
     <path id="DejaVuSans-Bold-56" d="M 3272 3391 
L 3272 2541 
Q 2913 2691 2578 2766 
Q 2244 2841 1947 2841 
Q 1628 2841 1473 2761 
Q 1319 2681 1319 2516 
Q 1319 2381 1436 2309 
Q 1553 2238 1856 2203 
L 2053 2175 
Q 2913 2066 3209 1816 
Q 3506 1566 3506 1031 
Q 3506 472 3093 190 
Q 2681 -91 1863 -91 
Q 1516 -91 1145 -36 
Q 775 19 384 128 
L 384 978 
Q 719 816 1070 734 
Q 1422 653 1784 653 
Q 2113 653 2278 743 
Q 2444 834 2444 1013 
Q 2444 1163 2330 1236 
Q 2216 1309 1875 1350 
L 1678 1375 
Q 931 1469 631 1722 
Q 331 1975 331 2491 
Q 331 3047 712 3315 
Q 1094 3584 1881 3584 
Q 2191 3584 2531 3537 
Q 2872 3491 3272 3391 
z
" transform="scale(0.015625)"/>
     <path id="DejaVuSans-Bold-46" d="M 3366 3391 
L 3366 2478 
Q 3138 2634 2908 2709 
Q 2678 2784 2431 2784 
Q 1963 2784 1702 2511 
Q 1441 2238 1441 1747 
Q 1441 1256 1702 982 
Q 1963 709 2431 709 
Q 2694 709 2930 787 
Q 3166 866 3366 1019 
L 3366 103 
Q 3103 6 2833 -42 
Q 2563 -91 2291 -91 
Q 1344 -91 809 395 
Q 275 881 275 1747 
Q 275 2613 809 3098 
Q 1344 3584 2291 3584 
Q 2566 3584 2833 3536 
Q 3100 3488 3366 3391 
z
" transform="scale(0.015625)"/>
     <path id="DejaVuSans-Bold-4b" d="M 4056 2131 
L 4056 0 
L 2931 0 
L 2931 347 
L 2931 1625 
Q 2931 2084 2911 2256 
Q 2891 2428 2841 2509 
Q 2775 2619 2662 2680 
Q 2550 2741 2406 2741 
Q 2056 2741 1856 2470 
Q 1656 2200 1656 1722 
L 1656 0 
L 538 0 
L 538 4863 
L 1656 4863 
L 1656 2988 
Q 1909 3294 2193 3439 
Q 2478 3584 2822 3584 
Q 3428 3584 3742 3212 
Q 4056 2841 4056 2131 
z
" transform="scale(0.015625)"/>
     <path id="DejaVuSans-Bold-57" d="M 1759 4494 
L 1759 3500 
L 2913 3500 
L 2913 2700 
L 1759 2700 
L 1759 1216 
Q 1759 972 1856 886 
Q 1953 800 2241 800 
L 2816 800 
L 2816 0 
L 1856 0 
Q 1194 0 917 276 
Q 641 553 641 1216 
L 641 2700 
L 84 2700 
L 84 3500 
L 641 3500 
L 641 4494 
L 1759 4494 
z
" transform="scale(0.015625)"/>
     <path id="DejaVuSans-Bold-59" d="M 97 3500 
L 1216 3500 
L 2088 1081 
L 2956 3500 
L 4078 3500 
L 2700 0 
L 1472 0 
L 97 3500 
z
" transform="scale(0.015625)"/>
     <path id="DejaVuSans-Bold-58" d="M 500 1363 
L 500 3500 
L 1625 3500 
L 1625 3150 
Q 1625 2866 1622 2436 
Q 1619 2006 1619 1863 
Q 1619 1441 1641 1255 
Q 1663 1069 1716 984 
Q 1784 875 1895 815 
Q 2006 756 2150 756 
Q 2500 756 2700 1025 
Q 2900 1294 2900 1772 
L 2900 3500 
L 4019 3500 
L 4019 0 
L 2900 0 
L 2900 506 
Q 2647 200 2364 54 
Q 2081 -91 1741 -91 
Q 1134 -91 817 281 
Q 500 653 500 1363 
z
" transform="scale(0.015625)"/>
     <path id="DejaVuSans-Bold-5a" d="M 225 3500 
L 1313 3500 
L 1900 1088 
L 2491 3500 
L 3425 3500 
L 4013 1113 
L 4603 3500 
L 5691 3500 
L 4769 0 
L 3547 0 
L 2956 2406 
L 2369 0 
L 1147 0 
L 225 3500 
z
" transform="scale(0.015625)"/>
     <path id="DejaVuSans-Bold-50" d="M 3781 2919 
Q 3994 3244 4286 3414 
Q 4578 3584 4928 3584 
Q 5531 3584 5847 3212 
Q 6163 2841 6163 2131 
L 6163 0 
L 5038 0 
L 5038 1825 
Q 5041 1866 5042 1909 
Q 5044 1953 5044 2034 
Q 5044 2406 4934 2573 
Q 4825 2741 4581 2741 
Q 4263 2741 4089 2478 
Q 3916 2216 3909 1719 
L 3909 0 
L 2784 0 
L 2784 1825 
Q 2784 2406 2684 2573 
Q 2584 2741 2328 2741 
Q 2006 2741 1831 2477 
Q 1656 2213 1656 1722 
L 1656 0 
L 531 0 
L 531 3500 
L 1656 3500 
L 1656 2988 
Q 1863 3284 2130 3434 
Q 2397 3584 2719 3584 
Q 3081 3584 3359 3409 
Q 3638 3234 3781 2919 
z
" transform="scale(0.015625)"/>
    </defs>
    <use xlink:href="#DejaVuSans-Bold-30"/>
    <use xlink:href="#DejaVuSans-Bold-52" transform="translate(99.515625 0)"/>
    <use xlink:href="#DejaVuSans-Bold-47" transform="translate(168.21875 0)"/>
    <use xlink:href="#DejaVuSans-Bold-48" transform="translate(239.796875 0)"/>
    <use xlink:href="#DejaVuSans-Bold-4f" transform="translate(307.625 0)"/>
    <use xlink:href="#DejaVuSans-Bold-3" transform="translate(341.90625 0)"/>
    <use xlink:href="#DejaVuSans-Bold-55" transform="translate(376.71875 0)"/>
    <use xlink:href="#DejaVuSans-Bold-44" transform="translate(426.03125 0)"/>
    <use xlink:href="#DejaVuSans-Bold-51" transform="translate(493.515625 0)"/>
    <use xlink:href="#DejaVuSans-Bold-4e" transform="translate(564.703125 0)"/>
    <use xlink:href="#DejaVuSans-Bold-4c" transform="translate(631.203125 0)"/>
    <use xlink:href="#DejaVuSans-Bold-51" transform="translate(665.484375 0)"/>
    <use xlink:href="#DejaVuSans-Bold-4a" transform="translate(736.671875 0)"/>
    <use xlink:href="#DejaVuSans-Bold-56" transform="translate(808.25 0)"/>
    <use xlink:href="#DejaVuSans-Bold-3" transform="translate(867.765625 0)"/>
    <use xlink:href="#DejaVuSans-Bold-46" transform="translate(902.578125 0)"/>
    <use xlink:href="#DejaVuSans-Bold-44" transform="translate(961.859375 0)"/>
    <use xlink:href="#DejaVuSans-Bold-51" transform="translate(1029.34375 0)"/>
    <use xlink:href="#DejaVuSans-Bold-3" transform="translate(1100.53125 0)"/>
    <use xlink:href="#DejaVuSans-Bold-46" transform="translate(1135.34375 0)"/>
    <use xlink:href="#DejaVuSans-Bold-4b" transform="translate(1194.625 0)"/>
    <use xlink:href="#DejaVuSans-Bold-44" transform="translate(1265.8125 0)"/>
    <use xlink:href="#DejaVuSans-Bold-51" transform="translate(1333.296875 0)"/>
    <use xlink:href="#DejaVuSans-Bold-4a" transform="translate(1404.484375 0)"/>
    <use xlink:href="#DejaVuSans-Bold-48" transform="translate(1476.0625 0)"/>
    <use xlink:href="#DejaVuSans-Bold-3" transform="translate(1543.890625 0)"/>
    <use xlink:href="#DejaVuSans-Bold-44" transform="translate(1578.703125 0)"/>
    <use xlink:href="#DejaVuSans-Bold-56" transform="translate(1646.1875 0)"/>
    <use xlink:href="#DejaVuSans-Bold-3" transform="translate(1705.703125 0)"/>
    <use xlink:href="#DejaVuSans-Bold-57" transform="translate(1740.515625 0)"/>
    <use xlink:href="#DejaVuSans-Bold-4b" transform="translate(1788.3125 0)"/>
    <use xlink:href="#DejaVuSans-Bold-48" transform="translate(1859.5 0)"/>
    <use xlink:href="#DejaVuSans-Bold-3" transform="translate(1927.328125 0)"/>
    <use xlink:href="#DejaVuSans-Bold-48" transform="translate(1962.140625 0)"/>
    <use xlink:href="#DejaVuSans-Bold-59" transform="translate(2029.96875 0)"/>
    <use xlink:href="#DejaVuSans-Bold-44" transform="translate(2095.15625 0)"/>
    <use xlink:href="#DejaVuSans-Bold-4f" transform="translate(2162.640625 0)"/>
    <use xlink:href="#DejaVuSans-Bold-58" transform="translate(2196.921875 0)"/>
    <use xlink:href="#DejaVuSans-Bold-44" transform="translate(2268.109375 0)"/>
    <use xlink:href="#DejaVuSans-Bold-57" transform="translate(2335.59375 0)"/>
    <use xlink:href="#DejaVuSans-Bold-4c" transform="translate(2383.390625 0)"/>
    <use xlink:href="#DejaVuSans-Bold-52" transform="translate(2417.671875 0)"/>
    <use xlink:href="#DejaVuSans-Bold-51" transform="translate(2486.375 0)"/>
    <use xlink:href="#DejaVuSans-Bold-3" transform="translate(2557.5625 0)"/>
    <use xlink:href="#DejaVuSans-Bold-5a" transform="translate(2592.375 0)"/>
    <use xlink:href="#DejaVuSans-Bold-4c" transform="translate(2684.765625 0)"/>
    <use xlink:href="#DejaVuSans-Bold-51" transform="translate(2719.046875 0)"/>
    <use xlink:href="#DejaVuSans-Bold-47" transform="translate(2790.234375 0)"/>
    <use xlink:href="#DejaVuSans-Bold-52" transform="translate(2861.8125 0)"/>
    <use xlink:href="#DejaVuSans-Bold-5a" transform="translate(2930.515625 0)"/>
    <use xlink:href="#DejaVuSans-Bold-3" transform="translate(3022.90625 0)"/>
    <use xlink:href="#DejaVuSans-Bold-50" transform="translate(3057.71875 0)"/>
    <use xlink:href="#DejaVuSans-Bold-52" transform="translate(3161.921875 0)"/>
    <use xlink:href="#DejaVuSans-Bold-59" transform="translate(3230.625 0)"/>
    <use xlink:href="#DejaVuSans-Bold-48" transform="translate(3295.8125 0)"/>
    <use xlink:href="#DejaVuSans-Bold-56" transform="translate(3363.640625 0)"/>
   </g>
  </g>
  <g id="text_32">
   <!-- MTRN • 12-target-month rolling errors • December 2023–August 2026 -->
   <g style="fill: #475569" transform="translate(11.83125 45.038437) scale(0.1 -0.1)">
    <defs>
     <path id="DejaVuSans-37" d="M -19 4666 
L 3928 4666 
L 3928 4134 
L 2272 4134 
L 2272 0 
L 1638 0 
L 1638 4134 
L -19 4134 
L -19 4666 
z
" transform="scale(0.015625)"/>
     <path id="DejaVuSans-31" d="M 628 4666 
L 1478 4666 
L 3547 763 
L 3547 4666 
L 4159 4666 
L 4159 0 
L 3309 0 
L 1241 3903 
L 1241 0 
L 628 0 
L 628 4666 
z
" transform="scale(0.015625)"/>
     <path id="DejaVuSans-b04" d="M 959 2381 
Q 959 2769 1229 3036 
Q 1500 3303 1894 3303 
Q 2281 3303 2548 3036 
Q 2816 2769 2816 2381 
Q 2816 1991 2547 1722 
Q 2278 1453 1888 1453 
Q 1497 1453 1228 1722 
Q 959 1991 959 2381 
z
" transform="scale(0.015625)"/>
     <path id="DejaVuSans-27" d="M 1259 4147 
L 1259 519 
L 2022 519 
Q 2988 519 3436 956 
Q 3884 1394 3884 2338 
Q 3884 3275 3436 3711 
Q 2988 4147 2022 4147 
L 1259 4147 
z
M 628 4666 
L 1925 4666 
Q 3281 4666 3915 4102 
Q 4550 3538 4550 2338 
Q 4550 1131 3912 565 
Q 3275 0 1925 0 
L 628 0 
L 628 4666 
z
" transform="scale(0.015625)"/>
     <path id="DejaVuSans-af5" d="M 313 1978 
L 2888 1978 
L 2888 1528 
L 313 1528 
L 313 1978 
z
" transform="scale(0.015625)"/>
    </defs>
    <use xlink:href="#DejaVuSans-30"/>
    <use xlink:href="#DejaVuSans-37" transform="translate(86.28125 0)"/>
    <use xlink:href="#DejaVuSans-35" transform="translate(147.359375 0)"/>
    <use xlink:href="#DejaVuSans-31" transform="translate(216.84375 0)"/>
    <use xlink:href="#DejaVuSans-3" transform="translate(291.65625 0)"/>
    <use xlink:href="#DejaVuSans-b04" transform="translate(323.4375 0)"/>
    <use xlink:href="#DejaVuSans-3" transform="translate(382.421875 0)"/>
    <use xlink:href="#DejaVuSans-14" transform="translate(414.203125 0)"/>
    <use xlink:href="#DejaVuSans-15" transform="translate(477.828125 0)"/>
    <use xlink:href="#DejaVuSans-10" transform="translate(541.453125 0)"/>
    <use xlink:href="#DejaVuSans-57" transform="translate(577.53125 0)"/>
    <use xlink:href="#DejaVuSans-44" transform="translate(616.734375 0)"/>
    <use xlink:href="#DejaVuSans-55" transform="translate(678.015625 0)"/>
    <use xlink:href="#DejaVuSans-4a" transform="translate(717.375 0)"/>
    <use xlink:href="#DejaVuSans-48" transform="translate(780.859375 0)"/>
    <use xlink:href="#DejaVuSans-57" transform="translate(842.390625 0)"/>
    <use xlink:href="#DejaVuSans-10" transform="translate(881.59375 0)"/>
    <use xlink:href="#DejaVuSans-50" transform="translate(917.671875 0)"/>
    <use xlink:href="#DejaVuSans-52" transform="translate(1015.078125 0)"/>
    <use xlink:href="#DejaVuSans-51" transform="translate(1076.265625 0)"/>
    <use xlink:href="#DejaVuSans-57" transform="translate(1139.640625 0)"/>
    <use xlink:href="#DejaVuSans-4b" transform="translate(1178.84375 0)"/>
    <use xlink:href="#DejaVuSans-3" transform="translate(1242.21875 0)"/>
    <use xlink:href="#DejaVuSans-55" transform="translate(1274 0)"/>
    <use xlink:href="#DejaVuSans-52" transform="translate(1312.90625 0)"/>
    <use xlink:href="#DejaVuSans-4f" transform="translate(1374.09375 0)"/>
    <use xlink:href="#DejaVuSans-4f" transform="translate(1401.875 0)"/>
    <use xlink:href="#DejaVuSans-4c" transform="translate(1429.65625 0)"/>
    <use xlink:href="#DejaVuSans-51" transform="translate(1457.4375 0)"/>
    <use xlink:href="#DejaVuSans-4a" transform="translate(1520.8125 0)"/>
    <use xlink:href="#DejaVuSans-3" transform="translate(1584.296875 0)"/>
    <use xlink:href="#DejaVuSans-48" transform="translate(1616.078125 0)"/>
    <use xlink:href="#DejaVuSans-55" transform="translate(1677.609375 0)"/>
    <use xlink:href="#DejaVuSans-55" transform="translate(1716.96875 0)"/>
    <use xlink:href="#DejaVuSans-52" transform="translate(1755.875 0)"/>
    <use xlink:href="#DejaVuSans-55" transform="translate(1817.0625 0)"/>
    <use xlink:href="#DejaVuSans-56" transform="translate(1858.171875 0)"/>
    <use xlink:href="#DejaVuSans-3" transform="translate(1910.265625 0)"/>
    <use xlink:href="#DejaVuSans-b04" transform="translate(1942.046875 0)"/>
    <use xlink:href="#DejaVuSans-3" transform="translate(2001.03125 0)"/>
    <use xlink:href="#DejaVuSans-27" transform="translate(2032.8125 0)"/>
    <use xlink:href="#DejaVuSans-48" transform="translate(2109.8125 0)"/>
    <use xlink:href="#DejaVuSans-46" transform="translate(2171.34375 0)"/>
    <use xlink:href="#DejaVuSans-48" transform="translate(2226.328125 0)"/>
    <use xlink:href="#DejaVuSans-50" transform="translate(2287.859375 0)"/>
    <use xlink:href="#DejaVuSans-45" transform="translate(2385.265625 0)"/>
    <use xlink:href="#DejaVuSans-48" transform="translate(2448.75 0)"/>
    <use xlink:href="#DejaVuSans-55" transform="translate(2510.28125 0)"/>
    <use xlink:href="#DejaVuSans-3" transform="translate(2551.390625 0)"/>
    <use xlink:href="#DejaVuSans-15" transform="translate(2583.171875 0)"/>
    <use xlink:href="#DejaVuSans-13" transform="translate(2646.796875 0)"/>
    <use xlink:href="#DejaVuSans-15" transform="translate(2710.421875 0)"/>
    <use xlink:href="#DejaVuSans-16" transform="translate(2774.046875 0)"/>
    <use xlink:href="#DejaVuSans-af5" transform="translate(2837.671875 0)"/>
    <use xlink:href="#DejaVuSans-24" transform="translate(2887.671875 0)"/>
    <use xlink:href="#DejaVuSans-58" transform="translate(2956.078125 0)"/>
    <use xlink:href="#DejaVuSans-4a" transform="translate(3019.453125 0)"/>
    <use xlink:href="#DejaVuSans-58" transform="translate(3082.9375 0)"/>
    <use xlink:href="#DejaVuSans-56" transform="translate(3146.3125 0)"/>
    <use xlink:href="#DejaVuSans-57" transform="translate(3198.40625 0)"/>
    <use xlink:href="#DejaVuSans-3" transform="translate(3237.609375 0)"/>
    <use xlink:href="#DejaVuSans-15" transform="translate(3269.390625 0)"/>
    <use xlink:href="#DejaVuSans-13" transform="translate(3333.015625 0)"/>
    <use xlink:href="#DejaVuSans-15" transform="translate(3396.640625 0)"/>
    <use xlink:href="#DejaVuSans-19" transform="translate(3460.265625 0)"/>
   </g>
  </g>
 </g>
 <defs>
  <clipPath id="p3a4bfadb47">
   <rect x="42.513594" y="75.6" width="734.677656" height="175.727656"/>
  </clipPath>
  <clipPath id="p6819157467">
   <rect x="42.513594" y="279.95" width="734.677656" height="175.727656"/>
  </clipPath>
 </defs>
</svg>
