<?xml version="1.0" encoding="utf-8" standalone="no"?>
<!DOCTYPE svg PUBLIC "-//W3C//DTD SVG 1.1//EN"
  "http://www.w3.org/Graphics/SVG/1.1/DTD/svg11.dtd">
<svg xmlns:xlink="http://www.w3.org/1999/xlink" width="551.518295pt" height="258.420969pt" viewBox="0 0 551.518295 258.420969" xmlns="http://www.w3.org/2000/svg" version="1.1">
 <metadata>
  <rdf:RDF xmlns:dc="http://purl.org/dc/elements/1.1/" xmlns:cc="http://creativecommons.org/ns#" xmlns:rdf="http://www.w3.org/1999/02/22-rdf-syntax-ns#">
   <cc:Work>
    <dc:type rdf:resource="http://purl.org/dc/dcmitype/StillImage"/>
    <dc:date>2026-09-15T11:26:02.225881</dc:date>
    <dc:format>image/svg+xml</dc:format>
    <dc:creator>
     <cc:Agent>
      <dc:title>Matplotlib v3.10.9, https://matplotlib.org/</dc:title>
     </cc:Agent>
    </dc:creator>
   </cc:Work>
  </rdf:RDF>
 </metadata>
 <defs>
  <style type="text/css">*{stroke-linejoin: round; stroke-linecap: butt}</style>
 </defs>
 <g id="figure_1">
  <g id="patch_1">
   <path d="M 0 258.420969 
L 551.518295 258.420969 
L 551.518295 -0 
L 0 -0 
z
" style="fill: #ffffff"/>
  </g>
  <g id="axes_1">
   <g id="patch_2">
    <path d="M 35.98 209.726281 
L 533.52 209.726281 
L 533.52 35.558281 
L 35.98 35.558281 
z
" style="fill: #ffffff"/>
   </g>
   <g id="matplotlib.axis_1">
    <g id="xtick_1">
     <g id="line2d_1">
      <defs>
       <path id="m74df303ce6" d="M 0 0 
L 0 3.5 
" style="stroke: #898781; stroke-width: 0.8"/>
      </defs>
      <g>
       <use xlink:href="#m74df303ce6" x="58.595455" y="209.726281" style="fill: #898781; stroke: #898781; stroke-width: 0.8"/>
      </g>
     </g>
     <g id="text_1">
      <!-- FY2020 -->
      <g style="fill: #898781" transform="translate(43.671705 222.805031) scale(0.08 -0.08)">
       <defs>
        <path id="DejaVuSans-46" d="M 628 4666 
L 3309 4666 
L 3309 4134 
L 1259 4134 
L 1259 2759 
L 3109 2759 
L 3109 2228 
L 1259 2228 
L 1259 0 
L 628 0 
L 628 4666 
z
" transform="scale(0.015625)"/>
        <path id="DejaVuSans-59" d="M -13 4666 
L 666 4666 
L 1959 2747 
L 3244 4666 
L 3922 4666 
L 2272 2222 
L 2272 0 
L 1638 0 
L 1638 2222 
L -13 4666 
z
" transform="scale(0.015625)"/>
        <path id="DejaVuSans-32" d="M 1228 531 
L 3431 531 
L 3431 0 
L 469 0 
L 469 531 
Q 828 903 1448 1529 
Q 2069 2156 2228 2338 
Q 2531 2678 2651 2914 
Q 2772 3150 2772 3378 
Q 2772 3750 2511 3984 
Q 2250 4219 1831 4219 
Q 1534 4219 1204 4116 
Q 875 4013 500 3803 
L 500 4441 
Q 881 4594 1212 4672 
Q 1544 4750 1819 4750 
Q 2544 4750 2975 4387 
Q 3406 4025 3406 3419 
Q 3406 3131 3298 2873 
Q 3191 2616 2906 2266 
Q 2828 2175 2409 1742 
Q 1991 1309 1228 531 
z
" transform="scale(0.015625)"/>
        <path id="DejaVuSans-30" d="M 2034 4250 
Q 1547 4250 1301 3770 
Q 1056 3291 1056 2328 
Q 1056 1369 1301 889 
Q 1547 409 2034 409 
Q 2525 409 2770 889 
Q 3016 1369 3016 2328 
Q 3016 3291 2770 3770 
Q 2525 4250 2034 4250 
z
M 2034 4750 
Q 2819 4750 3233 4129 
Q 3647 3509 3647 2328 
Q 3647 1150 3233 529 
Q 2819 -91 2034 -91 
Q 1250 -91 836 529 
Q 422 1150 422 2328 
Q 422 3509 836 4129 
Q 1250 4750 2034 4750 
z
" transform="scale(0.015625)"/>
       </defs>
       <use xlink:href="#DejaVuSans-46"/>
       <use xlink:href="#DejaVuSans-59" transform="translate(57.519531 0)"/>
       <use xlink:href="#DejaVuSans-32" transform="translate(118.603516 0)"/>
       <use xlink:href="#DejaVuSans-30" transform="translate(182.226562 0)"/>
       <use xlink:href="#DejaVuSans-32" transform="translate(245.849609 0)"/>
       <use xlink:href="#DejaVuSans-30" transform="translate(309.472656 0)"/>
      </g>
     </g>
    </g>
    <g id="xtick_2">
     <g id="line2d_2">
      <g>
       <use xlink:href="#m74df303ce6" x="133.980303" y="209.726281" style="fill: #898781; stroke: #898781; stroke-width: 0.8"/>
      </g>
     </g>
     <g id="text_2">
      <!-- FY2021 -->
      <g style="fill: #898781" transform="translate(119.056553 222.805031) scale(0.08 -0.08)">
       <defs>
        <path id="DejaVuSans-31" d="M 794 531 
L 1825 531 
L 1825 4091 
L 703 3866 
L 703 4441 
L 1819 4666 
L 2450 4666 
L 2450 531 
L 3481 531 
L 3481 0 
L 794 0 
L 794 531 
z
" transform="scale(0.015625)"/>
       </defs>
       <use xlink:href="#DejaVuSans-46"/>
       <use xlink:href="#DejaVuSans-59" transform="translate(57.519531 0)"/>
       <use xlink:href="#DejaVuSans-32" transform="translate(118.603516 0)"/>
       <use xlink:href="#DejaVuSans-30" transform="translate(182.226562 0)"/>
       <use xlink:href="#DejaVuSans-32" transform="translate(245.849609 0)"/>
       <use xlink:href="#DejaVuSans-31" transform="translate(309.472656 0)"/>
      </g>
     </g>
    </g>
    <g id="xtick_3">
     <g id="line2d_3">
      <g>
       <use xlink:href="#m74df303ce6" x="209.365152" y="209.726281" style="fill: #898781; stroke: #898781; stroke-width: 0.8"/>
      </g>
     </g>
     <g id="text_3">
      <!-- FY2022 -->
      <g style="fill: #898781" transform="translate(194.441402 222.805031) scale(0.08 -0.08)">
       <use xlink:href="#DejaVuSans-46"/>
       <use xlink:href="#DejaVuSans-59" transform="translate(57.519531 0)"/>
       <use xlink:href="#DejaVuSans-32" transform="translate(118.603516 0)"/>
       <use xlink:href="#DejaVuSans-30" transform="translate(182.226562 0)"/>
       <use xlink:href="#DejaVuSans-32" transform="translate(245.849609 0)"/>
       <use xlink:href="#DejaVuSans-32" transform="translate(309.472656 0)"/>
      </g>
     </g>
    </g>
    <g id="xtick_4">
     <g id="line2d_4">
      <g>
       <use xlink:href="#m74df303ce6" x="284.75" y="209.726281" style="fill: #898781; stroke: #898781; stroke-width: 0.8"/>
      </g>
     </g>
     <g id="text_4">
      <!-- FY2023 -->
      <g style="fill: #898781" transform="translate(269.82625 222.805031) scale(0.08 -0.08)">
       <defs>
        <path id="DejaVuSans-33" d="M 2597 2516 
Q 3050 2419 3304 2112 
Q 3559 1806 3559 1356 
Q 3559 666 3084 287 
Q 2609 -91 1734 -91 
Q 1441 -91 1130 -33 
Q 819 25 488 141 
L 488 750 
Q 750 597 1062 519 
Q 1375 441 1716 441 
Q 2309 441 2620 675 
Q 2931 909 2931 1356 
Q 2931 1769 2642 2001 
Q 2353 2234 1838 2234 
L 1294 2234 
L 1294 2753 
L 1863 2753 
Q 2328 2753 2575 2939 
Q 2822 3125 2822 3475 
Q 2822 3834 2567 4026 
Q 2313 4219 1838 4219 
Q 1578 4219 1281 4162 
Q 984 4106 628 3988 
L 628 4550 
Q 988 4650 1302 4700 
Q 1616 4750 1894 4750 
Q 2613 4750 3031 4423 
Q 3450 4097 3450 3541 
Q 3450 3153 3228 2886 
Q 3006 2619 2597 2516 
z
" transform="scale(0.015625)"/>
       </defs>
       <use xlink:href="#DejaVuSans-46"/>
       <use xlink:href="#DejaVuSans-59" transform="translate(57.519531 0)"/>
       <use xlink:href="#DejaVuSans-32" transform="translate(118.603516 0)"/>
       <use xlink:href="#DejaVuSans-30" transform="translate(182.226562 0)"/>
       <use xlink:href="#DejaVuSans-32" transform="translate(245.849609 0)"/>
       <use xlink:href="#DejaVuSans-33" transform="translate(309.472656 0)"/>
      </g>
     </g>
    </g>
    <g id="xtick_5">
     <g id="line2d_5">
      <g>
       <use xlink:href="#m74df303ce6" x="360.134848" y="209.726281" style="fill: #898781; stroke: #898781; stroke-width: 0.8"/>
      </g>
     </g>
     <g id="text_5">
      <!-- FY2024 -->
      <g style="fill: #898781" transform="translate(345.211098 222.805031) scale(0.08 -0.08)">
       <defs>
        <path id="DejaVuSans-34" d="M 2419 4116 
L 825 1625 
L 2419 1625 
L 2419 4116 
z
M 2253 4666 
L 3047 4666 
L 3047 1625 
L 3713 1625 
L 3713 1100 
L 3047 1100 
L 3047 0 
L 2419 0 
L 2419 1100 
L 313 1100 
L 313 1709 
L 2253 4666 
z
" transform="scale(0.015625)"/>
       </defs>
       <use xlink:href="#DejaVuSans-46"/>
       <use xlink:href="#DejaVuSans-59" transform="translate(57.519531 0)"/>
       <use xlink:href="#DejaVuSans-32" transform="translate(118.603516 0)"/>
       <use xlink:href="#DejaVuSans-30" transform="translate(182.226562 0)"/>
       <use xlink:href="#DejaVuSans-32" transform="translate(245.849609 0)"/>
       <use xlink:href="#DejaVuSans-34" transform="translate(309.472656 0)"/>
      </g>
     </g>
    </g>
    <g id="xtick_6">
     <g id="line2d_6">
      <g>
       <use xlink:href="#m74df303ce6" x="435.519697" y="209.726281" style="fill: #898781; stroke: #898781; stroke-width: 0.8"/>
      </g>
     </g>
     <g id="text_6">
      <!-- FY2025 -->
      <g style="fill: #898781" transform="translate(420.595947 222.805031) scale(0.08 -0.08)">
       <defs>
        <path id="DejaVuSans-35" d="M 691 4666 
L 3169 4666 
L 3169 4134 
L 1269 4134 
L 1269 2991 
Q 1406 3038 1543 3061 
Q 1681 3084 1819 3084 
Q 2600 3084 3056 2656 
Q 3513 2228 3513 1497 
Q 3513 744 3044 326 
Q 2575 -91 1722 -91 
Q 1428 -91 1123 -41 
Q 819 9 494 109 
L 494 744 
Q 775 591 1075 516 
Q 1375 441 1709 441 
Q 2250 441 2565 725 
Q 2881 1009 2881 1497 
Q 2881 1984 2565 2268 
Q 2250 2553 1709 2553 
Q 1456 2553 1204 2497 
Q 953 2441 691 2322 
L 691 4666 
z
" transform="scale(0.015625)"/>
       </defs>
       <use xlink:href="#DejaVuSans-46"/>
       <use xlink:href="#DejaVuSans-59" transform="translate(57.519531 0)"/>
       <use xlink:href="#DejaVuSans-32" transform="translate(118.603516 0)"/>
       <use xlink:href="#DejaVuSans-30" transform="translate(182.226562 0)"/>
       <use xlink:href="#DejaVuSans-32" transform="translate(245.849609 0)"/>
       <use xlink:href="#DejaVuSans-35" transform="translate(309.472656 0)"/>
      </g>
     </g>
    </g>
    <g id="xtick_7">
     <g id="line2d_7">
      <g>
       <use xlink:href="#m74df303ce6" x="510.904545" y="209.726281" style="fill: #898781; stroke: #898781; stroke-width: 0.8"/>
      </g>
     </g>
     <g id="text_7">
      <!-- TTM -->
      <g style="fill: #898781" transform="translate(502.637045 222.805031) scale(0.08 -0.08)">
       <defs>
        <path id="DejaVuSans-54" d="M -19 4666 
L 3928 4666 
L 3928 4134 
L 2272 4134 
L 2272 0 
L 1638 0 
L 1638 4134 
L -19 4134 
L -19 4666 
z
" transform="scale(0.015625)"/>
        <path id="DejaVuSans-4d" d="M 628 4666 
L 1569 4666 
L 2759 1491 
L 3956 4666 
L 4897 4666 
L 4897 0 
L 4281 0 
L 4281 4097 
L 3078 897 
L 2444 897 
L 1241 4097 
L 1241 0 
L 628 0 
L 628 4666 
z
" transform="scale(0.015625)"/>
       </defs>
       <use xlink:href="#DejaVuSans-54"/>
       <use xlink:href="#DejaVuSans-54" transform="translate(59.333984 0)"/>
       <use xlink:href="#DejaVuSans-4d" transform="translate(120.417969 0)"/>
      </g>
      <!-- Q3 FY26 -->
      <g style="fill: #898781" transform="translate(494.105795 231.763281) scale(0.08 -0.08)">
       <defs>
        <path id="DejaVuSans-51" d="M 2522 4238 
Q 1834 4238 1429 3725 
Q 1025 3213 1025 2328 
Q 1025 1447 1429 934 
Q 1834 422 2522 422 
Q 3209 422 3611 934 
Q 4013 1447 4013 2328 
Q 4013 3213 3611 3725 
Q 3209 4238 2522 4238 
z
M 3406 84 
L 4238 -825 
L 3475 -825 
L 2784 -78 
Q 2681 -84 2626 -87 
Q 2572 -91 2522 -91 
Q 1538 -91 948 567 
Q 359 1225 359 2328 
Q 359 3434 948 4092 
Q 1538 4750 2522 4750 
Q 3503 4750 4090 4092 
Q 4678 3434 4678 2328 
Q 4678 1516 4351 937 
Q 4025 359 3406 84 
z
" transform="scale(0.015625)"/>
        <path id="DejaVuSans-20" transform="scale(0.015625)"/>
        <path id="DejaVuSans-36" d="M 2113 2584 
Q 1688 2584 1439 2293 
Q 1191 2003 1191 1497 
Q 1191 994 1439 701 
Q 1688 409 2113 409 
Q 2538 409 2786 701 
Q 3034 994 3034 1497 
Q 3034 2003 2786 2293 
Q 2538 2584 2113 2584 
z
M 3366 4563 
L 3366 3988 
Q 3128 4100 2886 4159 
Q 2644 4219 2406 4219 
Q 1781 4219 1451 3797 
Q 1122 3375 1075 2522 
Q 1259 2794 1537 2939 
Q 1816 3084 2150 3084 
Q 2853 3084 3261 2657 
Q 3669 2231 3669 1497 
Q 3669 778 3244 343 
Q 2819 -91 2113 -91 
Q 1303 -91 875 529 
Q 447 1150 447 2328 
Q 447 3434 972 4092 
Q 1497 4750 2381 4750 
Q 2619 4750 2861 4703 
Q 3103 4656 3366 4563 
z
" transform="scale(0.015625)"/>
       </defs>
       <use xlink:href="#DejaVuSans-51"/>
       <use xlink:href="#DejaVuSans-33" transform="translate(78.710938 0)"/>
       <use xlink:href="#DejaVuSans-20" transform="translate(142.333984 0)"/>
       <use xlink:href="#DejaVuSans-46" transform="translate(174.121094 0)"/>
       <use xlink:href="#DejaVuSans-59" transform="translate(231.640625 0)"/>
       <use xlink:href="#DejaVuSans-32" transform="translate(292.724609 0)"/>
       <use xlink:href="#DejaVuSans-36" transform="translate(356.347656 0)"/>
      </g>
     </g>
    </g>
   </g>
   <g id="matplotlib.axis_2">
    <g id="ytick_1">
     <g id="line2d_8">
      <path d="M 35.98 196.50119 
L 533.52 196.50119 
" clip-path="url(#p4fb45f970b)" style="fill: none; stroke: #e1e0d9; stroke-width: 0.6; stroke-linecap: round"/>
     </g>
     <g id="line2d_9">
      <defs>
       <path id="m95389febde" d="M 0 0 
L -3.5 0 
" style="stroke: #898781; stroke-width: 0.8"/>
      </defs>
      <g>
       <use xlink:href="#m95389febde" x="35.98" y="196.50119" style="fill: #898781; stroke: #898781; stroke-width: 0.8"/>
      </g>
     </g>
     <g id="text_8">
      <!-- 0% -->
      <g style="fill: #898781" transform="translate(16.28875 199.540565) scale(0.08 -0.08)">
       <defs>
        <path id="DejaVuSans-25" d="M 4653 2053 
Q 4381 2053 4226 1822 
Q 4072 1591 4072 1178 
Q 4072 772 4226 539 
Q 4381 306 4653 306 
Q 4919 306 5073 539 
Q 5228 772 5228 1178 
Q 5228 1588 5073 1820 
Q 4919 2053 4653 2053 
z
M 4653 2450 
Q 5147 2450 5437 2106 
Q 5728 1763 5728 1178 
Q 5728 594 5436 251 
Q 5144 -91 4653 -91 
Q 4153 -91 3862 251 
Q 3572 594 3572 1178 
Q 3572 1766 3864 2108 
Q 4156 2450 4653 2450 
z
M 1428 4353 
Q 1159 4353 1004 4120 
Q 850 3888 850 3481 
Q 850 3069 1003 2837 
Q 1156 2606 1428 2606 
Q 1700 2606 1854 2837 
Q 2009 3069 2009 3481 
Q 2009 3884 1853 4118 
Q 1697 4353 1428 4353 
z
M 4250 4750 
L 4750 4750 
L 1831 -91 
L 1331 -91 
L 4250 4750 
z
M 1428 4750 
Q 1922 4750 2215 4408 
Q 2509 4066 2509 3481 
Q 2509 2891 2217 2550 
Q 1925 2209 1428 2209 
Q 931 2209 642 2551 
Q 353 2894 353 3481 
Q 353 4063 643 4406 
Q 934 4750 1428 4750 
z
" transform="scale(0.015625)"/>
       </defs>
       <use xlink:href="#DejaVuSans-30"/>
       <use xlink:href="#DejaVuSans-25" transform="translate(63.623047 0)"/>
      </g>
     </g>
    </g>
    <g id="ytick_2">
     <g id="line2d_10">
      <path d="M 35.98 175.671023 
L 533.52 175.671023 
" clip-path="url(#p4fb45f970b)" style="fill: none; stroke: #e1e0d9; stroke-width: 0.6; stroke-linecap: round"/>
     </g>
     <g id="line2d_11">
      <g>
       <use xlink:href="#m95389febde" x="35.98" y="175.671023" style="fill: #898781; stroke: #898781; stroke-width: 0.8"/>
      </g>
     </g>
     <g id="text_9">
      <!-- 5% -->
      <g style="fill: #898781" transform="translate(16.28875 178.710398) scale(0.08 -0.08)">
       <use xlink:href="#DejaVuSans-35"/>
       <use xlink:href="#DejaVuSans-25" transform="translate(63.623047 0)"/>
      </g>
     </g>
    </g>
    <g id="ytick_3">
     <g id="line2d_12">
      <path d="M 35.98 154.840857 
L 533.52 154.840857 
" clip-path="url(#p4fb45f970b)" style="fill: none; stroke: #e1e0d9; stroke-width: 0.6; stroke-linecap: round"/>
     </g>
     <g id="line2d_13">
      <g>
       <use xlink:href="#m95389febde" x="35.98" y="154.840857" style="fill: #898781; stroke: #898781; stroke-width: 0.8"/>
      </g>
     </g>
     <g id="text_10">
      <!-- 10% -->
      <g style="fill: #898781" transform="translate(11.19875 157.880232) scale(0.08 -0.08)">
       <use xlink:href="#DejaVuSans-31"/>
       <use xlink:href="#DejaVuSans-30" transform="translate(63.623047 0)"/>
       <use xlink:href="#DejaVuSans-25" transform="translate(127.246094 0)"/>
      </g>
     </g>
    </g>
    <g id="ytick_4">
     <g id="line2d_14">
      <path d="M 35.98 134.01069 
L 533.52 134.01069 
" clip-path="url(#p4fb45f970b)" style="fill: none; stroke: #e1e0d9; stroke-width: 0.6; stroke-linecap: round"/>
     </g>
     <g id="line2d_15">
      <g>
       <use xlink:href="#m95389febde" x="35.98" y="134.01069" style="fill: #898781; stroke: #898781; stroke-width: 0.8"/>
      </g>
     </g>
     <g id="text_11">
      <!-- 15% -->
      <g style="fill: #898781" transform="translate(11.19875 137.050065) scale(0.08 -0.08)">
       <use xlink:href="#DejaVuSans-31"/>
       <use xlink:href="#DejaVuSans-35" transform="translate(63.623047 0)"/>
       <use xlink:href="#DejaVuSans-25" transform="translate(127.246094 0)"/>
      </g>
     </g>
    </g>
    <g id="ytick_5">
     <g id="line2d_16">
      <path d="M 35.98 113.180524 
L 533.52 113.180524 
" clip-path="url(#p4fb45f970b)" style="fill: none; stroke: #e1e0d9; stroke-width: 0.6; stroke-linecap: round"/>
     </g>
     <g id="line2d_17">
      <g>
       <use xlink:href="#m95389febde" x="35.98" y="113.180524" style="fill: #898781; stroke: #898781; stroke-width: 0.8"/>
      </g>
     </g>
     <g id="text_12">
      <!-- 20% -->
      <g style="fill: #898781" transform="translate(11.19875 116.219899) scale(0.08 -0.08)">
       <use xlink:href="#DejaVuSans-32"/>
       <use xlink:href="#DejaVuSans-30" transform="translate(63.623047 0)"/>
       <use xlink:href="#DejaVuSans-25" transform="translate(127.246094 0)"/>
      </g>
     </g>
    </g>
    <g id="ytick_6">
     <g id="line2d_18">
      <path d="M 35.98 92.350357 
L 533.52 92.350357 
" clip-path="url(#p4fb45f970b)" style="fill: none; stroke: #e1e0d9; stroke-width: 0.6; stroke-linecap: round"/>
     </g>
     <g id="line2d_19">
      <g>
       <use xlink:href="#m95389febde" x="35.98" y="92.350357" style="fill: #898781; stroke: #898781; stroke-width: 0.8"/>
      </g>
     </g>
     <g id="text_13">
      <!-- 25% -->
      <g style="fill: #898781" transform="translate(11.19875 95.389732) scale(0.08 -0.08)">
       <use xlink:href="#DejaVuSans-32"/>
       <use xlink:href="#DejaVuSans-35" transform="translate(63.623047 0)"/>
       <use xlink:href="#DejaVuSans-25" transform="translate(127.246094 0)"/>
      </g>
     </g>
    </g>
    <g id="ytick_7">
     <g id="line2d_20">
      <path d="M 35.98 71.52019 
L 533.52 71.52019 
" clip-path="url(#p4fb45f970b)" style="fill: none; stroke: #e1e0d9; stroke-width: 0.6; stroke-linecap: round"/>
     </g>
     <g id="line2d_21">
      <g>
       <use xlink:href="#m95389febde" x="35.98" y="71.52019" style="fill: #898781; stroke: #898781; stroke-width: 0.8"/>
      </g>
     </g>
     <g id="text_14">
      <!-- 30% -->
      <g style="fill: #898781" transform="translate(11.19875 74.559565) scale(0.08 -0.08)">
       <use xlink:href="#DejaVuSans-33"/>
       <use xlink:href="#DejaVuSans-30" transform="translate(63.623047 0)"/>
       <use xlink:href="#DejaVuSans-25" transform="translate(127.246094 0)"/>
      </g>
     </g>
    </g>
    <g id="ytick_8">
     <g id="line2d_22">
      <path d="M 35.98 50.690024 
L 533.52 50.690024 
" clip-path="url(#p4fb45f970b)" style="fill: none; stroke: #e1e0d9; stroke-width: 0.6; stroke-linecap: round"/>
     </g>
     <g id="line2d_23">
      <g>
       <use xlink:href="#m95389febde" x="35.98" y="50.690024" style="fill: #898781; stroke: #898781; stroke-width: 0.8"/>
      </g>
     </g>
     <g id="text_15">
      <!-- 35% -->
      <g style="fill: #898781" transform="translate(11.19875 53.729399) scale(0.08 -0.08)">
       <use xlink:href="#DejaVuSans-33"/>
       <use xlink:href="#DejaVuSans-35" transform="translate(63.623047 0)"/>
       <use xlink:href="#DejaVuSans-25" transform="translate(127.246094 0)"/>
      </g>
     </g>
    </g>
   </g>
   <g id="line2d_24">
    <path d="M 35.98 196.50119 
L 533.52 196.50119 
" clip-path="url(#p4fb45f970b)" style="fill: none; stroke: #c3c2b7; stroke-width: 0.8; stroke-linecap: round"/>
   </g>
   <g id="line2d_25">
    <path d="M 58.595455 65.739437 
L 133.980303 55.914059 
L 209.365152 57.526201 
L 284.75 50.093038 
L 360.134848 59.905853 
L 435.519697 70.4488 
L 510.904545 43.475009 
" clip-path="url(#p4fb45f970b)" style="fill: none; stroke: #2d7d46; stroke-width: 2; stroke-linecap: round"/>
    <defs>
     <path id="m9483be984b" d="M 0 2.5 
C 0.663008 2.5 1.29895 2.236584 1.767767 1.767767 
C 2.236584 1.29895 2.5 0.663008 2.5 0 
C 2.5 -0.663008 2.236584 -1.29895 1.767767 -1.767767 
C 1.29895 -2.236584 0.663008 -2.5 0 -2.5 
C -0.663008 -2.5 -1.29895 -2.236584 -1.767767 -1.767767 
C -2.236584 -1.29895 -2.5 -0.663008 -2.5 0 
C -2.5 0.663008 -2.236584 1.29895 -1.767767 1.767767 
C -1.29895 2.236584 -0.663008 2.5 0 2.5 
z
" style="stroke: #2d7d46"/>
    </defs>
    <g clip-path="url(#p4fb45f970b)">
     <use xlink:href="#m9483be984b" x="58.595455" y="65.739437" style="fill: #2d7d46; stroke: #2d7d46"/>
     <use xlink:href="#m9483be984b" x="133.980303" y="55.914059" style="fill: #2d7d46; stroke: #2d7d46"/>
     <use xlink:href="#m9483be984b" x="209.365152" y="57.526201" style="fill: #2d7d46; stroke: #2d7d46"/>
     <use xlink:href="#m9483be984b" x="284.75" y="50.093038" style="fill: #2d7d46; stroke: #2d7d46"/>
     <use xlink:href="#m9483be984b" x="360.134848" y="59.905853" style="fill: #2d7d46; stroke: #2d7d46"/>
     <use xlink:href="#m9483be984b" x="435.519697" y="70.4488" style="fill: #2d7d46; stroke: #2d7d46"/>
     <use xlink:href="#m9483be984b" x="510.904545" y="43.475009" style="fill: #2d7d46; stroke: #2d7d46"/>
    </g>
   </g>
   <g id="line2d_26">
    <path d="M 58.595455 161.267004 
L 133.980303 153.797249 
L 209.365152 152.261939 
L 284.75 151.530623 
L 360.134848 152.693331 
L 435.519697 155.771339 
L 510.904545 139.121347 
" clip-path="url(#p4fb45f970b)" style="fill: none; stroke: #b8860b; stroke-width: 2; stroke-linecap: round"/>
    <defs>
     <path id="md40e5a2983" d="M 0 2.5 
C 0.663008 2.5 1.29895 2.236584 1.767767 1.767767 
C 2.236584 1.29895 2.5 0.663008 2.5 0 
C 2.5 -0.663008 2.236584 -1.29895 1.767767 -1.767767 
C 1.29895 -2.236584 0.663008 -2.5 0 -2.5 
C -0.663008 -2.5 -1.29895 -2.236584 -1.767767 -1.767767 
C -2.236584 -1.29895 -2.5 -0.663008 -2.5 0 
C -2.5 0.663008 -2.236584 1.29895 -1.767767 1.767767 
C -1.29895 2.236584 -0.663008 2.5 0 2.5 
z
" style="stroke: #b8860b"/>
    </defs>
    <g clip-path="url(#p4fb45f970b)">
     <use xlink:href="#md40e5a2983" x="58.595455" y="161.267004" style="fill: #b8860b; stroke: #b8860b"/>
     <use xlink:href="#md40e5a2983" x="133.980303" y="153.797249" style="fill: #b8860b; stroke: #b8860b"/>
     <use xlink:href="#md40e5a2983" x="209.365152" y="152.261939" style="fill: #b8860b; stroke: #b8860b"/>
     <use xlink:href="#md40e5a2983" x="284.75" y="151.530623" style="fill: #b8860b; stroke: #b8860b"/>
     <use xlink:href="#md40e5a2983" x="360.134848" y="152.693331" style="fill: #b8860b; stroke: #b8860b"/>
     <use xlink:href="#md40e5a2983" x="435.519697" y="155.771339" style="fill: #b8860b; stroke: #b8860b"/>
     <use xlink:href="#md40e5a2983" x="510.904545" y="139.121347" style="fill: #b8860b; stroke: #b8860b"/>
    </g>
   </g>
   <g id="line2d_27">
    <path d="M 58.595455 201.580965 
L 133.980303 179.527573 
L 209.365152 185.068575 
L 284.75 166.630438 
L 360.134848 166.217348 
L 435.519697 201.809554 
L 510.904545 170.612105 
" clip-path="url(#p4fb45f970b)" style="fill: none; stroke: #2a78d6; stroke-width: 2; stroke-linecap: round"/>
    <defs>
     <path id="m6370c8c92b" d="M 0 2.5 
C 0.663008 2.5 1.29895 2.236584 1.767767 1.767767 
C 2.236584 1.29895 2.5 0.663008 2.5 0 
C 2.5 -0.663008 2.236584 -1.29895 1.767767 -1.767767 
C 1.29895 -2.236584 0.663008 -2.5 0 -2.5 
C -0.663008 -2.5 -1.29895 -2.236584 -1.767767 -1.767767 
C -2.236584 -1.29895 -2.5 -0.663008 -2.5 0 
C -2.5 0.663008 -2.236584 1.29895 -1.767767 1.767767 
C -1.29895 2.236584 -0.663008 2.5 0 2.5 
z
" style="stroke: #2a78d6"/>
    </defs>
    <g clip-path="url(#p4fb45f970b)">
     <use xlink:href="#m6370c8c92b" x="58.595455" y="201.580965" style="fill: #2a78d6; stroke: #2a78d6"/>
     <use xlink:href="#m6370c8c92b" x="133.980303" y="179.527573" style="fill: #2a78d6; stroke: #2a78d6"/>
     <use xlink:href="#m6370c8c92b" x="209.365152" y="185.068575" style="fill: #2a78d6; stroke: #2a78d6"/>
     <use xlink:href="#m6370c8c92b" x="284.75" y="166.630438" style="fill: #2a78d6; stroke: #2a78d6"/>
     <use xlink:href="#m6370c8c92b" x="360.134848" y="166.217348" style="fill: #2a78d6; stroke: #2a78d6"/>
     <use xlink:href="#m6370c8c92b" x="435.519697" y="201.809554" style="fill: #2a78d6; stroke: #2a78d6"/>
     <use xlink:href="#m6370c8c92b" x="510.904545" y="170.612105" style="fill: #2a78d6; stroke: #2a78d6"/>
    </g>
   </g>
   <g id="patch_3">
    <path d="M 35.98 209.726281 
L 35.98 35.558281 
" style="fill: none; stroke: #c3c2b7; stroke-width: 0.8; stroke-linejoin: miter; stroke-linecap: square"/>
   </g>
   <g id="patch_4">
    <path d="M 35.98 209.726281 
L 533.52 209.726281 
" style="fill: none; stroke: #c3c2b7; stroke-width: 0.8; stroke-linejoin: miter; stroke-linecap: square"/>
   </g>
   <g id="text_16">
    <!-- 36.7% -->
    <g style="fill: #52514e" transform="translate(518.904545 45.682509) scale(0.08 -0.08)">
     <defs>
      <path id="DejaVuSans-2e" d="M 684 794 
L 1344 794 
L 1344 0 
L 684 0 
L 684 794 
z
" transform="scale(0.015625)"/>
      <path id="DejaVuSans-37" d="M 525 4666 
L 3525 4666 
L 3525 4397 
L 1831 0 
L 1172 0 
L 2766 4134 
L 525 4134 
L 525 4666 
z
" transform="scale(0.015625)"/>
     </defs>
     <use xlink:href="#DejaVuSans-33"/>
     <use xlink:href="#DejaVuSans-36" transform="translate(63.623047 0)"/>
     <use xlink:href="#DejaVuSans-2e" transform="translate(127.246094 0)"/>
     <use xlink:href="#DejaVuSans-37" transform="translate(159.033203 0)"/>
     <use xlink:href="#DejaVuSans-25" transform="translate(222.65625 0)"/>
    </g>
   </g>
   <g id="text_17">
    <!-- 13.8% -->
    <g style="fill: #52514e" transform="translate(518.904545 141.328847) scale(0.08 -0.08)">
     <defs>
      <path id="DejaVuSans-38" d="M 2034 2216 
Q 1584 2216 1326 1975 
Q 1069 1734 1069 1313 
Q 1069 891 1326 650 
Q 1584 409 2034 409 
Q 2484 409 2743 651 
Q 3003 894 3003 1313 
Q 3003 1734 2745 1975 
Q 2488 2216 2034 2216 
z
M 1403 2484 
Q 997 2584 770 2862 
Q 544 3141 544 3541 
Q 544 4100 942 4425 
Q 1341 4750 2034 4750 
Q 2731 4750 3128 4425 
Q 3525 4100 3525 3541 
Q 3525 3141 3298 2862 
Q 3072 2584 2669 2484 
Q 3125 2378 3379 2068 
Q 3634 1759 3634 1313 
Q 3634 634 3220 271 
Q 2806 -91 2034 -91 
Q 1263 -91 848 271 
Q 434 634 434 1313 
Q 434 1759 690 2068 
Q 947 2378 1403 2484 
z
M 1172 3481 
Q 1172 3119 1398 2916 
Q 1625 2713 2034 2713 
Q 2441 2713 2670 2916 
Q 2900 3119 2900 3481 
Q 2900 3844 2670 4047 
Q 2441 4250 2034 4250 
Q 1625 4250 1398 4047 
Q 1172 3844 1172 3481 
z
" transform="scale(0.015625)"/>
     </defs>
     <use xlink:href="#DejaVuSans-31"/>
     <use xlink:href="#DejaVuSans-33" transform="translate(63.623047 0)"/>
     <use xlink:href="#DejaVuSans-2e" transform="translate(127.246094 0)"/>
     <use xlink:href="#DejaVuSans-38" transform="translate(159.033203 0)"/>
     <use xlink:href="#DejaVuSans-25" transform="translate(222.65625 0)"/>
    </g>
   </g>
   <g id="text_18">
    <!-- 6.2% -->
    <g style="fill: #52514e" transform="translate(518.904545 172.819605) scale(0.08 -0.08)">
     <use xlink:href="#DejaVuSans-36"/>
     <use xlink:href="#DejaVuSans-2e" transform="translate(63.623047 0)"/>
     <use xlink:href="#DejaVuSans-32" transform="translate(95.410156 0)"/>
     <use xlink:href="#DejaVuSans-25" transform="translate(159.033203 0)"/>
    </g>
   </g>
   <g id="subtitle">
    <!-- GAAP gross and operating margin vs company non-GAAP operating margin (ex SBC, amortisation, special items) -->
    <g style="fill: #52514e" transform="translate(35.98 30.307187) scale(0.085 -0.085)">
     <defs>
      <path id="DejaVuSans-47" d="M 3809 666 
L 3809 1919 
L 2778 1919 
L 2778 2438 
L 4434 2438 
L 4434 434 
Q 4069 175 3628 42 
Q 3188 -91 2688 -91 
Q 1594 -91 976 548 
Q 359 1188 359 2328 
Q 359 3472 976 4111 
Q 1594 4750 2688 4750 
Q 3144 4750 3555 4637 
Q 3966 4525 4313 4306 
L 4313 3634 
Q 3963 3931 3569 4081 
Q 3175 4231 2741 4231 
Q 1884 4231 1454 3753 
Q 1025 3275 1025 2328 
Q 1025 1384 1454 906 
Q 1884 428 2741 428 
Q 3075 428 3337 486 
Q 3600 544 3809 666 
z
" transform="scale(0.015625)"/>
      <path id="DejaVuSans-41" d="M 2188 4044 
L 1331 1722 
L 3047 1722 
L 2188 4044 
z
M 1831 4666 
L 2547 4666 
L 4325 0 
L 3669 0 
L 3244 1197 
L 1141 1197 
L 716 0 
L 50 0 
L 1831 4666 
z
" transform="scale(0.015625)"/>
      <path id="DejaVuSans-50" d="M 1259 4147 
L 1259 2394 
L 2053 2394 
Q 2494 2394 2734 2622 
Q 2975 2850 2975 3272 
Q 2975 3691 2734 3919 
Q 2494 4147 2053 4147 
L 1259 4147 
z
M 628 4666 
L 2053 4666 
Q 2838 4666 3239 4311 
Q 3641 3956 3641 3272 
Q 3641 2581 3239 2228 
Q 2838 1875 2053 1875 
L 1259 1875 
L 1259 0 
L 628 0 
L 628 4666 
z
" transform="scale(0.015625)"/>
      <path id="DejaVuSans-67" d="M 2906 1791 
Q 2906 2416 2648 2759 
Q 2391 3103 1925 3103 
Q 1463 3103 1205 2759 
Q 947 2416 947 1791 
Q 947 1169 1205 825 
Q 1463 481 1925 481 
Q 2391 481 2648 825 
Q 2906 1169 2906 1791 
z
M 3481 434 
Q 3481 -459 3084 -895 
Q 2688 -1331 1869 -1331 
Q 1566 -1331 1297 -1286 
Q 1028 -1241 775 -1147 
L 775 -588 
Q 1028 -725 1275 -790 
Q 1522 -856 1778 -856 
Q 2344 -856 2625 -561 
Q 2906 -266 2906 331 
L 2906 616 
Q 2728 306 2450 153 
Q 2172 0 1784 0 
Q 1141 0 747 490 
Q 353 981 353 1791 
Q 353 2603 747 3093 
Q 1141 3584 1784 3584 
Q 2172 3584 2450 3431 
Q 2728 3278 2906 2969 
L 2906 3500 
L 3481 3500 
L 3481 434 
z
" transform="scale(0.015625)"/>
      <path id="DejaVuSans-72" d="M 2631 2963 
Q 2534 3019 2420 3045 
Q 2306 3072 2169 3072 
Q 1681 3072 1420 2755 
Q 1159 2438 1159 1844 
L 1159 0 
L 581 0 
L 581 3500 
L 1159 3500 
L 1159 2956 
Q 1341 3275 1631 3429 
Q 1922 3584 2338 3584 
Q 2397 3584 2469 3576 
Q 2541 3569 2628 3553 
L 2631 2963 
z
" transform="scale(0.015625)"/>
      <path id="DejaVuSans-6f" d="M 1959 3097 
Q 1497 3097 1228 2736 
Q 959 2375 959 1747 
Q 959 1119 1226 758 
Q 1494 397 1959 397 
Q 2419 397 2687 759 
Q 2956 1122 2956 1747 
Q 2956 2369 2687 2733 
Q 2419 3097 1959 3097 
z
M 1959 3584 
Q 2709 3584 3137 3096 
Q 3566 2609 3566 1747 
Q 3566 888 3137 398 
Q 2709 -91 1959 -91 
Q 1206 -91 779 398 
Q 353 888 353 1747 
Q 353 2609 779 3096 
Q 1206 3584 1959 3584 
z
" transform="scale(0.015625)"/>
      <path id="DejaVuSans-73" d="M 2834 3397 
L 2834 2853 
Q 2591 2978 2328 3040 
Q 2066 3103 1784 3103 
Q 1356 3103 1142 2972 
Q 928 2841 928 2578 
Q 928 2378 1081 2264 
Q 1234 2150 1697 2047 
L 1894 2003 
Q 2506 1872 2764 1633 
Q 3022 1394 3022 966 
Q 3022 478 2636 193 
Q 2250 -91 1575 -91 
Q 1294 -91 989 -36 
Q 684 19 347 128 
L 347 722 
Q 666 556 975 473 
Q 1284 391 1588 391 
Q 1994 391 2212 530 
Q 2431 669 2431 922 
Q 2431 1156 2273 1281 
Q 2116 1406 1581 1522 
L 1381 1569 
Q 847 1681 609 1914 
Q 372 2147 372 2553 
Q 372 3047 722 3315 
Q 1072 3584 1716 3584 
Q 2034 3584 2315 3537 
Q 2597 3491 2834 3397 
z
" transform="scale(0.015625)"/>
      <path id="DejaVuSans-61" d="M 2194 1759 
Q 1497 1759 1228 1600 
Q 959 1441 959 1056 
Q 959 750 1161 570 
Q 1363 391 1709 391 
Q 2188 391 2477 730 
Q 2766 1069 2766 1631 
L 2766 1759 
L 2194 1759 
z
M 3341 1997 
L 3341 0 
L 2766 0 
L 2766 531 
Q 2569 213 2275 61 
Q 1981 -91 1556 -91 
Q 1019 -91 701 211 
Q 384 513 384 1019 
Q 384 1609 779 1909 
Q 1175 2209 1959 2209 
L 2766 2209 
L 2766 2266 
Q 2766 2663 2505 2880 
Q 2244 3097 1772 3097 
Q 1472 3097 1187 3025 
Q 903 2953 641 2809 
L 641 3341 
Q 956 3463 1253 3523 
Q 1550 3584 1831 3584 
Q 2591 3584 2966 3190 
Q 3341 2797 3341 1997 
z
" transform="scale(0.015625)"/>
      <path id="DejaVuSans-6e" d="M 3513 2113 
L 3513 0 
L 2938 0 
L 2938 2094 
Q 2938 2591 2744 2837 
Q 2550 3084 2163 3084 
Q 1697 3084 1428 2787 
Q 1159 2491 1159 1978 
L 1159 0 
L 581 0 
L 581 3500 
L 1159 3500 
L 1159 2956 
Q 1366 3272 1645 3428 
Q 1925 3584 2291 3584 
Q 2894 3584 3203 3211 
Q 3513 2838 3513 2113 
z
" transform="scale(0.015625)"/>
      <path id="DejaVuSans-64" d="M 2906 2969 
L 2906 4863 
L 3481 4863 
L 3481 0 
L 2906 0 
L 2906 525 
Q 2725 213 2448 61 
Q 2172 -91 1784 -91 
Q 1150 -91 751 415 
Q 353 922 353 1747 
Q 353 2572 751 3078 
Q 1150 3584 1784 3584 
Q 2172 3584 2448 3432 
Q 2725 3281 2906 2969 
z
M 947 1747 
Q 947 1113 1208 752 
Q 1469 391 1925 391 
Q 2381 391 2643 752 
Q 2906 1113 2906 1747 
Q 2906 2381 2643 2742 
Q 2381 3103 1925 3103 
Q 1469 3103 1208 2742 
Q 947 2381 947 1747 
z
" transform="scale(0.015625)"/>
      <path id="DejaVuSans-70" d="M 1159 525 
L 1159 -1331 
L 581 -1331 
L 581 3500 
L 1159 3500 
L 1159 2969 
Q 1341 3281 1617 3432 
Q 1894 3584 2278 3584 
Q 2916 3584 3314 3078 
Q 3713 2572 3713 1747 
Q 3713 922 3314 415 
Q 2916 -91 2278 -91 
Q 1894 -91 1617 61 
Q 1341 213 1159 525 
z
M 3116 1747 
Q 3116 2381 2855 2742 
Q 2594 3103 2138 3103 
Q 1681 3103 1420 2742 
Q 1159 2381 1159 1747 
Q 1159 1113 1420 752 
Q 1681 391 2138 391 
Q 2594 391 2855 752 
Q 3116 1113 3116 1747 
z
" transform="scale(0.015625)"/>
      <path id="DejaVuSans-65" d="M 3597 1894 
L 3597 1613 
L 953 1613 
Q 991 1019 1311 708 
Q 1631 397 2203 397 
Q 2534 397 2845 478 
Q 3156 559 3463 722 
L 3463 178 
Q 3153 47 2828 -22 
Q 2503 -91 2169 -91 
Q 1331 -91 842 396 
Q 353 884 353 1716 
Q 353 2575 817 3079 
Q 1281 3584 2069 3584 
Q 2775 3584 3186 3129 
Q 3597 2675 3597 1894 
z
M 3022 2063 
Q 3016 2534 2758 2815 
Q 2500 3097 2075 3097 
Q 1594 3097 1305 2825 
Q 1016 2553 972 2059 
L 3022 2063 
z
" transform="scale(0.015625)"/>
      <path id="DejaVuSans-74" d="M 1172 4494 
L 1172 3500 
L 2356 3500 
L 2356 3053 
L 1172 3053 
L 1172 1153 
Q 1172 725 1289 603 
Q 1406 481 1766 481 
L 2356 481 
L 2356 0 
L 1766 0 
Q 1100 0 847 248 
Q 594 497 594 1153 
L 594 3053 
L 172 3053 
L 172 3500 
L 594 3500 
L 594 4494 
L 1172 4494 
z
" transform="scale(0.015625)"/>
      <path id="DejaVuSans-69" d="M 603 3500 
L 1178 3500 
L 1178 0 
L 603 0 
L 603 3500 
z
M 603 4863 
L 1178 4863 
L 1178 4134 
L 603 4134 
L 603 4863 
z
" transform="scale(0.015625)"/>
      <path id="DejaVuSans-6d" d="M 3328 2828 
Q 3544 3216 3844 3400 
Q 4144 3584 4550 3584 
Q 5097 3584 5394 3201 
Q 5691 2819 5691 2113 
L 5691 0 
L 5113 0 
L 5113 2094 
Q 5113 2597 4934 2840 
Q 4756 3084 4391 3084 
Q 3944 3084 3684 2787 
Q 3425 2491 3425 1978 
L 3425 0 
L 2847 0 
L 2847 2094 
Q 2847 2600 2669 2842 
Q 2491 3084 2119 3084 
Q 1678 3084 1418 2786 
Q 1159 2488 1159 1978 
L 1159 0 
L 581 0 
L 581 3500 
L 1159 3500 
L 1159 2956 
Q 1356 3278 1631 3431 
Q 1906 3584 2284 3584 
Q 2666 3584 2933 3390 
Q 3200 3197 3328 2828 
z
" transform="scale(0.015625)"/>
      <path id="DejaVuSans-76" d="M 191 3500 
L 800 3500 
L 1894 563 
L 2988 3500 
L 3597 3500 
L 2284 0 
L 1503 0 
L 191 3500 
z
" transform="scale(0.015625)"/>
      <path id="DejaVuSans-63" d="M 3122 3366 
L 3122 2828 
Q 2878 2963 2633 3030 
Q 2388 3097 2138 3097 
Q 1578 3097 1268 2742 
Q 959 2388 959 1747 
Q 959 1106 1268 751 
Q 1578 397 2138 397 
Q 2388 397 2633 464 
Q 2878 531 3122 666 
L 3122 134 
Q 2881 22 2623 -34 
Q 2366 -91 2075 -91 
Q 1284 -91 818 406 
Q 353 903 353 1747 
Q 353 2603 823 3093 
Q 1294 3584 2113 3584 
Q 2378 3584 2631 3529 
Q 2884 3475 3122 3366 
z
" transform="scale(0.015625)"/>
      <path id="DejaVuSans-79" d="M 2059 -325 
Q 1816 -950 1584 -1140 
Q 1353 -1331 966 -1331 
L 506 -1331 
L 506 -850 
L 844 -850 
Q 1081 -850 1212 -737 
Q 1344 -625 1503 -206 
L 1606 56 
L 191 3500 
L 800 3500 
L 1894 763 
L 2988 3500 
L 3597 3500 
L 2059 -325 
z
" transform="scale(0.015625)"/>
      <path id="DejaVuSans-2d" d="M 313 2009 
L 1997 2009 
L 1997 1497 
L 313 1497 
L 313 2009 
z
" transform="scale(0.015625)"/>
      <path id="DejaVuSans-28" d="M 1984 4856 
Q 1566 4138 1362 3434 
Q 1159 2731 1159 2009 
Q 1159 1288 1364 580 
Q 1569 -128 1984 -844 
L 1484 -844 
Q 1016 -109 783 600 
Q 550 1309 550 2009 
Q 550 2706 781 3412 
Q 1013 4119 1484 4856 
L 1984 4856 
z
" transform="scale(0.015625)"/>
      <path id="DejaVuSans-78" d="M 3513 3500 
L 2247 1797 
L 3578 0 
L 2900 0 
L 1881 1375 
L 863 0 
L 184 0 
L 1544 1831 
L 300 3500 
L 978 3500 
L 1906 2253 
L 2834 3500 
L 3513 3500 
z
" transform="scale(0.015625)"/>
      <path id="DejaVuSans-53" d="M 3425 4513 
L 3425 3897 
Q 3066 4069 2747 4153 
Q 2428 4238 2131 4238 
Q 1616 4238 1336 4038 
Q 1056 3838 1056 3469 
Q 1056 3159 1242 3001 
Q 1428 2844 1947 2747 
L 2328 2669 
Q 3034 2534 3370 2195 
Q 3706 1856 3706 1288 
Q 3706 609 3251 259 
Q 2797 -91 1919 -91 
Q 1588 -91 1214 -16 
Q 841 59 441 206 
L 441 856 
Q 825 641 1194 531 
Q 1563 422 1919 422 
Q 2459 422 2753 634 
Q 3047 847 3047 1241 
Q 3047 1584 2836 1778 
Q 2625 1972 2144 2069 
L 1759 2144 
Q 1053 2284 737 2584 
Q 422 2884 422 3419 
Q 422 4038 858 4394 
Q 1294 4750 2059 4750 
Q 2388 4750 2728 4690 
Q 3069 4631 3425 4513 
z
" transform="scale(0.015625)"/>
      <path id="DejaVuSans-42" d="M 1259 2228 
L 1259 519 
L 2272 519 
Q 2781 519 3026 730 
Q 3272 941 3272 1375 
Q 3272 1813 3026 2020 
Q 2781 2228 2272 2228 
L 1259 2228 
z
M 1259 4147 
L 1259 2741 
L 2194 2741 
Q 2656 2741 2882 2914 
Q 3109 3088 3109 3444 
Q 3109 3797 2882 3972 
Q 2656 4147 2194 4147 
L 1259 4147 
z
M 628 4666 
L 2241 4666 
Q 2963 4666 3353 4366 
Q 3744 4066 3744 3513 
Q 3744 3084 3544 2831 
Q 3344 2578 2956 2516 
Q 3422 2416 3680 2098 
Q 3938 1781 3938 1306 
Q 3938 681 3513 340 
Q 3088 0 2303 0 
L 628 0 
L 628 4666 
z
" transform="scale(0.015625)"/>
      <path id="DejaVuSans-43" d="M 4122 4306 
L 4122 3641 
Q 3803 3938 3442 4084 
Q 3081 4231 2675 4231 
Q 1875 4231 1450 3742 
Q 1025 3253 1025 2328 
Q 1025 1406 1450 917 
Q 1875 428 2675 428 
Q 3081 428 3442 575 
Q 3803 722 4122 1019 
L 4122 359 
Q 3791 134 3420 21 
Q 3050 -91 2638 -91 
Q 1578 -91 968 557 
Q 359 1206 359 2328 
Q 359 3453 968 4101 
Q 1578 4750 2638 4750 
Q 3056 4750 3426 4639 
Q 3797 4528 4122 4306 
z
" transform="scale(0.015625)"/>
      <path id="DejaVuSans-2c" d="M 750 794 
L 1409 794 
L 1409 256 
L 897 -744 
L 494 -744 
L 750 256 
L 750 794 
z
" transform="scale(0.015625)"/>
      <path id="DejaVuSans-6c" d="M 603 4863 
L 1178 4863 
L 1178 0 
L 603 0 
L 603 4863 
z
" transform="scale(0.015625)"/>
      <path id="DejaVuSans-29" d="M 513 4856 
L 1013 4856 
Q 1481 4119 1714 3412 
Q 1947 2706 1947 2009 
Q 1947 1309 1714 600 
Q 1481 -109 1013 -844 
L 513 -844 
Q 928 -128 1133 580 
Q 1338 1288 1338 2009 
Q 1338 2731 1133 3434 
Q 928 4138 513 4856 
z
" transform="scale(0.015625)"/>
     </defs>
     <use xlink:href="#DejaVuSans-47"/>
     <use xlink:href="#DejaVuSans-41" transform="translate(77.490234 0)"/>
     <use xlink:href="#DejaVuSans-41" transform="translate(148.648438 0)"/>
     <use xlink:href="#DejaVuSans-50" transform="translate(217.056641 0)"/>
     <use xlink:href="#DejaVuSans-20" transform="translate(277.359375 0)"/>
     <use xlink:href="#DejaVuSans-67" transform="translate(309.146484 0)"/>
     <use xlink:href="#DejaVuSans-72" transform="translate(372.623047 0)"/>
     <use xlink:href="#DejaVuSans-6f" transform="translate(411.486328 0)"/>
     <use xlink:href="#DejaVuSans-73" transform="translate(472.667969 0)"/>
     <use xlink:href="#DejaVuSans-73" transform="translate(524.767578 0)"/>
     <use xlink:href="#DejaVuSans-20" transform="translate(576.867188 0)"/>
     <use xlink:href="#DejaVuSans-61" transform="translate(608.654297 0)"/>
     <use xlink:href="#DejaVuSans-6e" transform="translate(669.933594 0)"/>
     <use xlink:href="#DejaVuSans-64" transform="translate(733.3125 0)"/>
     <use xlink:href="#DejaVuSans-20" transform="translate(796.789062 0)"/>
     <use xlink:href="#DejaVuSans-6f" transform="translate(828.576172 0)"/>
     <use xlink:href="#DejaVuSans-70" transform="translate(889.757812 0)"/>
     <use xlink:href="#DejaVuSans-65" transform="translate(953.234375 0)"/>
     <use xlink:href="#DejaVuSans-72" transform="translate(1014.757812 0)"/>
     <use xlink:href="#DejaVuSans-61" transform="translate(1055.871094 0)"/>
     <use xlink:href="#DejaVuSans-74" transform="translate(1117.150391 0)"/>
     <use xlink:href="#DejaVuSans-69" transform="translate(1156.359375 0)"/>
     <use xlink:href="#DejaVuSans-6e" transform="translate(1184.142578 0)"/>
     <use xlink:href="#DejaVuSans-67" transform="translate(1247.521484 0)"/>
     <use xlink:href="#DejaVuSans-20" transform="translate(1310.998047 0)"/>
     <use xlink:href="#DejaVuSans-6d" transform="translate(1342.785156 0)"/>
     <use xlink:href="#DejaVuSans-61" transform="translate(1440.197266 0)"/>
     <use xlink:href="#DejaVuSans-72" transform="translate(1501.476562 0)"/>
     <use xlink:href="#DejaVuSans-67" transform="translate(1540.839844 0)"/>
     <use xlink:href="#DejaVuSans-69" transform="translate(1604.316406 0)"/>
     <use xlink:href="#DejaVuSans-6e" transform="translate(1632.099609 0)"/>
     <use xlink:href="#DejaVuSans-20" transform="translate(1695.478516 0)"/>
     <use xlink:href="#DejaVuSans-76" transform="translate(1727.265625 0)"/>
     <use xlink:href="#DejaVuSans-73" transform="translate(1786.445312 0)"/>
     <use xlink:href="#DejaVuSans-20" transform="translate(1838.544922 0)"/>
     <use xlink:href="#DejaVuSans-63" transform="translate(1870.332031 0)"/>
     <use xlink:href="#DejaVuSans-6f" transform="translate(1925.3125 0)"/>
     <use xlink:href="#DejaVuSans-6d" transform="translate(1986.494141 0)"/>
     <use xlink:href="#DejaVuSans-70" transform="translate(2083.90625 0)"/>
     <use xlink:href="#DejaVuSans-61" transform="translate(2147.382812 0)"/>
     <use xlink:href="#DejaVuSans-6e" transform="translate(2208.662109 0)"/>
     <use xlink:href="#DejaVuSans-79" transform="translate(2272.041016 0)"/>
     <use xlink:href="#DejaVuSans-20" transform="translate(2331.220703 0)"/>
     <use xlink:href="#DejaVuSans-6e" transform="translate(2363.007812 0)"/>
     <use xlink:href="#DejaVuSans-6f" transform="translate(2426.386719 0)"/>
     <use xlink:href="#DejaVuSans-6e" transform="translate(2487.568359 0)"/>
     <use xlink:href="#DejaVuSans-2d" transform="translate(2550.947266 0)"/>
     <use xlink:href="#DejaVuSans-47" transform="translate(2590.65625 0)"/>
     <use xlink:href="#DejaVuSans-41" transform="translate(2668.146484 0)"/>
     <use xlink:href="#DejaVuSans-41" transform="translate(2739.304688 0)"/>
     <use xlink:href="#DejaVuSans-50" transform="translate(2807.712891 0)"/>
     <use xlink:href="#DejaVuSans-20" transform="translate(2868.015625 0)"/>
     <use xlink:href="#DejaVuSans-6f" transform="translate(2899.802734 0)"/>
     <use xlink:href="#DejaVuSans-70" transform="translate(2960.984375 0)"/>
     <use xlink:href="#DejaVuSans-65" transform="translate(3024.460938 0)"/>
     <use xlink:href="#DejaVuSans-72" transform="translate(3085.984375 0)"/>
     <use xlink:href="#DejaVuSans-61" transform="translate(3127.097656 0)"/>
     <use xlink:href="#DejaVuSans-74" transform="translate(3188.376953 0)"/>
     <use xlink:href="#DejaVuSans-69" transform="translate(3227.585938 0)"/>
     <use xlink:href="#DejaVuSans-6e" transform="translate(3255.369141 0)"/>
     <use xlink:href="#DejaVuSans-67" transform="translate(3318.748047 0)"/>
     <use xlink:href="#DejaVuSans-20" transform="translate(3382.224609 0)"/>
     <use xlink:href="#DejaVuSans-6d" transform="translate(3414.011719 0)"/>
     <use xlink:href="#DejaVuSans-61" transform="translate(3511.423828 0)"/>
     <use xlink:href="#DejaVuSans-72" transform="translate(3572.703125 0)"/>
     <use xlink:href="#DejaVuSans-67" transform="translate(3612.066406 0)"/>
     <use xlink:href="#DejaVuSans-69" transform="translate(3675.542969 0)"/>
     <use xlink:href="#DejaVuSans-6e" transform="translate(3703.326172 0)"/>
     <use xlink:href="#DejaVuSans-20" transform="translate(3766.705078 0)"/>
     <use xlink:href="#DejaVuSans-28" transform="translate(3798.492188 0)"/>
     <use xlink:href="#DejaVuSans-65" transform="translate(3837.505859 0)"/>
     <use xlink:href="#DejaVuSans-78" transform="translate(3897.279297 0)"/>
     <use xlink:href="#DejaVuSans-20" transform="translate(3956.458984 0)"/>
     <use xlink:href="#DejaVuSans-53" transform="translate(3988.246094 0)"/>
     <use xlink:href="#DejaVuSans-42" transform="translate(4051.722656 0)"/>
     <use xlink:href="#DejaVuSans-43" transform="translate(4118.576172 0)"/>
     <use xlink:href="#DejaVuSans-2c" transform="translate(4188.400391 0)"/>
     <use xlink:href="#DejaVuSans-20" transform="translate(4220.1875 0)"/>
     <use xlink:href="#DejaVuSans-61" transform="translate(4251.974609 0)"/>
     <use xlink:href="#DejaVuSans-6d" transform="translate(4313.253906 0)"/>
     <use xlink:href="#DejaVuSans-6f" transform="translate(4410.666016 0)"/>
     <use xlink:href="#DejaVuSans-72" transform="translate(4471.847656 0)"/>
     <use xlink:href="#DejaVuSans-74" transform="translate(4512.960938 0)"/>
     <use xlink:href="#DejaVuSans-69" transform="translate(4552.169922 0)"/>
     <use xlink:href="#DejaVuSans-73" transform="translate(4579.953125 0)"/>
     <use xlink:href="#DejaVuSans-61" transform="translate(4632.052734 0)"/>
     <use xlink:href="#DejaVuSans-74" transform="translate(4693.332031 0)"/>
     <use xlink:href="#DejaVuSans-69" transform="translate(4732.541016 0)"/>
     <use xlink:href="#DejaVuSans-6f" transform="translate(4760.324219 0)"/>
     <use xlink:href="#DejaVuSans-6e" transform="translate(4821.505859 0)"/>
     <use xlink:href="#DejaVuSans-2c" transform="translate(4884.884766 0)"/>
     <use xlink:href="#DejaVuSans-20" transform="translate(4916.671875 0)"/>
     <use xlink:href="#DejaVuSans-73" transform="translate(4948.458984 0)"/>
     <use xlink:href="#DejaVuSans-70" transform="translate(5000.558594 0)"/>
     <use xlink:href="#DejaVuSans-65" transform="translate(5064.035156 0)"/>
     <use xlink:href="#DejaVuSans-63" transform="translate(5125.558594 0)"/>
     <use xlink:href="#DejaVuSans-69" transform="translate(5180.539062 0)"/>
     <use xlink:href="#DejaVuSans-61" transform="translate(5208.322266 0)"/>
     <use xlink:href="#DejaVuSans-6c" transform="translate(5269.601562 0)"/>
     <use xlink:href="#DejaVuSans-20" transform="translate(5297.384766 0)"/>
     <use xlink:href="#DejaVuSans-69" transform="translate(5329.171875 0)"/>
     <use xlink:href="#DejaVuSans-74" transform="translate(5356.955078 0)"/>
     <use xlink:href="#DejaVuSans-65" transform="translate(5396.164062 0)"/>
     <use xlink:href="#DejaVuSans-6d" transform="translate(5457.6875 0)"/>
     <use xlink:href="#DejaVuSans-73" transform="translate(5555.099609 0)"/>
     <use xlink:href="#DejaVuSans-29" transform="translate(5607.199219 0)"/>
    </g>
   </g>
   <g id="text_19">
    <!-- Margins troughed in FY25 on Juniper costs and impairments, then rebounded -->
    <g style="fill: #0b0b0b" transform="translate(35.98 15.558281) scale(0.11 -0.11)">
     <defs>
      <path id="DejaVuSans-Bold-4d" d="M 588 4666 
L 2119 4666 
L 3181 2169 
L 4250 4666 
L 5778 4666 
L 5778 0 
L 4641 0 
L 4641 3413 
L 3566 897 
L 2803 897 
L 1728 3413 
L 1728 0 
L 588 0 
L 588 4666 
z
" transform="scale(0.015625)"/>
      <path id="DejaVuSans-Bold-61" d="M 2106 1575 
Q 1756 1575 1579 1456 
Q 1403 1338 1403 1106 
Q 1403 894 1545 773 
Q 1688 653 1941 653 
Q 2256 653 2472 879 
Q 2688 1106 2688 1447 
L 2688 1575 
L 2106 1575 
z
M 3816 1997 
L 3816 0 
L 2688 0 
L 2688 519 
Q 2463 200 2181 54 
Q 1900 -91 1497 -91 
Q 953 -91 614 226 
Q 275 544 275 1050 
Q 275 1666 698 1953 
Q 1122 2241 2028 2241 
L 2688 2241 
L 2688 2328 
Q 2688 2594 2478 2717 
Q 2269 2841 1825 2841 
Q 1466 2841 1156 2769 
Q 847 2697 581 2553 
L 581 3406 
Q 941 3494 1303 3539 
Q 1666 3584 2028 3584 
Q 2975 3584 3395 3211 
Q 3816 2838 3816 1997 
z
" transform="scale(0.015625)"/>
      <path id="DejaVuSans-Bold-72" d="M 3138 2547 
Q 2991 2616 2845 2648 
Q 2700 2681 2553 2681 
Q 2122 2681 1889 2404 
Q 1656 2128 1656 1613 
L 1656 0 
L 538 0 
L 538 3500 
L 1656 3500 
L 1656 2925 
Q 1872 3269 2151 3426 
Q 2431 3584 2822 3584 
Q 2878 3584 2943 3579 
Q 3009 3575 3134 3559 
L 3138 2547 
z
" transform="scale(0.015625)"/>
      <path id="DejaVuSans-Bold-67" d="M 2919 594 
Q 2688 288 2409 144 
Q 2131 0 1766 0 
Q 1125 0 706 504 
Q 288 1009 288 1791 
Q 288 2575 706 3076 
Q 1125 3578 1766 3578 
Q 2131 3578 2409 3434 
Q 2688 3291 2919 2981 
L 2919 3500 
L 4044 3500 
L 4044 353 
Q 4044 -491 3511 -936 
Q 2978 -1381 1966 -1381 
Q 1638 -1381 1331 -1331 
Q 1025 -1281 716 -1178 
L 716 -306 
Q 1009 -475 1290 -558 
Q 1572 -641 1856 -641 
Q 2406 -641 2662 -400 
Q 2919 -159 2919 353 
L 2919 594 
z
M 2181 2772 
Q 1834 2772 1640 2515 
Q 1447 2259 1447 1791 
Q 1447 1309 1634 1061 
Q 1822 813 2181 813 
Q 2531 813 2725 1069 
Q 2919 1325 2919 1791 
Q 2919 2259 2725 2515 
Q 2531 2772 2181 2772 
z
" transform="scale(0.015625)"/>
      <path id="DejaVuSans-Bold-69" d="M 538 3500 
L 1656 3500 
L 1656 0 
L 538 0 
L 538 3500 
z
M 538 4863 
L 1656 4863 
L 1656 3950 
L 538 3950 
L 538 4863 
z
" transform="scale(0.015625)"/>
      <path id="DejaVuSans-Bold-6e" d="M 4056 2131 
L 4056 0 
L 2931 0 
L 2931 347 
L 2931 1631 
Q 2931 2084 2911 2256 
Q 2891 2428 2841 2509 
Q 2775 2619 2662 2680 
Q 2550 2741 2406 2741 
Q 2056 2741 1856 2470 
Q 1656 2200 1656 1722 
L 1656 0 
L 538 0 
L 538 3500 
L 1656 3500 
L 1656 2988 
Q 1909 3294 2193 3439 
Q 2478 3584 2822 3584 
Q 3428 3584 3742 3212 
Q 4056 2841 4056 2131 
z
" transform="scale(0.015625)"/>
      <path id="DejaVuSans-Bold-73" d="M 3272 3391 
L 3272 2541 
Q 2913 2691 2578 2766 
Q 2244 2841 1947 2841 
Q 1628 2841 1473 2761 
Q 1319 2681 1319 2516 
Q 1319 2381 1436 2309 
Q 1553 2238 1856 2203 
L 2053 2175 
Q 2913 2066 3209 1816 
Q 3506 1566 3506 1031 
Q 3506 472 3093 190 
Q 2681 -91 1863 -91 
Q 1516 -91 1145 -36 
Q 775 19 384 128 
L 384 978 
Q 719 816 1070 734 
Q 1422 653 1784 653 
Q 2113 653 2278 743 
Q 2444 834 2444 1013 
Q 2444 1163 2330 1236 
Q 2216 1309 1875 1350 
L 1678 1375 
Q 931 1469 631 1722 
Q 331 1975 331 2491 
Q 331 3047 712 3315 
Q 1094 3584 1881 3584 
Q 2191 3584 2531 3537 
Q 2872 3491 3272 3391 
z
" transform="scale(0.015625)"/>
      <path id="DejaVuSans-Bold-20" transform="scale(0.015625)"/>
      <path id="DejaVuSans-Bold-74" d="M 1759 4494 
L 1759 3500 
L 2913 3500 
L 2913 2700 
L 1759 2700 
L 1759 1216 
Q 1759 972 1856 886 
Q 1953 800 2241 800 
L 2816 800 
L 2816 0 
L 1856 0 
Q 1194 0 917 276 
Q 641 553 641 1216 
L 641 2700 
L 84 2700 
L 84 3500 
L 641 3500 
L 641 4494 
L 1759 4494 
z
" transform="scale(0.015625)"/>
      <path id="DejaVuSans-Bold-6f" d="M 2203 2784 
Q 1831 2784 1636 2517 
Q 1441 2250 1441 1747 
Q 1441 1244 1636 976 
Q 1831 709 2203 709 
Q 2569 709 2762 976 
Q 2956 1244 2956 1747 
Q 2956 2250 2762 2517 
Q 2569 2784 2203 2784 
z
M 2203 3584 
Q 3106 3584 3614 3096 
Q 4122 2609 4122 1747 
Q 4122 884 3614 396 
Q 3106 -91 2203 -91 
Q 1297 -91 786 396 
Q 275 884 275 1747 
Q 275 2609 786 3096 
Q 1297 3584 2203 3584 
z
" transform="scale(0.015625)"/>
      <path id="DejaVuSans-Bold-75" d="M 500 1363 
L 500 3500 
L 1625 3500 
L 1625 3150 
Q 1625 2866 1622 2436 
Q 1619 2006 1619 1863 
Q 1619 1441 1641 1255 
Q 1663 1069 1716 984 
Q 1784 875 1895 815 
Q 2006 756 2150 756 
Q 2500 756 2700 1025 
Q 2900 1294 2900 1772 
L 2900 3500 
L 4019 3500 
L 4019 0 
L 2900 0 
L 2900 506 
Q 2647 200 2364 54 
Q 2081 -91 1741 -91 
Q 1134 -91 817 281 
Q 500 653 500 1363 
z
" transform="scale(0.015625)"/>
      <path id="DejaVuSans-Bold-68" d="M 4056 2131 
L 4056 0 
L 2931 0 
L 2931 347 
L 2931 1625 
Q 2931 2084 2911 2256 
Q 2891 2428 2841 2509 
Q 2775 2619 2662 2680 
Q 2550 2741 2406 2741 
Q 2056 2741 1856 2470 
Q 1656 2200 1656 1722 
L 1656 0 
L 538 0 
L 538 4863 
L 1656 4863 
L 1656 2988 
Q 1909 3294 2193 3439 
Q 2478 3584 2822 3584 
Q 3428 3584 3742 3212 
Q 4056 2841 4056 2131 
z
" transform="scale(0.015625)"/>
      <path id="DejaVuSans-Bold-65" d="M 4031 1759 
L 4031 1441 
L 1416 1441 
Q 1456 1047 1700 850 
Q 1944 653 2381 653 
Q 2734 653 3104 758 
Q 3475 863 3866 1075 
L 3866 213 
Q 3469 63 3072 -14 
Q 2675 -91 2278 -91 
Q 1328 -91 801 392 
Q 275 875 275 1747 
Q 275 2603 792 3093 
Q 1309 3584 2216 3584 
Q 3041 3584 3536 3087 
Q 4031 2591 4031 1759 
z
M 2881 2131 
Q 2881 2450 2695 2645 
Q 2509 2841 2209 2841 
Q 1884 2841 1681 2658 
Q 1478 2475 1428 2131 
L 2881 2131 
z
" transform="scale(0.015625)"/>
      <path id="DejaVuSans-Bold-64" d="M 2919 2988 
L 2919 4863 
L 4044 4863 
L 4044 0 
L 2919 0 
L 2919 506 
Q 2688 197 2409 53 
Q 2131 -91 1766 -91 
Q 1119 -91 703 423 
Q 288 938 288 1747 
Q 288 2556 703 3070 
Q 1119 3584 1766 3584 
Q 2128 3584 2408 3439 
Q 2688 3294 2919 2988 
z
M 2181 722 
Q 2541 722 2730 984 
Q 2919 1247 2919 1747 
Q 2919 2247 2730 2509 
Q 2541 2772 2181 2772 
Q 1825 2772 1636 2509 
Q 1447 2247 1447 1747 
Q 1447 1247 1636 984 
Q 1825 722 2181 722 
z
" transform="scale(0.015625)"/>
      <path id="DejaVuSans-Bold-46" d="M 588 4666 
L 3834 4666 
L 3834 3756 
L 1791 3756 
L 1791 2888 
L 3713 2888 
L 3713 1978 
L 1791 1978 
L 1791 0 
L 588 0 
L 588 4666 
z
" transform="scale(0.015625)"/>
      <path id="DejaVuSans-Bold-59" d="M -63 4666 
L 1253 4666 
L 2316 3003 
L 3378 4666 
L 4697 4666 
L 2919 1966 
L 2919 0 
L 1716 0 
L 1716 1966 
L -63 4666 
z
" transform="scale(0.015625)"/>
      <path id="DejaVuSans-Bold-32" d="M 1844 884 
L 3897 884 
L 3897 0 
L 506 0 
L 506 884 
L 2209 2388 
Q 2438 2594 2547 2791 
Q 2656 2988 2656 3200 
Q 2656 3528 2436 3728 
Q 2216 3928 1850 3928 
Q 1569 3928 1234 3808 
Q 900 3688 519 3450 
L 519 4475 
Q 925 4609 1322 4679 
Q 1719 4750 2100 4750 
Q 2938 4750 3402 4381 
Q 3866 4013 3866 3353 
Q 3866 2972 3669 2642 
Q 3472 2313 2841 1759 
L 1844 884 
z
" transform="scale(0.015625)"/>
      <path id="DejaVuSans-Bold-35" d="M 678 4666 
L 3669 4666 
L 3669 3781 
L 1638 3781 
L 1638 3059 
Q 1775 3097 1914 3117 
Q 2053 3138 2203 3138 
Q 3056 3138 3531 2711 
Q 4006 2284 4006 1522 
Q 4006 766 3489 337 
Q 2972 -91 2053 -91 
Q 1656 -91 1267 -14 
Q 878 63 494 219 
L 494 1166 
Q 875 947 1217 837 
Q 1559 728 1863 728 
Q 2300 728 2551 942 
Q 2803 1156 2803 1522 
Q 2803 1891 2551 2103 
Q 2300 2316 1863 2316 
Q 1603 2316 1309 2248 
Q 1016 2181 678 2041 
L 678 4666 
z
" transform="scale(0.015625)"/>
      <path id="DejaVuSans-Bold-4a" d="M 588 4666 
L 1791 4666 
L 1791 453 
Q 1791 -419 1317 -850 
Q 844 -1281 -116 -1281 
L -359 -1281 
L -359 -372 
L -172 -372 
Q 203 -372 395 -162 
Q 588 47 588 453 
L 588 4666 
z
" transform="scale(0.015625)"/>
      <path id="DejaVuSans-Bold-70" d="M 1656 506 
L 1656 -1331 
L 538 -1331 
L 538 3500 
L 1656 3500 
L 1656 2988 
Q 1888 3294 2169 3439 
Q 2450 3584 2816 3584 
Q 3463 3584 3878 3070 
Q 4294 2556 4294 1747 
Q 4294 938 3878 423 
Q 3463 -91 2816 -91 
Q 2450 -91 2169 54 
Q 1888 200 1656 506 
z
M 2400 2772 
Q 2041 2772 1848 2508 
Q 1656 2244 1656 1747 
Q 1656 1250 1848 986 
Q 2041 722 2400 722 
Q 2759 722 2948 984 
Q 3138 1247 3138 1747 
Q 3138 2247 2948 2509 
Q 2759 2772 2400 2772 
z
" transform="scale(0.015625)"/>
      <path id="DejaVuSans-Bold-63" d="M 3366 3391 
L 3366 2478 
Q 3138 2634 2908 2709 
Q 2678 2784 2431 2784 
Q 1963 2784 1702 2511 
Q 1441 2238 1441 1747 
Q 1441 1256 1702 982 
Q 1963 709 2431 709 
Q 2694 709 2930 787 
Q 3166 866 3366 1019 
L 3366 103 
Q 3103 6 2833 -42 
Q 2563 -91 2291 -91 
Q 1344 -91 809 395 
Q 275 881 275 1747 
Q 275 2613 809 3098 
Q 1344 3584 2291 3584 
Q 2566 3584 2833 3536 
Q 3100 3488 3366 3391 
z
" transform="scale(0.015625)"/>
      <path id="DejaVuSans-Bold-6d" d="M 3781 2919 
Q 3994 3244 4286 3414 
Q 4578 3584 4928 3584 
Q 5531 3584 5847 3212 
Q 6163 2841 6163 2131 
L 6163 0 
L 5038 0 
L 5038 1825 
Q 5041 1866 5042 1909 
Q 5044 1953 5044 2034 
Q 5044 2406 4934 2573 
Q 4825 2741 4581 2741 
Q 4263 2741 4089 2478 
Q 3916 2216 3909 1719 
L 3909 0 
L 2784 0 
L 2784 1825 
Q 2784 2406 2684 2573 
Q 2584 2741 2328 2741 
Q 2006 2741 1831 2477 
Q 1656 2213 1656 1722 
L 1656 0 
L 531 0 
L 531 3500 
L 1656 3500 
L 1656 2988 
Q 1863 3284 2130 3434 
Q 2397 3584 2719 3584 
Q 3081 3584 3359 3409 
Q 3638 3234 3781 2919 
z
" transform="scale(0.015625)"/>
      <path id="DejaVuSans-Bold-2c" d="M 653 1209 
L 1778 1209 
L 1778 256 
L 1006 -909 
L 341 -909 
L 653 256 
L 653 1209 
z
" transform="scale(0.015625)"/>
      <path id="DejaVuSans-Bold-62" d="M 2400 722 
Q 2759 722 2948 984 
Q 3138 1247 3138 1747 
Q 3138 2247 2948 2509 
Q 2759 2772 2400 2772 
Q 2041 2772 1848 2508 
Q 1656 2244 1656 1747 
Q 1656 1250 1848 986 
Q 2041 722 2400 722 
z
M 1656 2988 
Q 1888 3294 2169 3439 
Q 2450 3584 2816 3584 
Q 3463 3584 3878 3070 
Q 4294 2556 4294 1747 
Q 4294 938 3878 423 
Q 3463 -91 2816 -91 
Q 2450 -91 2169 54 
Q 1888 200 1656 506 
L 1656 0 
L 538 0 
L 538 4863 
L 1656 4863 
L 1656 2988 
z
" transform="scale(0.015625)"/>
     </defs>
     <use xlink:href="#DejaVuSans-Bold-4d"/>
     <use xlink:href="#DejaVuSans-Bold-61" transform="translate(99.511719 0)"/>
     <use xlink:href="#DejaVuSans-Bold-72" transform="translate(166.992188 0)"/>
     <use xlink:href="#DejaVuSans-Bold-67" transform="translate(216.308594 0)"/>
     <use xlink:href="#DejaVuSans-Bold-69" transform="translate(287.890625 0)"/>
     <use xlink:href="#DejaVuSans-Bold-6e" transform="translate(322.167969 0)"/>
     <use xlink:href="#DejaVuSans-Bold-73" transform="translate(393.359375 0)"/>
     <use xlink:href="#DejaVuSans-Bold-20" transform="translate(452.880859 0)"/>
     <use xlink:href="#DejaVuSans-Bold-74" transform="translate(487.695312 0)"/>
     <use xlink:href="#DejaVuSans-Bold-72" transform="translate(535.498047 0)"/>
     <use xlink:href="#DejaVuSans-Bold-6f" transform="translate(584.814453 0)"/>
     <use xlink:href="#DejaVuSans-Bold-75" transform="translate(653.515625 0)"/>
     <use xlink:href="#DejaVuSans-Bold-67" transform="translate(724.707031 0)"/>
     <use xlink:href="#DejaVuSans-Bold-68" transform="translate(796.289062 0)"/>
     <use xlink:href="#DejaVuSans-Bold-65" transform="translate(867.480469 0)"/>
     <use xlink:href="#DejaVuSans-Bold-64" transform="translate(935.302734 0)"/>
     <use xlink:href="#DejaVuSans-Bold-20" transform="translate(1006.884766 0)"/>
     <use xlink:href="#DejaVuSans-Bold-69" transform="translate(1041.699219 0)"/>
     <use xlink:href="#DejaVuSans-Bold-6e" transform="translate(1075.976562 0)"/>
     <use xlink:href="#DejaVuSans-Bold-20" transform="translate(1147.167969 0)"/>
     <use xlink:href="#DejaVuSans-Bold-46" transform="translate(1181.982422 0)"/>
     <use xlink:href="#DejaVuSans-Bold-59" transform="translate(1250.292969 0)"/>
     <use xlink:href="#DejaVuSans-Bold-32" transform="translate(1322.705078 0)"/>
     <use xlink:href="#DejaVuSans-Bold-35" transform="translate(1392.285156 0)"/>
     <use xlink:href="#DejaVuSans-Bold-20" transform="translate(1461.865234 0)"/>
     <use xlink:href="#DejaVuSans-Bold-6f" transform="translate(1496.679688 0)"/>
     <use xlink:href="#DejaVuSans-Bold-6e" transform="translate(1565.380859 0)"/>
     <use xlink:href="#DejaVuSans-Bold-20" transform="translate(1636.572266 0)"/>
     <use xlink:href="#DejaVuSans-Bold-4a" transform="translate(1671.386719 0)"/>
     <use xlink:href="#DejaVuSans-Bold-75" transform="translate(1708.59375 0)"/>
     <use xlink:href="#DejaVuSans-Bold-6e" transform="translate(1779.785156 0)"/>
     <use xlink:href="#DejaVuSans-Bold-69" transform="translate(1850.976562 0)"/>
     <use xlink:href="#DejaVuSans-Bold-70" transform="translate(1885.253906 0)"/>
     <use xlink:href="#DejaVuSans-Bold-65" transform="translate(1956.835938 0)"/>
     <use xlink:href="#DejaVuSans-Bold-72" transform="translate(2024.658203 0)"/>
     <use xlink:href="#DejaVuSans-Bold-20" transform="translate(2073.974609 0)"/>
     <use xlink:href="#DejaVuSans-Bold-63" transform="translate(2108.789062 0)"/>
     <use xlink:href="#DejaVuSans-Bold-6f" transform="translate(2168.066406 0)"/>
     <use xlink:href="#DejaVuSans-Bold-73" transform="translate(2236.767578 0)"/>
     <use xlink:href="#DejaVuSans-Bold-74" transform="translate(2296.289062 0)"/>
     <use xlink:href="#DejaVuSans-Bold-73" transform="translate(2344.091797 0)"/>
     <use xlink:href="#DejaVuSans-Bold-20" transform="translate(2403.613281 0)"/>
     <use xlink:href="#DejaVuSans-Bold-61" transform="translate(2438.427734 0)"/>
     <use xlink:href="#DejaVuSans-Bold-6e" transform="translate(2505.908203 0)"/>
     <use xlink:href="#DejaVuSans-Bold-64" transform="translate(2577.099609 0)"/>
     <use xlink:href="#DejaVuSans-Bold-20" transform="translate(2648.681641 0)"/>
     <use xlink:href="#DejaVuSans-Bold-69" transform="translate(2683.496094 0)"/>
     <use xlink:href="#DejaVuSans-Bold-6d" transform="translate(2717.773438 0)"/>
     <use xlink:href="#DejaVuSans-Bold-70" transform="translate(2821.972656 0)"/>
     <use xlink:href="#DejaVuSans-Bold-61" transform="translate(2893.554688 0)"/>
     <use xlink:href="#DejaVuSans-Bold-69" transform="translate(2961.035156 0)"/>
     <use xlink:href="#DejaVuSans-Bold-72" transform="translate(2995.3125 0)"/>
     <use xlink:href="#DejaVuSans-Bold-6d" transform="translate(3044.628906 0)"/>
     <use xlink:href="#DejaVuSans-Bold-65" transform="translate(3148.828125 0)"/>
     <use xlink:href="#DejaVuSans-Bold-6e" transform="translate(3216.650391 0)"/>
     <use xlink:href="#DejaVuSans-Bold-74" transform="translate(3287.841797 0)"/>
     <use xlink:href="#DejaVuSans-Bold-73" transform="translate(3335.644531 0)"/>
     <use xlink:href="#DejaVuSans-Bold-2c" transform="translate(3395.166016 0)"/>
     <use xlink:href="#DejaVuSans-Bold-20" transform="translate(3433.154297 0)"/>
     <use xlink:href="#DejaVuSans-Bold-74" transform="translate(3467.96875 0)"/>
     <use xlink:href="#DejaVuSans-Bold-68" transform="translate(3515.771484 0)"/>
     <use xlink:href="#DejaVuSans-Bold-65" transform="translate(3586.962891 0)"/>
     <use xlink:href="#DejaVuSans-Bold-6e" transform="translate(3654.785156 0)"/>
     <use xlink:href="#DejaVuSans-Bold-20" transform="translate(3725.976562 0)"/>
     <use xlink:href="#DejaVuSans-Bold-72" transform="translate(3760.791016 0)"/>
     <use xlink:href="#DejaVuSans-Bold-65" transform="translate(3810.107422 0)"/>
     <use xlink:href="#DejaVuSans-Bold-62" transform="translate(3877.929688 0)"/>
     <use xlink:href="#DejaVuSans-Bold-6f" transform="translate(3949.511719 0)"/>
     <use xlink:href="#DejaVuSans-Bold-75" transform="translate(4018.212891 0)"/>
     <use xlink:href="#DejaVuSans-Bold-6e" transform="translate(4089.404297 0)"/>
     <use xlink:href="#DejaVuSans-Bold-64" transform="translate(4160.595703 0)"/>
     <use xlink:href="#DejaVuSans-Bold-65" transform="translate(4232.177734 0)"/>
     <use xlink:href="#DejaVuSans-Bold-64" transform="translate(4300 0)"/>
    </g>
   </g>
   <g id="legend_1">
    <g id="line2d_28">
     <path d="M 43.18 89.407121 
L 51.18 89.407121 
L 59.18 89.407121 
" style="fill: none; stroke: #2d7d46; stroke-width: 2; stroke-linecap: round"/>
     <g>
      <use xlink:href="#m9483be984b" x="51.18" y="89.407121" style="fill: #2d7d46; stroke: #2d7d46"/>
     </g>
    </g>
    <g id="text_20">
     <!-- GAAP gross margin -->
     <g transform="translate(65.58 92.207121) scale(0.08 -0.08)">
      <use xlink:href="#DejaVuSans-47"/>
      <use xlink:href="#DejaVuSans-41" transform="translate(77.490234 0)"/>
      <use xlink:href="#DejaVuSans-41" transform="translate(148.648438 0)"/>
      <use xlink:href="#DejaVuSans-50" transform="translate(217.056641 0)"/>
      <use xlink:href="#DejaVuSans-20" transform="translate(277.359375 0)"/>
      <use xlink:href="#DejaVuSans-67" transform="translate(309.146484 0)"/>
      <use xlink:href="#DejaVuSans-72" transform="translate(372.623047 0)"/>
      <use xlink:href="#DejaVuSans-6f" transform="translate(411.486328 0)"/>
      <use xlink:href="#DejaVuSans-73" transform="translate(472.667969 0)"/>
      <use xlink:href="#DejaVuSans-73" transform="translate(524.767578 0)"/>
      <use xlink:href="#DejaVuSans-20" transform="translate(576.867188 0)"/>
      <use xlink:href="#DejaVuSans-6d" transform="translate(608.654297 0)"/>
      <use xlink:href="#DejaVuSans-61" transform="translate(706.066406 0)"/>
      <use xlink:href="#DejaVuSans-72" transform="translate(767.345703 0)"/>
      <use xlink:href="#DejaVuSans-67" transform="translate(806.708984 0)"/>
      <use xlink:href="#DejaVuSans-69" transform="translate(870.185547 0)"/>
      <use xlink:href="#DejaVuSans-6e" transform="translate(897.96875 0)"/>
     </g>
    </g>
    <g id="line2d_29">
     <path d="M 43.18 101.149621 
L 51.18 101.149621 
L 59.18 101.149621 
" style="fill: none; stroke: #b8860b; stroke-width: 2; stroke-linecap: round"/>
     <g>
      <use xlink:href="#md40e5a2983" x="51.18" y="101.149621" style="fill: #b8860b; stroke: #b8860b"/>
     </g>
    </g>
    <g id="text_21">
     <!-- Non-GAAP operating margin (company) -->
     <g transform="translate(65.58 103.949621) scale(0.08 -0.08)">
      <defs>
       <path id="DejaVuSans-4e" d="M 628 4666 
L 1478 4666 
L 3547 763 
L 3547 4666 
L 4159 4666 
L 4159 0 
L 3309 0 
L 1241 3903 
L 1241 0 
L 628 0 
L 628 4666 
z
" transform="scale(0.015625)"/>
      </defs>
      <use xlink:href="#DejaVuSans-4e"/>
      <use xlink:href="#DejaVuSans-6f" transform="translate(74.804688 0)"/>
      <use xlink:href="#DejaVuSans-6e" transform="translate(135.986328 0)"/>
      <use xlink:href="#DejaVuSans-2d" transform="translate(199.365234 0)"/>
      <use xlink:href="#DejaVuSans-47" transform="translate(239.074219 0)"/>
      <use xlink:href="#DejaVuSans-41" transform="translate(316.564453 0)"/>
      <use xlink:href="#DejaVuSans-41" transform="translate(387.722656 0)"/>
      <use xlink:href="#DejaVuSans-50" transform="translate(456.130859 0)"/>
      <use xlink:href="#DejaVuSans-20" transform="translate(516.433594 0)"/>
      <use xlink:href="#DejaVuSans-6f" transform="translate(548.220703 0)"/>
      <use xlink:href="#DejaVuSans-70" transform="translate(609.402344 0)"/>
      <use xlink:href="#DejaVuSans-65" transform="translate(672.878906 0)"/>
      <use xlink:href="#DejaVuSans-72" transform="translate(734.402344 0)"/>
      <use xlink:href="#DejaVuSans-61" transform="translate(775.515625 0)"/>
      <use xlink:href="#DejaVuSans-74" transform="translate(836.794922 0)"/>
      <use xlink:href="#DejaVuSans-69" transform="translate(876.003906 0)"/>
      <use xlink:href="#DejaVuSans-6e" transform="translate(903.787109 0)"/>
      <use xlink:href="#DejaVuSans-67" transform="translate(967.166016 0)"/>
      <use xlink:href="#DejaVuSans-20" transform="translate(1030.642578 0)"/>
      <use xlink:href="#DejaVuSans-6d" transform="translate(1062.429688 0)"/>
      <use xlink:href="#DejaVuSans-61" transform="translate(1159.841797 0)"/>
      <use xlink:href="#DejaVuSans-72" transform="translate(1221.121094 0)"/>
      <use xlink:href="#DejaVuSans-67" transform="translate(1260.484375 0)"/>
      <use xlink:href="#DejaVuSans-69" transform="translate(1323.960938 0)"/>
      <use xlink:href="#DejaVuSans-6e" transform="translate(1351.744141 0)"/>
      <use xlink:href="#DejaVuSans-20" transform="translate(1415.123047 0)"/>
      <use xlink:href="#DejaVuSans-28" transform="translate(1446.910156 0)"/>
      <use xlink:href="#DejaVuSans-63" transform="translate(1485.923828 0)"/>
      <use xlink:href="#DejaVuSans-6f" transform="translate(1540.904297 0)"/>
      <use xlink:href="#DejaVuSans-6d" transform="translate(1602.085938 0)"/>
      <use xlink:href="#DejaVuSans-70" transform="translate(1699.498047 0)"/>
      <use xlink:href="#DejaVuSans-61" transform="translate(1762.974609 0)"/>
      <use xlink:href="#DejaVuSans-6e" transform="translate(1824.253906 0)"/>
      <use xlink:href="#DejaVuSans-79" transform="translate(1887.632812 0)"/>
      <use xlink:href="#DejaVuSans-29" transform="translate(1946.8125 0)"/>
     </g>
    </g>
    <g id="line2d_30">
     <path d="M 43.18 112.892121 
L 51.18 112.892121 
L 59.18 112.892121 
" style="fill: none; stroke: #2a78d6; stroke-width: 2; stroke-linecap: round"/>
     <g>
      <use xlink:href="#m6370c8c92b" x="51.18" y="112.892121" style="fill: #2a78d6; stroke: #2a78d6"/>
     </g>
    </g>
    <g id="text_22">
     <!-- GAAP operating margin -->
     <g transform="translate(65.58 115.692121) scale(0.08 -0.08)">
      <use xlink:href="#DejaVuSans-47"/>
      <use xlink:href="#DejaVuSans-41" transform="translate(77.490234 0)"/>
      <use xlink:href="#DejaVuSans-41" transform="translate(148.648438 0)"/>
      <use xlink:href="#DejaVuSans-50" transform="translate(217.056641 0)"/>
      <use xlink:href="#DejaVuSans-20" transform="translate(277.359375 0)"/>
      <use xlink:href="#DejaVuSans-6f" transform="translate(309.146484 0)"/>
      <use xlink:href="#DejaVuSans-70" transform="translate(370.328125 0)"/>
      <use xlink:href="#DejaVuSans-65" transform="translate(433.804688 0)"/>
      <use xlink:href="#DejaVuSans-72" transform="translate(495.328125 0)"/>
      <use xlink:href="#DejaVuSans-61" transform="translate(536.441406 0)"/>
      <use xlink:href="#DejaVuSans-74" transform="translate(597.720703 0)"/>
      <use xlink:href="#DejaVuSans-69" transform="translate(636.929688 0)"/>
      <use xlink:href="#DejaVuSans-6e" transform="translate(664.712891 0)"/>
      <use xlink:href="#DejaVuSans-67" transform="translate(728.091797 0)"/>
      <use xlink:href="#DejaVuSans-20" transform="translate(791.568359 0)"/>
      <use xlink:href="#DejaVuSans-6d" transform="translate(823.355469 0)"/>
      <use xlink:href="#DejaVuSans-61" transform="translate(920.767578 0)"/>
      <use xlink:href="#DejaVuSans-72" transform="translate(982.046875 0)"/>
      <use xlink:href="#DejaVuSans-67" transform="translate(1021.410156 0)"/>
      <use xlink:href="#DejaVuSans-69" transform="translate(1084.886719 0)"/>
      <use xlink:href="#DejaVuSans-6e" transform="translate(1112.669922 0)"/>
     </g>
    </g>
   </g>
  </g>
  <g id="source">
   <!-- Source: HPE 10-K/10-Q; Bona Fide analysis. -->
   <g style="fill: #898781" transform="translate(7.2 249.765187) scale(0.07 -0.07)">
    <defs>
     <path id="DejaVuSans-75" d="M 544 1381 
L 544 3500 
L 1119 3500 
L 1119 1403 
Q 1119 906 1312 657 
Q 1506 409 1894 409 
Q 2359 409 2629 706 
Q 2900 1003 2900 1516 
L 2900 3500 
L 3475 3500 
L 3475 0 
L 2900 0 
L 2900 538 
Q 2691 219 2414 64 
Q 2138 -91 1772 -91 
Q 1169 -91 856 284 
Q 544 659 544 1381 
z
M 1991 3584 
L 1991 3584 
z
" transform="scale(0.015625)"/>
     <path id="DejaVuSans-3a" d="M 750 794 
L 1409 794 
L 1409 0 
L 750 0 
L 750 794 
z
M 750 3309 
L 1409 3309 
L 1409 2516 
L 750 2516 
L 750 3309 
z
" transform="scale(0.015625)"/>
     <path id="DejaVuSans-48" d="M 628 4666 
L 1259 4666 
L 1259 2753 
L 3553 2753 
L 3553 4666 
L 4184 4666 
L 4184 0 
L 3553 0 
L 3553 2222 
L 1259 2222 
L 1259 0 
L 628 0 
L 628 4666 
z
" transform="scale(0.015625)"/>
     <path id="DejaVuSans-45" d="M 628 4666 
L 3578 4666 
L 3578 4134 
L 1259 4134 
L 1259 2753 
L 3481 2753 
L 3481 2222 
L 1259 2222 
L 1259 531 
L 3634 531 
L 3634 0 
L 628 0 
L 628 4666 
z
" transform="scale(0.015625)"/>
     <path id="DejaVuSans-4b" d="M 628 4666 
L 1259 4666 
L 1259 2694 
L 3353 4666 
L 4166 4666 
L 1850 2491 
L 4331 0 
L 3500 0 
L 1259 2247 
L 1259 0 
L 628 0 
L 628 4666 
z
" transform="scale(0.015625)"/>
     <path id="DejaVuSans-2f" d="M 1625 4666 
L 2156 4666 
L 531 -594 
L 0 -594 
L 1625 4666 
z
" transform="scale(0.015625)"/>
     <path id="DejaVuSans-3b" d="M 750 3309 
L 1409 3309 
L 1409 2516 
L 750 2516 
L 750 3309 
z
M 750 794 
L 1409 794 
L 1409 256 
L 897 -744 
L 494 -744 
L 750 256 
L 750 794 
z
" transform="scale(0.015625)"/>
    </defs>
    <use xlink:href="#DejaVuSans-53"/>
    <use xlink:href="#DejaVuSans-6f" transform="translate(63.476562 0)"/>
    <use xlink:href="#DejaVuSans-75" transform="translate(124.658203 0)"/>
    <use xlink:href="#DejaVuSans-72" transform="translate(188.037109 0)"/>
    <use xlink:href="#DejaVuSans-63" transform="translate(226.900391 0)"/>
    <use xlink:href="#DejaVuSans-65" transform="translate(281.880859 0)"/>
    <use xlink:href="#DejaVuSans-3a" transform="translate(343.404297 0)"/>
    <use xlink:href="#DejaVuSans-20" transform="translate(377.095703 0)"/>
    <use xlink:href="#DejaVuSans-48" transform="translate(408.882812 0)"/>
    <use xlink:href="#DejaVuSans-50" transform="translate(484.078125 0)"/>
    <use xlink:href="#DejaVuSans-45" transform="translate(544.380859 0)"/>
    <use xlink:href="#DejaVuSans-20" transform="translate(607.564453 0)"/>
    <use xlink:href="#DejaVuSans-31" transform="translate(639.351562 0)"/>
    <use xlink:href="#DejaVuSans-30" transform="translate(702.974609 0)"/>
    <use xlink:href="#DejaVuSans-2d" transform="translate(766.597656 0)"/>
    <use xlink:href="#DejaVuSans-4b" transform="translate(802.681641 0)"/>
    <use xlink:href="#DejaVuSans-2f" transform="translate(868.257812 0)"/>
    <use xlink:href="#DejaVuSans-31" transform="translate(901.949219 0)"/>
    <use xlink:href="#DejaVuSans-30" transform="translate(965.572266 0)"/>
    <use xlink:href="#DejaVuSans-2d" transform="translate(1029.195312 0)"/>
    <use xlink:href="#DejaVuSans-51" transform="translate(1068.904297 0)"/>
    <use xlink:href="#DejaVuSans-3b" transform="translate(1147.615234 0)"/>
    <use xlink:href="#DejaVuSans-20" transform="translate(1181.306641 0)"/>
    <use xlink:href="#DejaVuSans-42" transform="translate(1213.09375 0)"/>
    <use xlink:href="#DejaVuSans-6f" transform="translate(1281.697266 0)"/>
    <use xlink:href="#DejaVuSans-6e" transform="translate(1342.878906 0)"/>
    <use xlink:href="#DejaVuSans-61" transform="translate(1406.257812 0)"/>
    <use xlink:href="#DejaVuSans-20" transform="translate(1467.537109 0)"/>
    <use xlink:href="#DejaVuSans-46" transform="translate(1499.324219 0)"/>
    <use xlink:href="#DejaVuSans-69" transform="translate(1549.59375 0)"/>
    <use xlink:href="#DejaVuSans-64" transform="translate(1577.376953 0)"/>
    <use xlink:href="#DejaVuSans-65" transform="translate(1640.853516 0)"/>
    <use xlink:href="#DejaVuSans-20" transform="translate(1702.376953 0)"/>
    <use xlink:href="#DejaVuSans-61" transform="translate(1734.164062 0)"/>
    <use xlink:href="#DejaVuSans-6e" transform="translate(1795.443359 0)"/>
    <use xlink:href="#DejaVuSans-61" transform="translate(1858.822266 0)"/>
    <use xlink:href="#DejaVuSans-6c" transform="translate(1920.101562 0)"/>
    <use xlink:href="#DejaVuSans-79" transform="translate(1947.884766 0)"/>
    <use xlink:href="#DejaVuSans-73" transform="translate(2007.064453 0)"/>
    <use xlink:href="#DejaVuSans-69" transform="translate(2059.164062 0)"/>
    <use xlink:href="#DejaVuSans-73" transform="translate(2086.947266 0)"/>
    <use xlink:href="#DejaVuSans-2e" transform="translate(2139.046875 0)"/>
   </g>
  </g>
 </g>
 <defs>
  <clipPath id="p4fb45f970b">
   <rect x="35.98" y="35.558281" width="497.54" height="174.168"/>
  </clipPath>
 </defs>
</svg>
